<svg id="svg" xmlns="http://www.w3.org/2000/svg" xmlns:xlink="http://www.w3.org/1999/xlink" width="400" height="400" viewBox="0, 0, 400,400"><g id="svgg"><path id="path0" d="M106.641 1.091 C 95.328 4.695,86.898 13.447,84.017 24.578 C 82.186 31.657,82.186 368.343,84.017 375.422 C 86.505 385.036,92.946 392.682,102.344 397.179 L 107.422 399.609 203.125 399.609 L 298.828 399.609 304.081 397.121 C 311.380 393.663,316.577 388.562,320.136 381.361 L 323.047 375.472 323.047 200.000 L 323.047 24.528 320.136 18.639 C 316.577 11.438,311.380 6.337,304.081 2.879 L 298.828 0.391 204.297 0.243 C 129.531 0.126,109.112 0.303,106.641 1.091 M297.141 15.233 C 302.669 17.542,309.332 25.739,309.367 30.273 C 309.373 31.035,303.600 31.250,283.086 31.250 L 256.796 31.250 221.642 50.781 L 186.489 70.313 141.682 70.313 L 96.875 70.313 96.875 50.923 C 96.875 25.175,98.223 20.941,107.965 16.086 L 112.026 14.063 203.183 14.062 C 282.387 14.062,294.708 14.216,297.141 15.233 M117.319 25.071 C 107.402 30.105,106.516 46.018,115.811 52.169 C 129.541 61.255,146.251 46.489,139.056 31.628 C 135.471 24.223,125.134 21.104,117.319 25.071 M150.497 25.497 C 145.383 30.612,148.967 39.063,156.250 39.063 C 161.431 39.063,164.063 36.431,164.063 31.250 C 164.063 28.301,163.647 27.142,162.003 25.497 C 160.358 23.853,159.199 23.438,156.250 23.438 C 153.301 23.438,152.142 23.853,150.497 25.497 M173.935 25.497 C 168.820 30.612,172.404 39.063,179.688 39.063 C 184.869 39.063,187.500 36.431,187.500 31.250 C 187.500 28.301,187.085 27.142,185.440 25.497 C 183.796 23.853,182.636 23.438,179.688 23.438 C 176.739 23.438,175.579 23.853,173.935 25.497 M132.000 28.622 C 142.181 34.636,137.081 50.781,125.000 50.781 C 116.660 50.781,113.281 47.402,113.281 39.063 C 113.281 29.124,123.346 23.510,132.000 28.622 M309.367 204.883 L 309.360 370.703 307.521 374.653 C 305.253 379.523,300.346 383.844,295.475 385.259 C 292.456 386.137,275.764 386.324,202.313 386.305 L 112.828 386.282 108.383 384.107 C 105.938 382.911,102.866 380.636,101.556 379.052 C 96.586 373.043,96.875 382.669,96.875 223.296 L 96.875 78.125 142.773 78.107 L 188.672 78.088 223.438 58.651 L 258.203 39.213 283.789 39.138 L 309.375 39.063 309.367 204.883 M182.813 136.249 C 144.316 147.861,121.875 178.076,121.875 218.292 C 121.875 314.378,256.440 333.676,285.766 241.797 C 288.917 231.926,289.268 207.995,286.425 196.958 C 278.712 167.018,255.288 143.471,225.703 135.918 C 216.427 133.549,191.113 133.745,182.813 136.249 M226.563 146.471 C 254.424 155.367,275.572 180.447,278.534 208.106 L 279.091 213.306 257.014 213.098 L 234.938 212.891 234.032 209.320 C 226.624 180.135,184.526 180.598,175.746 209.961 L 174.753 213.281 152.750 213.281 L 130.748 213.281 131.367 208.140 C 135.133 176.861,160.080 150.572,191.797 144.460 C 199.167 143.040,219.499 144.216,226.563 146.471 M213.476 199.213 C 223.280 203.549,227.866 215.859,223.374 225.781 C 215.641 242.866,190.741 241.030,185.496 222.988 C 180.777 206.753,197.807 192.281,213.476 199.213 M200.914 203.861 C 189.931 206.625,186.484 221.859,195.047 229.789 C 199.648 234.049,208.484 234.695,213.660 231.149 C 227.728 221.509,217.531 199.679,200.914 203.861 M209.803 213.786 C 211.134 215.223,211.719 216.754,211.719 218.807 C 211.719 226.146,200.390 227.422,198.817 220.260 C 197.323 213.461,205.200 208.819,209.803 213.786 M175.512 224.805 C 183.418 248.143,209.499 255.469,225.986 238.982 C 230.194 234.775,234.375 227.600,234.375 224.587 C 234.375 223.602,237.574 223.438,256.742 223.438 L 279.108 223.438 278.563 228.253 C 273.959 268.946,230.348 299.405,189.844 290.217 C 186.621 289.486,182.227 288.542,180.078 288.119 C 173.174 286.760,155.469 276.646,155.469 274.062 C 155.469 273.685,153.257 271.017,150.555 268.133 C 139.727 256.581,133.110 242.764,131.303 227.930 L 130.756 223.438 152.902 223.438 C 173.297 223.438,175.086 223.546,175.512 224.805 M149.375 329.063 C 148.859 329.578,148.438 330.914,148.438 332.031 C 148.438 336.062,146.695 335.938,203.125 335.938 C 259.555 335.938,257.813 336.062,257.813 332.031 C 257.813 330.914,257.391 329.578,256.875 329.062 C 255.519 327.707,150.731 327.707,149.375 329.063 " stroke="none" fill="#000000" fill-rule="evenodd"></path></g></svg>