<?xml version="1.0" encoding="UTF-8" standalone="no"?>
<svg width="400px" height="400px" viewBox="0 0 400 400" version="1.1" xmlns="http://www.w3.org/2000/svg"
    xmlns:xlink="http://www.w3.org/1999/xlink">
    <title>pokeballs</title>
    <defs></defs>
    <style>
        #pokeballs {
            fill: currentColor;
            fill-opacity: .25;
            stroke: none;
            fill-rule: evenodd;
        }
    </style>
    <g id="svg">
        <path id="pokeballs"
            d="M274.934 1.137 C 266.558 4.263,270.755 16.744,279.326 14.199 C 285.107 12.482,285.759 4.295,280.339 1.501 C 279.015 0.818,276.281 0.634,274.934 1.137 M7.682 2.183 C 1.259 5.220,3.436 14.844,10.547 14.844 C 14.515 14.844,17.169 12.195,17.182 8.220 C 17.198 3.219,12.204 0.046,7.682 2.183 M278.741 6.155 C 279.720 7.135,279.675 8.339,278.626 9.222 C 276.512 11.000,273.895 8.384,275.674 6.270 C 276.557 5.221,277.761 5.176,278.741 6.155 M11.999 6.751 C 13.868 8.619,11.381 11.530,9.309 9.900 C 8.051 8.910,8.221 7.042,9.635 6.327 C 10.631 5.823,11.168 5.919,11.999 6.751 M381.824 7.564 C 380.269 8.189,379.799 16.295,381.230 17.818 C 382.091 18.734,383.619 18.749,384.517 17.850 C 385.258 17.109,385.511 9.208,384.822 8.311 C 384.108 7.381,382.981 7.100,381.824 7.564 M332.369 8.323 C 330.182 9.657,330.189 13.274,332.382 14.711 C 335.688 16.878,339.794 12.771,337.628 9.465 C 336.582 7.868,334.025 7.313,332.369 8.323 M64.974 8.583 C 62.383 9.662,62.062 13.626,64.446 15.100 C 66.937 16.639,70.050 14.906,70.050 11.979 C 70.050 9.343,67.402 7.572,64.974 8.583 M118.608 10.795 C 117.984 11.420,117.969 11.531,117.969 15.503 L 117.969 19.571 118.730 20.333 C 119.782 21.385,121.760 21.146,122.234 19.910 C 122.746 18.575,122.397 11.290,121.793 10.722 C 120.943 9.924,119.446 9.958,118.608 10.795 M370.804 18.620 C 369.392 19.387,369.234 21.398,370.507 22.400 C 371.619 23.274,379.190 23.178,380.090 22.277 C 381.169 21.198,380.948 19.272,379.669 18.610 C 378.641 18.079,371.786 18.086,370.804 18.620 M386.203 18.564 C 384.785 19.281,384.520 21.019,385.657 22.155 L 386.418 22.917 390.617 22.917 C 394.727 22.917,394.829 22.903,395.455 22.277 C 396.420 21.312,396.347 19.790,395.293 18.903 C 394.363 18.121,387.579 17.867,386.203 18.564 M294.129 20.691 C 293.108 21.712,293.253 22.932,294.564 24.355 L 295.639 25.521 294.564 26.687 C 291.803 29.683,295.015 32.751,297.992 29.962 L 299.089 28.935 300.167 29.988 C 302.066 31.845,304.427 31.177,304.427 28.783 C 304.427 27.875,304.268 27.554,303.394 26.701 L 302.360 25.692 303.394 24.570 C 306.150 21.580,303.109 18.376,300.124 21.127 L 298.958 22.202 297.792 21.127 C 296.369 19.815,295.150 19.670,294.129 20.691 M107.931 21.473 C 107.490 21.914,107.292 22.401,107.292 23.047 C 107.292 24.994,107.946 25.260,112.720 25.260 C 117.693 25.260,118.099 25.093,118.099 23.047 C 118.099 21.001,117.693 20.833,112.720 20.833 C 108.661 20.833,108.556 20.847,107.931 21.473 M122.910 21.491 C 122.506 21.921,122.292 22.461,122.292 23.047 C 122.292 24.986,122.951 25.260,127.614 25.260 C 132.493 25.260,133.073 25.028,133.073 23.073 C 133.073 21.031,132.597 20.833,127.698 20.833 C 123.575 20.833,123.521 20.841,122.910 21.491 M381.824 22.929 C 380.192 23.584,379.792 31.904,381.330 33.226 C 382.315 34.073,383.664 34.068,384.517 33.215 C 385.258 32.474,385.511 24.573,384.822 23.675 C 384.108 22.745,382.981 22.465,381.824 22.929 M118.730 25.761 L 117.969 26.522 117.969 30.591 C 117.969 35.319,118.233 35.938,120.255 35.938 C 122.174 35.938,122.396 35.393,122.396 30.669 C 122.396 26.094,122.359 25.910,121.336 25.381 C 120.243 24.816,119.578 24.913,118.730 25.761 M29.212 27.426 C 28.280 28.418,28.444 29.741,29.665 31.065 L 30.684 32.170 29.665 33.263 C 26.985 36.135,30.010 39.161,32.883 36.481 L 33.976 35.462 35.081 36.481 C 37.973 39.147,40.987 36.138,38.304 33.263 L 37.285 32.170 38.304 31.065 C 40.973 28.170,37.976 25.173,35.081 27.842 L 33.976 28.861 32.883 27.842 C 31.545 26.594,30.143 26.435,29.212 27.426 M332.031 35.051 C 324.198 36.190,315.425 39.924,309.413 44.678 L 307.362 46.300 305.680 46.165 C 299.132 45.639,293.967 52.137,295.928 58.434 L 296.324 59.706 295.333 61.689 C 287.721 76.913,288.408 95.352,297.134 109.985 C 299.272 113.571,300.609 114.355,302.199 112.956 C 303.398 111.900,303.323 111.075,301.802 108.594 C 297.916 102.257,295.430 95.062,294.895 88.607 L 294.717 86.458 308.397 86.458 L 322.076 86.458 322.260 87.685 C 324.992 105.905,352.249 106.518,356.170 88.448 L 356.602 86.458 370.264 86.458 L 383.926 86.458 383.747 88.477 C 381.005 119.436,348.211 138.035,319.834 124.725 C 316.166 123.004,314.583 123.289,314.583 125.668 C 314.583 127.181,314.996 127.583,318.057 129.052 C 336.709 137.999,359.199 134.216,373.817 119.672 C 389.040 104.527,392.915 81.347,383.446 62.067 C 382.087 59.299,382.031 59.106,382.279 58.030 C 383.738 51.702,378.968 45.774,372.706 46.133 C 371.247 46.216,371.192 46.193,369.141 44.637 C 358.587 36.632,345.107 33.150,332.031 35.051 M67.148 35.430 C 36.313 37.955,15.962 68.509,25.442 98.047 C 33.834 124.194,62.618 138.160,88.139 128.466 C 119.139 116.692,129.332 77.600,108.022 52.210 C 104.252 47.719,102.678 46.792,101.063 48.112 C 99.699 49.226,99.991 50.220,102.464 52.894 C 109.892 60.925,113.458 68.681,114.693 79.492 L 114.834 80.729 101.419 80.729 C 90.907 80.729,87.986 80.659,87.918 80.404 C 85.774 72.350,80.851 67.682,73.430 66.666 C 65.089 65.524,56.660 71.158,54.862 79.077 L 54.516 80.599 41.051 80.666 L 27.586 80.734 27.748 79.364 C 31.078 51.268,57.749 33.531,84.245 41.791 C 88.212 43.027,90.261 41.928,89.029 39.222 C 87.992 36.947,75.359 34.757,67.148 35.430 M343.099 39.332 C 351.237 40.098,359.369 43.175,365.571 47.836 L 366.428 48.481 365.560 49.442 C 364.042 51.122,356.191 62.784,355.690 64.103 C 353.468 69.950,357.851 76.169,364.193 76.169 C 368.197 76.169,369.067 75.549,375.194 68.324 L 379.028 63.802 379.767 65.262 C 381.468 68.626,383.321 75.441,383.742 79.885 L 383.922 81.775 370.181 81.708 L 356.440 81.641 356.082 80.208 C 351.851 63.274,326.795 63.274,322.564 80.208 L 322.206 81.641 308.463 81.708 L 294.719 81.775 294.901 79.755 C 295.284 75.501,296.678 70.226,298.538 65.995 L 299.349 64.152 303.516 69.033 C 306.223 72.205,308.159 74.232,309.045 74.821 C 316.118 79.526,325.263 72.273,322.446 64.193 C 322.007 62.933,315.045 52.470,312.948 49.916 L 311.917 48.661 312.516 48.223 C 321.851 41.411,332.447 38.330,343.099 39.332 M92.566 42.045 C 91.709 42.903,91.683 44.477,92.513 45.238 C 95.314 47.804,98.698 47.775,98.698 45.185 C 98.698 42.785,94.154 40.458,92.566 42.045 M307.161 51.276 C 308.577 51.933,309.391 52.867,312.516 57.422 C 318.015 65.438,318.229 65.806,318.229 67.229 C 318.229 70.413,314.945 72.524,312.101 71.167 C 310.951 70.619,301.531 59.676,300.775 58.009 C 298.785 53.624,302.891 49.295,307.161 51.276 M374.934 51.182 C 377.685 52.331,378.668 55.489,377.148 58.293 C 376.046 60.327,367.133 70.639,366.018 71.171 C 362.478 72.858,358.446 68.906,360.221 65.489 C 360.920 64.143,368.226 53.564,369.097 52.637 C 370.704 50.927,372.971 50.362,374.934 51.182 M124.406 53.848 C 122.984 54.729,122.347 56.828,123.015 58.428 C 124.312 61.532,129.086 61.274,129.953 58.054 C 130.824 54.820,127.232 52.097,124.406 53.848 M4.774 54.142 C -2.595 56.023,-1.324 67.448,6.255 67.448 C 10.964 67.448,14.157 62.930,12.651 58.397 C 11.638 55.346,7.922 53.338,4.774 54.142 M393.342 54.753 C 390.425 57.432,392.919 62.058,396.810 61.184 C 399.051 60.681,400.206 57.890,399.076 55.705 C 398.062 53.745,394.994 53.235,393.342 54.753 M270.618 54.923 C 263.429 57.406,265.298 68.229,272.917 68.229 C 279.204 68.229,282.133 60.573,277.486 56.289 C 275.582 54.534,273.147 54.050,270.618 54.923 M7.920 59.395 C 8.696 60.317,8.741 60.678,8.211 61.703 C 7.122 63.810,3.696 62.589,4.270 60.299 C 4.725 58.486,6.736 57.988,7.920 59.395 M273.943 59.497 C 275.910 60.515,275.142 63.542,272.917 63.542 C 270.725 63.542,269.924 60.549,271.838 59.509 C 272.719 59.031,273.037 59.029,273.943 59.497 M74.777 71.605 C 83.745 74.377,86.489 85.448,79.849 92.070 C 73.028 98.872,61.699 95.708,59.253 86.317 C 56.890 77.246,65.777 68.824,74.777 71.605 M343.653 72.789 C 352.294 76.042,354.700 87.009,348.198 93.510 C 341.077 100.631,329.269 97.050,326.928 87.061 C 324.740 77.726,334.543 69.361,343.653 72.789 M69.124 74.968 C 59.356 77.495,61.126 91.921,71.205 91.928 C 80.263 91.935,83.207 79.738,75.110 75.752 C 73.340 74.881,70.766 74.544,69.124 74.968 M337.093 76.010 C 327.138 78.583,329.035 93.327,339.323 93.344 C 350.676 93.363,351.113 76.361,339.771 75.883 C 338.737 75.840,337.532 75.897,337.093 76.010 M73.646 80.171 C 76.750 82.382,75.072 87.370,71.224 87.370 C 68.163 87.370,66.234 84.192,67.670 81.515 C 68.862 79.291,71.559 78.685,73.646 80.171 M341.596 81.158 C 342.925 82.150,343.359 83.000,343.359 84.610 C 343.359 89.982,335.651 90.201,335.220 84.842 C 334.954 81.527,338.977 79.203,341.596 81.158 M54.545 86.338 C 57.221 104.182,83.843 104.831,87.681 87.145 L 88.112 85.156 101.490 85.156 L 114.867 85.156 114.736 86.003 C 114.664 86.468,114.533 87.552,114.444 88.411 C 112.175 110.396,91.482 128.140,69.473 126.971 C 47.186 125.788,30.349 109.470,27.742 86.523 L 27.586 85.156 40.977 85.156 L 54.368 85.156 54.545 86.338 M305.822 116.144 C 303.258 117.178,304.579 120.590,308.461 122.957 C 310.216 124.028,312.098 123.065,312.098 121.096 C 312.098 120.076,311.975 119.888,310.281 118.321 C 307.935 116.151,306.970 115.680,305.822 116.144 M142.122 133.949 C 133.745 137.075,137.942 149.557,146.514 147.011 C 152.294 145.294,152.947 137.108,147.526 134.313 C 146.203 133.631,143.468 133.447,142.122 133.949 M145.928 138.968 C 147.273 140.313,146.270 142.708,144.361 142.708 C 142.614 142.708,141.691 140.474,142.862 139.082 C 143.744 138.034,144.949 137.989,145.928 138.968 M249.012 140.377 C 247.456 141.001,246.986 149.108,248.418 150.630 C 249.279 151.546,250.806 151.561,251.705 150.663 C 252.446 149.922,252.699 142.020,252.010 141.123 C 251.296 140.193,250.169 139.913,249.012 140.377 M199.557 141.135 C 197.369 142.469,197.376 146.087,199.569 147.524 C 202.875 149.690,206.982 145.584,204.815 142.278 C 203.769 140.681,201.213 140.126,199.557 141.135 M237.992 151.432 C 236.579 152.200,236.421 154.211,237.695 155.212 C 238.806 156.087,246.377 155.990,247.277 155.090 C 248.357 154.011,248.135 152.084,246.856 151.423 C 245.829 150.891,238.973 150.899,237.992 151.432 M253.391 151.376 C 251.972 152.094,251.708 153.831,252.845 154.968 L 253.606 155.729 257.804 155.729 C 261.915 155.729,262.016 155.716,262.642 155.090 C 263.607 154.125,263.534 152.603,262.480 151.716 C 261.550 150.933,254.767 150.680,253.391 151.376 M161.316 153.504 C 160.295 154.525,160.440 155.744,161.752 157.167 L 162.827 158.333 161.752 159.499 C 158.991 162.495,162.202 165.564,165.179 162.775 L 166.276 161.747 167.354 162.801 C 169.254 164.657,171.615 163.989,171.615 161.596 C 171.615 160.688,171.455 160.367,170.581 159.513 L 169.548 158.504 170.581 157.383 C 173.338 154.392,170.296 151.189,167.312 153.939 L 166.146 155.014 164.980 153.939 C 163.557 152.628,162.337 152.483,161.316 153.504 M249.012 155.742 C 247.379 156.397,246.980 164.717,248.517 166.038 C 249.502 166.885,250.851 166.881,251.705 166.027 C 252.446 165.286,252.699 157.385,252.010 156.488 C 251.296 155.558,250.169 155.277,249.012 155.742 M199.342 167.833 C 196.723 168.231,192.599 169.234,190.264 170.040 C 188.859 170.525,188.638 170.538,187.622 170.193 C 172.634 165.105,154.180 182.433,160.402 195.752 L 161.155 197.363 160.392 199.329 C 155.081 213.006,156.604 229.856,164.321 242.798 C 166.460 246.384,167.796 247.168,169.387 245.768 C 170.586 244.713,170.511 243.888,168.989 241.406 C 165.104 235.070,162.617 227.874,162.082 221.419 L 161.904 219.271 175.584 219.271 L 189.264 219.271 189.448 220.497 C 192.180 238.717,219.436 239.330,223.358 221.260 L 223.790 219.271 237.452 219.271 L 251.114 219.271 250.935 221.289 C 248.193 252.245,215.395 270.846,187.021 257.537 C 183.353 255.817,181.771 256.101,181.771 258.481 C 181.771 259.994,182.183 260.395,185.245 261.864 C 213.293 275.319,246.946 259.354,254.303 229.103 C 256.792 218.867,255.669 204.582,251.807 197.366 C 251.639 197.052,251.777 196.479,252.282 195.401 C 253.417 192.978,253.340 187.546,252.124 184.335 C 248.198 173.962,235.581 167.070,225.781 169.944 C 223.931 170.486,224.085 170.502,220.463 169.411 C 214.423 167.593,205.373 166.917,199.342 167.833 M212.630 172.432 C 214.863 172.753,219.010 173.692,219.010 173.876 C 219.010 173.950,218.607 174.672,218.115 175.482 C 209.567 189.530,230.623 209.144,246.273 201.711 L 248.163 200.814 248.939 203.238 C 249.844 206.061,250.675 210.010,250.930 212.698 L 251.109 214.588 237.368 214.521 L 223.627 214.453 223.263 213.029 C 218.923 196.069,193.989 196.063,189.752 213.021 L 189.394 214.453 175.686 214.521 L 161.979 214.588 161.981 213.739 C 161.985 211.341,163.458 204.304,164.460 201.900 L 164.807 201.065 166.323 201.818 C 181.693 209.449,202.877 189.295,194.235 175.261 C 193.342 173.811,193.255 173.882,196.892 173.073 C 202.074 171.919,207.526 171.697,212.630 172.432 M186.619 174.837 C 195.201 178.738,192.106 191.245,181.201 196.735 C 169.772 202.489,160.110 194.998,165.389 184.475 C 169.299 176.682,179.996 171.825,186.619 174.837 M234.071 174.355 C 243.557 176.591,250.895 186.779,247.922 193.586 C 243.990 202.588,227.561 198.939,222.282 187.891 C 218.084 179.104,224.239 172.037,234.071 174.355 M201.008 184.454 C 200.247 185.033,196.354 193.134,196.354 194.138 C 196.354 197.451,199.667 197.005,201.452 193.451 C 202.817 190.733,202.607 190.828,203.651 192.456 C 205.303 195.030,207.199 195.027,208.855 192.446 C 209.844 190.905,209.703 190.830,211.198 193.693 C 212.441 196.074,213.100 196.587,214.471 196.243 C 216.727 195.676,216.666 194.265,214.166 189.255 C 210.974 182.857,209.822 182.419,207.043 186.545 L 206.195 187.804 205.069 186.124 C 204.449 185.200,203.748 184.370,203.512 184.279 C 202.815 184.012,201.465 184.106,201.008 184.454 M260.529 187.565 C 257.612 190.245,260.106 194.870,263.997 193.997 C 266.239 193.494,267.393 190.702,266.263 188.517 C 265.250 186.557,262.181 186.048,260.529 187.565 M137.805 187.736 C 130.616 190.219,132.486 201.042,140.104 201.042 C 146.391 201.042,149.321 193.385,144.673 189.101 C 142.770 187.346,140.334 186.862,137.805 187.736 M141.131 192.310 C 143.098 193.327,142.329 196.354,140.104 196.354 C 137.913 196.354,137.112 193.361,139.025 192.322 C 139.907 191.843,140.224 191.841,141.131 192.310 M210.840 205.602 C 219.482 208.855,221.887 219.821,215.385 226.323 C 208.265 233.443,196.457 229.863,194.116 219.873 C 191.928 210.538,201.731 202.173,210.840 205.602 M204.281 208.823 C 194.326 211.396,196.222 226.140,206.510 226.157 C 217.864 226.176,218.300 209.173,206.958 208.696 C 205.924 208.652,204.719 208.709,204.281 208.823 M208.784 213.971 C 210.113 214.963,210.547 215.813,210.547 217.422 C 210.547 222.794,202.838 223.014,202.408 217.654 C 202.142 214.339,206.164 212.015,208.784 213.971 M173.010 248.956 C 170.446 249.991,171.767 253.403,175.648 255.770 C 177.403 256.840,179.285 255.878,179.285 253.909 C 179.285 252.889,179.162 252.701,177.468 251.134 C 175.123 248.964,174.158 248.493,173.010 248.956 M8.528 266.762 C 0.152 269.888,4.348 282.369,12.920 279.824 C 18.700 278.107,19.353 269.920,13.932 267.126 C 12.609 266.443,9.875 266.259,8.528 266.762 M274.934 266.762 C 266.558 269.888,270.755 282.369,279.326 279.824 C 285.107 278.107,285.759 269.920,280.339 267.126 C 279.015 266.443,276.281 266.259,274.934 266.762 M12.334 271.780 C 13.314 272.760,13.268 273.964,12.220 274.847 C 10.106 276.625,7.489 274.009,9.268 271.895 C 10.151 270.846,11.355 270.801,12.334 271.780 M278.741 271.780 C 280.086 273.125,279.082 275.521,277.174 275.521 C 275.427 275.521,274.503 273.287,275.674 271.895 C 276.557 270.846,277.761 270.801,278.741 271.780 M115.418 273.189 C 113.862 273.814,113.393 281.920,114.824 283.443 C 115.685 284.359,117.212 284.374,118.111 283.475 C 118.852 282.734,119.105 274.833,118.416 273.936 C 117.702 273.006,116.575 272.725,115.418 273.189 M381.824 273.189 C 380.269 273.814,379.799 281.920,381.230 283.443 C 382.091 284.359,383.619 284.374,384.517 283.475 C 385.258 282.734,385.511 274.833,384.822 273.936 C 384.108 273.006,382.981 272.725,381.824 273.189 M65.963 273.948 C 63.776 275.282,63.783 278.899,65.976 280.336 C 69.282 282.503,73.388 278.396,71.222 275.090 C 70.175 273.493,67.619 272.938,65.963 273.948 M332.369 273.948 C 330.182 275.282,330.189 278.899,332.382 280.336 C 335.688 282.503,339.794 278.396,337.628 275.090 C 336.582 273.493,334.025 272.938,332.369 273.948 M104.398 284.245 C 102.985 285.012,102.827 287.023,104.101 288.025 C 105.213 288.899,112.784 288.803,113.684 287.902 C 114.787 286.799,114.492 284.897,113.103 284.157 C 112.244 283.700,105.272 283.770,104.398 284.245 M119.797 284.189 C 118.378 284.906,118.114 286.644,119.251 287.780 L 120.012 288.542 124.211 288.542 C 128.321 288.542,128.422 288.528,129.048 287.902 C 130.014 286.937,129.941 285.415,128.886 284.528 C 127.956 283.746,121.173 283.492,119.797 284.189 M370.804 284.245 C 369.392 285.012,369.234 287.023,370.507 288.025 C 371.619 288.899,379.190 288.803,380.090 287.902 C 381.169 286.823,380.948 284.897,379.669 284.235 C 378.641 283.704,371.786 283.711,370.804 284.245 M386.203 284.189 C 384.785 284.906,384.520 286.644,385.657 287.780 L 386.418 288.542 390.617 288.542 C 394.727 288.542,394.829 288.528,395.455 287.902 C 396.420 286.937,396.347 285.415,395.293 284.528 C 394.363 283.746,387.579 283.492,386.203 284.189 M27.723 286.316 C 26.701 287.337,26.846 288.557,28.158 289.980 L 29.233 291.146 28.158 292.312 C 25.397 295.308,28.608 298.376,31.586 295.587 L 32.682 294.560 33.760 295.613 C 35.660 297.470,38.021 296.802,38.021 294.408 C 38.021 293.500,37.861 293.179,36.987 292.326 L 35.954 291.317 36.987 290.195 C 39.744 287.205,36.702 284.001,33.718 286.752 L 32.552 287.827 31.386 286.752 C 29.963 285.440,28.744 285.295,27.723 286.316 M294.129 286.316 C 293.108 287.337,293.253 288.557,294.564 289.980 L 295.639 291.146 294.564 292.312 C 291.803 295.308,295.015 298.376,297.992 295.587 L 299.089 294.560 300.167 295.613 C 302.066 297.470,304.427 296.802,304.427 294.408 C 304.427 293.500,304.268 293.179,303.394 292.326 L 302.360 291.317 303.394 290.195 C 306.150 287.205,303.109 284.001,300.124 286.752 L 298.958 287.827 297.792 286.752 C 296.369 285.440,295.150 285.295,294.129 286.316 M115.418 288.554 C 113.786 289.209,113.386 297.529,114.923 298.851 C 115.909 299.698,117.257 299.693,118.111 298.840 C 118.852 298.099,119.105 290.198,118.416 289.300 C 117.702 288.370,116.575 288.090,115.418 288.554 M381.824 288.554 C 380.192 289.209,379.792 297.529,381.330 298.851 C 382.315 299.698,383.664 299.693,384.517 298.840 C 385.258 298.099,385.511 290.198,384.822 289.300 C 384.108 288.370,382.981 288.090,381.824 288.554 M65.625 300.676 C 31.100 305.696,12.655 345.302,30.728 375.610 C 32.887 379.231,34.187 379.976,35.852 378.543 C 36.989 377.565,36.845 376.349,35.313 374.007 C 31.741 368.543,29.025 360.653,28.484 354.168 L 28.311 352.083 41.990 352.083 L 55.670 352.083 55.854 353.310 C 58.586 371.530,85.843 372.143,89.764 354.073 L 90.196 352.083 103.858 352.083 L 117.520 352.083 117.341 354.102 C 114.600 385.055,81.800 403.658,53.428 390.350 C 49.760 388.629,48.177 388.914,48.177 391.293 C 48.177 392.739,48.554 393.152,50.987 394.371 C 65.592 401.689,83.929 401.058,97.748 392.762 C 113.045 383.578,122.135 367.590,122.135 349.870 C 122.135 319.508,95.511 296.331,65.625 300.676 M331.914 300.683 C 297.276 306.080,279.066 345.310,297.134 375.610 C 299.293 379.231,300.593 379.976,302.258 378.543 C 303.395 377.565,303.251 376.349,301.719 374.007 C 298.147 368.543,295.431 360.653,294.891 354.168 L 294.717 352.083 308.397 352.083 L 322.076 352.083 322.260 353.310 C 324.992 371.530,352.249 372.143,356.170 354.073 L 356.602 352.083 370.264 352.083 L 383.926 352.083 383.747 354.102 C 381.006 385.055,348.206 403.658,319.834 390.350 C 316.166 388.629,314.583 388.914,314.583 391.293 C 314.583 392.739,314.960 393.152,317.393 394.371 C 331.999 401.689,350.335 401.058,364.154 392.762 C 388.849 377.936,396.065 345.877,380.079 322.005 C 369.550 306.281,350.398 297.803,331.914 300.683 M343.085 304.958 C 348.923 305.512,359.552 308.806,360.512 310.360 C 361.107 311.323,353.764 316.000,349.397 317.438 C 347.146 318.180,347.162 318.219,348.590 315.459 C 349.899 312.927,349.869 311.703,348.477 310.958 C 346.768 310.044,345.853 310.790,343.365 315.128 L 341.213 318.880 339.812 318.962 C 336.976 319.126,337.023 319.162,334.640 314.998 C 332.063 310.494,331.021 309.779,329.252 311.300 C 328.209 312.198,328.282 313.484,329.490 315.495 C 330.006 316.354,330.325 317.095,330.200 317.140 C 329.100 317.539,319.010 311.017,319.010 309.908 C 319.010 309.789,320.094 309.218,321.419 308.638 C 328.618 305.489,335.806 304.268,343.085 304.958 M81.707 305.701 C 83.957 306.176,87.572 307.280,90.067 308.256 C 91.348 308.757,84.881 312.217,80.446 313.404 C 72.232 315.602,61.909 313.883,55.790 309.299 L 54.939 308.662 56.180 308.131 C 59.020 306.917,63.609 305.702,67.578 305.113 C 69.889 304.771,79.116 305.155,81.707 305.701 M97.052 312.010 C 99.061 313.318,99.060 313.210,97.070 314.788 C 82.596 326.270,61.787 326.155,47.840 314.516 L 46.591 313.474 48.287 312.336 C 50.359 310.946,50.038 310.933,52.190 312.502 C 64.349 321.366,81.596 321.209,93.628 312.125 C 95.501 310.710,95.080 310.725,97.052 312.010 M320.130 317.169 C 323.551 319.662,327.136 321.355,331.289 322.439 C 334.019 323.152,333.795 322.953,335.693 326.330 C 337.403 329.372,337.730 329.688,339.176 329.688 C 340.377 329.688,340.751 329.291,342.558 326.100 L 344.038 323.486 345.782 323.189 C 352.456 322.054,358.384 319.110,363.603 314.340 L 365.022 313.044 367.113 314.716 C 376.284 322.054,382.632 333.809,383.742 345.510 L 383.922 347.400 370.181 347.333 L 356.440 347.266 356.075 345.841 C 351.732 328.868,326.883 328.862,322.570 345.833 L 322.206 347.266 308.461 347.333 L 294.716 347.400 294.892 345.514 C 296.014 333.440,302.989 321.025,312.746 313.735 L 314.684 312.287 316.522 314.082 C 317.533 315.070,319.156 316.459,320.130 317.169 M104.981 318.685 C 107.239 321.033,108.919 323.174,110.673 325.937 L 111.681 327.524 103.869 337.395 L 96.058 347.266 93.046 347.266 L 90.033 347.266 89.669 345.841 C 85.325 328.868,60.473 328.862,56.164 345.833 L 55.801 347.266 52.575 347.338 L 49.349 347.410 41.618 337.648 L 33.887 327.886 35.928 324.802 C 37.090 323.046,39.023 320.611,40.417 319.148 L 42.864 316.577 44.935 318.228 C 61.471 331.408,84.724 331.249,100.781 317.847 C 102.875 316.099,102.405 316.005,104.981 318.685 M126.936 320.378 C 124.018 323.057,126.513 327.683,130.404 326.809 C 132.645 326.306,133.799 323.515,132.670 321.330 C 131.656 319.370,128.588 318.860,126.936 320.378 M393.342 320.378 C 391.741 321.848,391.662 324.335,393.169 325.841 C 396.209 328.881,401.064 325.173,399.076 321.330 C 398.062 319.370,394.994 318.860,393.342 320.378 M4.212 320.548 C -0.617 322.216,-1.799 329.602,2.296 332.518 C 5.814 335.023,10.745 333.894,12.607 330.158 C 15.390 324.573,10.098 318.515,4.212 320.548 M270.618 320.548 C 263.429 323.031,265.298 333.854,272.917 333.854 C 279.204 333.854,282.133 326.198,277.486 321.914 C 275.582 320.159,273.147 319.675,270.618 320.548 M7.537 325.122 C 9.504 326.140,8.736 329.167,6.510 329.167 C 4.319 329.167,3.518 326.174,5.431 325.134 C 6.313 324.656,6.631 324.654,7.537 325.122 M273.943 325.122 C 275.910 326.140,275.142 329.167,272.917 329.167 C 270.725 329.167,269.924 326.174,271.838 325.134 C 272.719 324.656,273.037 324.654,273.943 325.122 M115.219 335.688 C 116.224 338.771,117.068 342.685,117.336 345.508 L 117.515 347.396 109.785 347.396 C 102.346 347.396,102.067 347.378,102.394 346.920 C 104.858 343.474,113.959 332.381,114.120 332.629 C 114.232 332.801,114.726 334.178,115.219 335.688 M37.283 339.764 C 40.195 343.441,42.731 346.663,42.918 346.923 C 43.245 347.377,42.957 347.396,35.786 347.396 L 28.314 347.396 28.496 345.388 C 28.867 341.284,31.157 332.564,31.765 332.939 C 31.887 333.015,34.371 336.086,37.283 339.764 M77.025 338.301 C 82.550 340.173,86.304 346.313,85.412 352.018 C 83.797 362.355,71.226 366.470,63.963 359.040 C 54.679 349.543,64.445 334.036,77.025 338.301 M343.338 338.274 C 352.174 341.315,354.789 352.544,348.198 359.135 C 341.077 366.256,329.269 362.675,326.928 352.686 C 324.780 343.520,334.297 335.162,343.338 338.274 M70.687 341.635 C 60.732 344.208,62.629 358.952,72.917 358.969 C 84.270 358.988,84.706 341.986,73.365 341.508 C 72.330 341.465,71.126 341.522,70.687 341.635 M337.093 341.635 C 327.138 344.208,329.035 358.952,339.323 358.969 C 350.682 358.988,351.118 341.986,339.771 341.508 C 338.737 341.465,337.532 341.522,337.093 341.635 M75.190 346.783 C 76.519 347.775,76.953 348.625,76.953 350.235 C 76.953 355.607,69.244 355.826,68.814 350.467 C 68.548 347.152,72.571 344.828,75.190 346.783 M341.596 346.783 C 342.925 347.775,343.359 348.625,343.359 350.235 C 343.359 355.607,335.651 355.826,335.220 350.467 C 334.954 347.152,338.977 344.828,341.596 346.783 M39.416 381.769 C 36.852 382.803,38.173 386.215,42.054 388.582 C 43.810 389.653,45.691 388.690,45.691 386.721 C 45.691 385.701,45.568 385.513,43.874 383.946 C 41.529 381.776,40.564 381.305,39.416 381.769 M305.822 381.769 C 303.258 382.803,304.579 386.215,308.461 388.582 C 310.216 389.653,312.098 388.690,312.098 386.721 C 312.098 385.701,311.975 385.513,310.281 383.946 C 307.935 381.776,306.970 381.305,305.822 381.769 ">
        </path>
    </g>
</svg>