<svg id="svg" xmlns="http://www.w3.org/2000/svg" xmlns:xlink="http://www.w3.org/1999/xlink" width="400" height="400" viewBox="0, 0, 400,400"><g id="svgg"><path id="path0" d="M106.641 1.091 C 95.328 4.695,86.898 13.447,84.017 24.578 C 82.186 31.657,82.186 368.343,84.017 375.422 C 86.505 385.036,92.946 392.682,102.344 397.179 L 107.422 399.609 203.125 399.609 L 298.828 399.609 304.081 397.121 C 311.380 393.663,316.577 388.562,320.136 381.361 L 323.047 375.472 323.047 200.000 L 323.047 24.528 320.136 18.639 C 316.577 11.438,311.380 6.337,304.081 2.879 L 298.828 0.391 204.297 0.243 C 129.531 0.126,109.112 0.303,106.641 1.091 M297.141 15.233 C 301.389 17.008,305.511 21.033,307.538 25.385 L 309.360 29.297 309.360 200.000 L 309.360 370.703 307.521 374.653 C 305.253 379.523,300.346 383.844,295.475 385.259 C 292.456 386.137,275.764 386.324,202.313 386.305 L 112.828 386.282 108.383 384.107 C 103.060 381.502,99.584 377.547,98.024 372.319 C 96.289 366.502,96.289 33.498,98.024 27.681 C 99.545 22.583,102.990 18.565,107.965 16.086 L 112.026 14.063 203.183 14.062 C 282.387 14.062,294.708 14.216,297.141 15.233 M116.509 38.767 C 111.986 41.021,108.325 45.314,106.988 49.931 C 106.443 51.813,106.253 79.082,106.408 132.874 L 106.641 213.014 109.005 216.838 C 110.470 219.208,112.824 221.561,115.194 223.026 L 119.018 225.391 202.734 225.391 L 286.451 225.391 290.275 223.026 C 292.645 221.561,294.998 219.208,296.464 216.837 L 298.828 213.013 298.828 131.250 L 298.828 49.487 296.464 45.663 C 294.998 43.292,292.645 40.939,290.275 39.474 L 286.451 37.109 203.556 36.904 L 120.661 36.698 116.509 38.767 M290.625 131.250 L 290.625 217.188 202.734 217.188 L 114.844 217.188 114.844 131.250 L 114.844 45.313 202.734 45.313 L 290.625 45.313 290.625 131.250 M199.528 82.367 C 196.097 83.860,193.750 87.480,193.750 91.279 C 193.750 96.114,191.620 96.304,186.606 91.918 C 176.545 83.117,160.720 79.052,155.773 83.999 C 150.704 89.068,148.173 107.642,151.368 116.329 C 152.239 118.699,152.141 119.419,150.462 122.970 C 149.427 125.161,148.341 128.226,148.050 129.781 L 147.520 132.609 142.670 132.999 C 136.952 133.458,132.813 135.337,132.813 137.474 C 132.813 139.834,134.071 140.079,140.676 139.006 C 147.861 137.840,147.356 137.586,147.814 142.590 L 148.173 146.508 141.466 147.823 C 131.570 149.763,128.749 151.109,129.053 153.742 C 129.347 156.290,131.385 156.437,138.601 154.430 C 147.835 151.861,150.173 151.936,151.969 154.856 C 155.783 161.055,159.026 156.886,155.838 149.883 C 147.108 130.704,160.528 109.319,185.884 102.005 C 193.558 99.792,193.750 99.900,193.753 106.445 C 193.758 116.959,200.675 122.250,209.154 118.227 C 213.344 116.238,214.837 113.141,214.841 106.430 L 214.844 100.751 216.992 101.243 C 244.481 107.528,259.793 130.380,249.934 150.406 C 238.506 173.619,200.315 182.385,173.681 167.909 C 167.602 164.605,165.625 164.594,165.625 167.864 C 165.625 170.163,166.346 170.732,174.145 174.587 C 201.079 187.902,242.391 178.047,253.854 155.572 L 255.595 152.159 259.314 152.653 C 261.360 152.924,265.111 153.724,267.649 154.430 C 274.865 156.437,276.903 156.290,277.197 153.742 C 277.502 151.103,274.677 149.762,264.712 147.811 L 257.933 146.484 258.373 142.578 C 258.936 137.580,258.406 137.842,265.574 139.006 C 272.179 140.079,273.438 139.834,273.438 137.474 C 273.438 135.348,269.307 133.459,263.669 133.006 L 258.908 132.624 257.199 127.357 C 255.536 122.234,255.526 121.973,256.823 117.881 C 260.306 106.887,258.243 89.422,252.820 83.999 C 247.889 79.068,232.049 83.116,222.050 91.863 C 216.714 96.531,214.844 96.494,214.844 91.722 C 214.844 83.849,207.054 79.091,199.528 82.367 M208.008 88.912 C 211.078 91.548,209.779 92.969,204.297 92.969 C 198.810 92.969,197.527 91.560,200.586 88.895 C 203.218 86.602,205.324 86.607,208.008 88.912 M173.397 90.373 C 178.477 92.600,183.019 95.909,182.390 96.926 C 181.636 98.146,179.228 97.753,175.260 95.762 C 163.280 89.751,159.375 92.410,159.375 106.579 C 159.375 113.265,156.592 115.115,155.820 108.942 C 154.728 100.203,157.072 89.334,160.331 88.024 C 162.220 87.265,169.150 88.510,173.397 90.373 M248.016 87.987 C 251.926 89.487,254.437 105.208,252.105 113.589 L 251.476 115.850 250.168 113.981 C 249.201 112.602,248.924 110.846,249.107 107.274 C 249.855 92.740,245.317 89.701,232.539 96.177 C 226.880 99.045,223.717 98.732,226.663 95.596 C 229.000 93.108,237.591 88.896,241.700 88.223 C 246.358 87.460,246.619 87.451,248.016 87.987 M169.450 99.308 C 172.560 100.392,172.343 101.085,168.108 103.611 L 164.745 105.616 165.288 102.613 C 166.126 97.972,165.971 98.095,169.450 99.308 M209.375 100.391 C 209.375 102.274,209.193 102.344,204.297 102.344 C 199.401 102.344,199.219 102.274,199.219 100.391 C 199.219 98.508,199.401 98.438,204.297 98.438 C 209.193 98.438,209.375 98.508,209.375 100.391 M243.256 102.642 C 244.137 107.436,243.925 107.534,239.221 104.509 C 234.421 101.422,234.385 101.268,238.086 99.735 C 242.022 98.106,242.468 98.357,243.256 102.642 M209.375 109.118 C 209.375 112.757,203.597 114.657,200.647 111.988 C 197.556 109.191,198.761 107.813,204.297 107.813 C 208.521 107.813,209.375 108.032,209.375 109.118 M170.235 117.962 C 161.938 122.347,156.164 135.992,159.771 142.690 C 164.405 151.293,186.458 151.836,192.532 143.495 C 200.825 132.109,182.712 111.367,170.235 117.962 M222.863 118.555 C 213.844 124.700,209.218 137.317,213.718 143.495 C 219.792 151.836,241.845 151.293,246.479 142.690 C 253.363 129.907,234.498 110.627,222.863 118.555 M181.490 124.298 C 188.875 130.386,190.609 139.753,184.855 142.483 C 174.110 147.582,161.964 141.761,165.214 133.069 C 168.649 123.879,176.106 119.860,181.490 124.298 M235.930 125.586 C 246.013 135.766,243.323 143.746,229.806 143.749 C 218.208 143.751,215.208 139.772,219.870 130.570 C 224.464 121.506,230.143 119.743,235.930 125.586 M177.698 126.767 C 176.185 130.708,177.752 141.799,179.856 142.041 C 182.540 142.351,182.967 140.883,182.654 132.419 C 182.425 126.247,182.396 126.169,180.269 125.924 C 178.960 125.774,177.952 126.104,177.698 126.767 M223.994 126.266 C 223.210 127.051,223.322 140.014,224.124 141.279 C 226.574 145.145,228.516 141.921,228.516 133.984 C 228.516 126.159,226.885 123.375,223.994 126.266 M189.928 155.109 C 185.418 155.813,182.022 155.912,179.048 155.428 C 172.635 154.384,169.526 158.726,175.437 160.471 C 177.255 161.008,178.283 162.130,179.734 165.159 C 182.612 171.169,186.965 171.131,189.783 165.071 C 192.073 160.147,192.273 160.061,201.311 160.086 C 211.393 160.113,212.053 160.364,213.930 164.880 C 216.569 171.229,221.205 171.355,224.173 165.159 C 225.623 162.130,226.651 161.008,228.469 160.471 C 234.698 158.633,231.200 154.362,224.441 155.552 C 220.708 156.210,218.059 156.124,211.909 155.146 C 202.860 153.707,198.948 153.701,189.928 155.109 M157.552 159.115 C 155.414 161.253,160.600 167.060,163.338 165.595 C 165.360 164.512,165.238 162.361,163.036 160.292 C 161.275 158.638,158.602 158.064,157.552 159.115 M109.375 254.688 L 109.375 259.375 191.797 259.375 L 274.219 259.375 274.219 254.688 L 274.219 250.000 191.797 250.000 L 109.375 250.000 109.375 254.688 M109.375 270.703 L 109.375 275.781 164.844 275.781 L 220.313 275.781 220.313 270.703 L 220.313 265.625 164.844 265.625 L 109.375 265.625 109.375 270.703 M109.375 286.719 L 109.375 291.406 169.531 291.406 L 229.688 291.406 229.688 286.719 L 229.688 282.031 169.531 282.031 L 109.375 282.031 109.375 286.719 M109.375 313.281 L 109.375 317.969 173.047 317.969 L 236.719 317.969 236.719 313.281 L 236.719 308.594 173.047 308.594 L 109.375 308.594 109.375 313.281 M109.375 329.297 L 109.375 334.375 164.844 334.375 L 220.313 334.375 220.313 329.297 L 220.313 324.219 164.844 324.219 L 109.375 324.219 109.375 329.297 " stroke="none" fill="#000000" fill-rule="evenodd"></path></g></svg>