<svg id="svg" version="1.1" xmlns="http://www.w3.org/2000/svg" xmlns:xlink="http://www.w3.org/1999/xlink" width="400" height="400" viewBox="0, 0, 400,400"><g id="svgg"><path id="path0" d="M84.348 0.373 C 83.231 1.277,83.616 2.261,86.034 4.686 C 88.341 7.001,88.550 7.134,89.569 6.943 C 91.680 6.547,91.368 4.950,88.646 2.220 C 86.205 -0.228,85.477 -0.541,84.348 0.373 M94.394 2.207 C 91.963 4.638,91.604 5.472,92.573 6.440 C 93.690 7.557,94.434 7.254,97.025 4.628 C 99.494 2.125,99.755 1.495,98.739 0.479 C 97.661 -0.598,96.894 -0.293,94.394 2.207 M27.413 0.577 C 26.135 1.116,26.027 2.569,27.173 3.813 L 27.979 4.687 27.173 5.562 C 25.085 7.828,27.541 10.210,29.741 8.051 L 30.583 7.225 31.345 8.005 C 32.243 8.925,33.086 9.156,33.937 8.716 C 35.114 8.107,35.117 6.720,33.944 5.525 L 33.122 4.688 33.944 3.850 C 34.911 2.864,35.075 1.773,34.370 1.016 C 33.525 0.110,32.402 0.276,31.236 1.479 L 30.584 2.152 29.791 1.373 C 28.961 0.558,28.124 0.278,27.413 0.577 M268.253 1.456 C 267.261 2.448,267.519 3.142,269.688 5.312 C 271.858 7.481,272.552 7.739,273.544 6.747 C 274.536 5.755,274.278 5.061,272.108 2.892 C 269.939 0.722,269.245 0.464,268.253 1.456 M276.524 2.892 C 274.355 5.061,274.096 5.755,275.089 6.747 C 276.081 7.739,276.775 7.481,278.944 5.312 C 281.114 3.142,281.372 2.448,280.380 1.456 C 279.388 0.464,278.694 0.722,276.524 2.892 M3.125 6.478 C -1.488 8.872,-0.192 15.816,4.968 16.349 C 8.109 16.673,10.742 14.292,10.736 11.133 C 10.728 7.100,6.689 4.629,3.125 6.478 M202.991 7.064 C 201.044 7.586,201.072 10.488,203.030 11.134 C 204.415 11.591,205.858 10.544,205.858 9.082 C 205.858 8.249,205.199 7.261,204.547 7.118 C 204.248 7.052,203.916 6.976,203.809 6.948 C 203.701 6.920,203.333 6.973,202.991 7.064 M269.688 9.728 C 267.519 11.897,267.261 12.591,268.253 13.583 C 269.245 14.575,269.939 14.317,272.108 12.147 C 274.278 9.978,274.536 9.284,273.544 8.292 C 272.552 7.300,271.858 7.558,269.688 9.728 M275.089 8.292 C 274.096 9.284,274.355 9.978,276.524 12.147 C 278.694 14.317,279.388 14.575,280.380 13.583 C 281.372 12.591,281.114 11.897,278.944 9.728 C 276.775 7.558,276.081 7.300,275.089 8.292 M86.066 10.534 L 83.734 12.866 83.847 13.706 C 84.170 16.112,85.790 15.878,88.646 13.014 C 91.259 10.394,91.631 9.041,89.917 8.389 C 88.766 7.952,88.500 8.099,86.066 10.534 M93.066 8.429 C 91.443 9.317,91.751 10.385,94.394 13.028 C 96.894 15.528,97.661 15.833,98.739 14.755 C 99.773 13.721,99.506 13.098,96.915 10.507 C 94.498 8.091,94.089 7.869,93.066 8.429 M6.656 9.946 C 8.227 11.518,6.019 13.831,4.400 12.310 C 3.666 11.620,3.713 10.548,4.507 9.881 C 5.295 9.218,5.948 9.238,6.656 9.946 M226.987 10.804 C 226.285 11.551,226.411 12.540,227.338 13.545 L 228.113 14.386 227.338 15.143 C 225.237 17.194,227.593 19.598,229.741 17.595 L 230.560 16.831 231.389 17.595 C 233.529 19.568,235.791 17.309,233.806 15.181 L 233.042 14.362 233.806 13.533 C 235.811 11.359,233.419 9.012,231.354 11.127 L 230.597 11.902 229.756 11.127 C 228.729 10.180,227.687 10.058,226.987 10.804 M55.101 17.801 C 48.607 18.480,43.889 21.446,41.402 26.413 C 40.867 27.481,40.426 28.458,40.421 28.582 C 40.416 28.707,39.603 29.186,38.614 29.647 L 36.816 30.486 34.992 29.693 C 28.038 26.669,20.241 26.307,13.648 28.704 C 11.677 29.420,11.364 29.716,10.644 31.542 C 7.712 38.981,9.989 49.886,16.639 60.259 L 17.519 61.631 17.634 64.653 C 18.720 93.343,51.203 109.811,75.198 93.836 C 77.862 92.063,78.338 91.366,77.702 90.173 C 76.970 88.798,76.040 88.913,73.359 90.713 C 51.496 105.393,22.127 90.452,21.163 64.160 C 20.698 51.463,27.723 39.259,38.793 33.535 L 39.365 33.239 39.211 35.027 C 38.444 43.900,44.206 51.768,51.461 51.755 C 57.130 51.744,60.928 48.488,61.691 42.981 C 61.799 42.201,61.915 41.544,61.950 41.520 C 61.984 41.496,62.705 41.330,63.553 41.152 C 66.758 40.477,70.049 38.284,71.687 35.731 C 72.454 34.535,72.190 34.483,74.613 36.303 C 87.453 45.945,91.626 63.098,84.671 77.637 C 83.332 80.436,83.574 81.836,85.397 81.836 C 88.014 81.836,91.593 71.261,91.600 63.508 L 91.602 61.685 92.779 59.807 C 99.445 49.175,101.536 38.189,98.264 30.974 C 96.339 26.728,83.822 25.831,75.060 29.312 C 73.335 29.997,73.482 30.062,73.147 28.462 C 72.178 23.833,66.940 18.961,61.751 17.861 C 60.325 17.559,57.651 17.535,55.101 17.801 M212.658 20.710 C 197.201 24.511,196.230 46.740,211.305 51.671 C 212.190 51.961,212.325 52.069,212.240 52.421 C 206.519 76.050,222.506 97.153,247.544 99.022 C 274.216 101.014,295.303 76.776,288.170 52.327 C 288.104 52.101,288.305 51.949,288.913 51.767 C 297.929 49.068,302.640 38.193,298.542 29.542 C 292.791 17.402,275.734 17.106,269.594 29.040 C 268.541 31.087,268.530 31.847,269.547 32.569 C 269.736 32.703,269.949 33.078,270.020 33.401 C 270.099 33.761,270.427 34.192,270.866 34.512 C 271.260 34.800,272.143 35.458,272.828 35.975 C 274.833 37.485,276.367 37.092,276.367 35.069 C 276.367 32.989,280.294 31.618,282.910 32.786 C 286.638 34.450,287.554 39.160,284.695 41.966 L 283.865 42.780 282.871 41.361 C 280.062 37.352,278.656 36.444,277.393 37.823 C 276.791 38.481,276.839 39.247,277.540 40.156 C 277.863 40.575,278.723 41.681,279.451 42.613 C 289.249 55.163,288.093 72.951,276.717 84.663 L 274.625 86.816 275.457 85.145 C 279.405 77.214,277.602 67.482,271.558 64.100 C 271.321 63.967,271.345 63.792,271.712 62.977 C 272.400 61.445,272.330 59.599,271.521 57.956 C 268.648 52.120,259.880 54.428,260.189 60.939 C 260.249 62.194,260.222 62.306,259.863 62.316 C 259.648 62.322,258.857 62.488,258.105 62.684 L 256.738 63.040 256.098 62.478 C 253.278 60.003,246.919 59.699,243.552 61.878 C 242.697 62.432,242.644 62.440,241.357 62.237 L 240.039 62.029 240.039 60.737 C 240.039 53.686,230.121 52.275,228.218 59.055 C 227.730 60.795,227.983 62.477,228.947 63.899 L 229.299 64.418 228.325 65.133 C 222.587 69.345,221.197 77.975,225.079 85.285 C 226.530 88.018,222.214 83.508,219.647 79.610 C 208.827 63.174,215.341 41.151,233.654 32.257 C 235.264 31.475,238.806 30.078,239.179 30.078 C 239.226 30.078,238.775 30.715,238.177 31.494 C 231.598 40.052,234.490 52.344,244.158 56.925 C 254.626 61.885,267.041 54.738,267.893 43.262 C 268.115 40.278,265.965 39.544,264.465 42.092 C 260.754 48.396,251.879 48.159,248.796 41.674 C 246.273 36.364,249.326 30.536,255.330 29.202 L 256.738 28.890 259.395 29.559 C 260.856 29.928,262.952 30.590,264.054 31.032 C 266.387 31.968,267.017 32.025,267.685 31.357 C 268.934 30.107,268.165 28.925,265.407 27.856 C 254.945 23.802,242.955 24.136,232.956 28.760 C 232.015 29.195,231.218 29.516,231.187 29.473 C 231.155 29.430,230.768 28.779,230.326 28.027 C 226.849 22.108,219.445 19.041,212.658 20.710 M60.764 21.288 C 65.026 22.074,69.727 26.746,69.727 30.195 C 69.727 34.155,64.710 38.551,61.199 37.667 C 56.658 36.524,48.972 41.668,51.611 44.084 C 52.622 45.009,53.484 44.818,54.933 43.346 C 55.832 42.433,57.649 41.217,58.122 41.213 C 58.501 41.209,58.042 43.579,57.415 44.861 C 56.314 47.111,54.486 48.135,51.563 48.141 C 41.922 48.159,39.380 30.173,48.140 23.922 C 51.110 21.803,56.950 20.584,60.764 21.288 M220.479 24.329 C 223.235 25.242,225.495 26.949,227.031 29.277 C 228.231 31.095,228.272 31.314,227.507 31.798 L 226.878 32.197 225.848 31.256 C 217.136 23.294,205.090 36.277,213.495 44.570 L 214.821 45.878 214.209 47.255 C 213.458 48.945,213.381 48.956,210.912 47.720 C 206.579 45.551,203.873 41.221,203.854 36.426 C 203.819 27.803,212.312 21.623,220.479 24.329 M287.808 24.299 C 299.291 27.950,299.552 44.234,288.193 48.357 L 286.985 48.796 286.291 47.268 L 285.597 45.740 286.360 45.185 C 289.037 43.234,290.358 39.424,289.572 35.917 C 288.052 29.135,279.497 26.572,274.444 31.387 L 273.583 32.207 272.928 31.762 L 272.272 31.316 272.806 30.274 C 275.439 25.132,282.094 22.481,287.808 24.299 M247.295 30.079 C 241.708 37.013,244.874 47.175,253.418 49.729 C 255.788 50.438,259.820 50.092,261.970 48.995 L 262.733 48.606 262.137 49.472 C 258.192 55.205,249.857 56.793,244.059 52.915 C 234.899 46.788,236.600 32.977,246.970 29.283 C 247.509 29.092,248.015 28.928,248.095 28.921 C 248.175 28.913,247.815 29.434,247.295 30.079 M27.734 31.133 C 29.433 31.497,33.012 32.627,33.000 32.795 C 32.995 32.858,32.415 33.350,31.711 33.887 C 31.007 34.424,30.238 35.020,30.003 35.212 C 29.590 35.549,29.511 35.544,27.727 35.066 C 23.873 34.033,17.553 33.911,16.462 34.850 C 14.523 36.518,15.758 46.304,18.475 50.805 L 19.138 51.903 18.700 53.783 C 18.459 54.816,18.211 55.663,18.149 55.663 C 17.550 55.668,14.037 46.839,13.371 43.652 C 12.382 38.923,13.116 32.797,14.754 32.113 C 18.035 30.742,23.857 30.303,27.734 31.133 M91.797 31.308 C 94.902 32.113,94.952 32.146,95.469 33.754 C 97.146 38.959,96.071 45.474,92.245 53.302 L 90.965 55.920 90.480 53.989 L 89.995 52.059 90.903 50.359 C 93.615 45.283,94.528 35.992,92.449 34.629 C 91.282 33.865,84.334 34.200,80.938 35.184 L 79.551 35.586 77.910 34.267 C 77.008 33.541,76.244 32.885,76.213 32.809 C 76.083 32.489,80.756 31.189,83.496 30.783 C 85.181 30.533,89.980 30.837,91.797 31.308 M221.973 32.794 C 222.402 32.985,223.047 33.389,223.404 33.691 L 224.054 34.240 221.826 36.505 C 219.458 38.911,218.455 40.087,217.338 41.761 L 216.646 42.800 215.978 42.214 C 211.250 38.063,216.226 30.243,221.973 32.794 M24.902 38.102 C 26.919 38.445,26.872 38.378,25.901 39.516 C 24.707 40.916,22.703 43.954,21.693 45.895 C 21.107 47.021,20.802 47.435,20.696 47.246 C 19.532 45.159,18.620 38.074,19.482 37.818 C 19.957 37.676,23.485 37.862,24.902 38.102 M89.648 37.887 C 90.303 38.301,89.875 43.058,88.923 45.947 C 88.327 47.758,88.314 47.762,87.619 46.338 C 86.712 44.480,85.222 42.115,83.790 40.262 C 82.906 39.118,82.524 38.479,82.686 38.417 C 82.963 38.311,85.459 37.924,86.523 37.823 C 88.001 37.682,89.369 37.710,89.648 37.887 M33.984 48.550 C 23.980 51.178,20.804 64.911,28.428 72.578 C 36.590 80.785,49.684 74.323,49.641 62.109 C 49.610 53.128,41.918 46.467,33.984 48.550 M69.043 48.608 C 59.765 51.283,56.363 63.463,62.645 71.517 C 68.130 78.549,79.003 77.408,83.174 69.363 C 88.807 58.499,79.935 45.468,69.043 48.608 M39.294 52.144 C 46.132 54.256,48.407 64.069,43.343 69.610 C 38.946 74.421,31.880 73.296,28.936 67.316 C 24.989 59.299,31.515 49.741,39.294 52.144 M74.001 51.965 C 76.495 52.540,78.920 54.545,80.154 57.052 C 85.240 67.387,73.716 77.828,66.042 69.836 C 59.261 62.775,65.000 49.890,74.001 51.965 M35.059 54.375 C 28.302 56.518,27.524 66.413,33.866 69.536 C 39.804 72.459,46.049 66.282,43.956 59.556 C 42.736 55.636,38.628 53.244,35.059 54.375 M70.583 54.274 C 63.017 56.235,62.881 67.867,70.399 70.028 C 76.499 71.782,81.681 64.716,78.843 58.516 C 77.429 55.428,73.640 53.482,70.583 54.274 M38.194 57.986 C 38.630 58.183,39.297 58.708,39.677 59.152 C 42.962 62.989,38.373 69.047,34.654 65.782 C 31.153 62.708,34.135 56.142,38.194 57.986 M73.922 58.174 C 75.464 59.074,76.390 61.340,75.974 63.196 C 75.070 67.230,70.648 67.992,68.868 64.420 C 66.977 60.625,70.553 56.206,73.922 58.174 M235.149 58.297 C 236.726 59.113,237.289 62.083,235.874 62.121 C 235.640 62.127,234.834 62.293,234.082 62.490 C 232.547 62.892,232.200 62.807,231.740 61.918 C 230.592 59.698,232.971 57.171,235.149 58.297 M267.371 58.365 C 269.093 59.288,269.202 62.762,267.498 62.413 C 267.166 62.344,266.235 62.204,265.430 62.101 C 263.722 61.883,263.399 61.607,263.542 60.491 C 263.793 58.529,265.702 57.470,267.371 58.365 M252.832 64.470 C 254.574 65.311,253.823 66.122,250.830 66.634 C 247.778 67.156,243.703 65.684,245.544 64.725 C 247.500 63.706,250.995 63.584,252.832 64.470 M240.656 65.552 C 241.279 65.655,241.412 65.778,241.693 66.514 C 243.481 71.196,255.597 71.302,257.248 66.650 C 257.551 65.795,264.093 65.118,266.406 65.702 C 276.997 68.375,276.765 83.273,266.016 90.807 C 250.611 101.603,226.485 92.939,226.330 76.556 C 226.262 69.353,232.884 64.267,240.656 65.552 M247.699 75.393 C 246.329 76.484,245.565 76.758,243.888 76.758 C 241.321 76.758,241.086 77.467,242.172 81.931 C 243.583 87.732,245.141 90.490,247.473 91.313 C 251.576 92.760,254.934 89.215,256.147 82.152 C 256.873 77.928,256.431 76.758,254.108 76.758 C 252.850 76.758,252.091 76.440,250.912 75.419 C 249.665 74.340,249.028 74.335,247.699 75.393 M48.276 75.257 C 47.719 75.850,47.636 81.132,48.159 82.669 C 49.820 87.544,57.069 87.737,59.196 82.963 C 59.907 81.368,59.905 76.068,59.194 75.310 L 58.721 74.805 53.711 74.805 C 48.727 74.805,48.699 74.807,48.276 75.257 M56.055 79.868 C 56.055 81.673,55.603 82.444,54.322 82.828 C 52.591 83.347,51.369 82.068,51.368 79.736 L 51.367 78.320 53.711 78.320 L 56.055 78.320 56.055 79.868 M249.970 79.069 C 250.630 79.525,252.040 80.078,252.543 80.078 C 253.848 80.078,251.427 87.251,249.874 87.989 C 248.359 88.708,247.280 87.251,245.913 82.641 C 245.164 80.112,245.162 80.153,246.045 80.008 C 246.448 79.942,247.305 79.630,247.949 79.314 C 249.368 78.620,249.327 78.625,249.970 79.069 M207.715 79.337 C 206.922 79.792,206.849 80.090,206.842 82.874 C 206.835 85.821,206.923 86.155,207.801 86.519 C 209.566 87.250,210.156 86.373,210.156 83.024 C 210.156 79.411,209.449 78.343,207.715 79.337 M6.729 83.292 C 5.947 84.074,6.064 85.050,7.064 86.068 L 7.878 86.897 7.064 87.780 C 4.913 90.114,7.350 92.594,9.571 90.331 L 10.434 89.452 11.327 90.331 C 13.589 92.559,15.989 90.118,13.835 87.780 L 13.021 86.897 13.835 86.068 C 15.964 83.899,13.510 81.514,11.272 83.577 L 10.443 84.341 9.623 83.577 C 8.599 82.622,7.507 82.514,6.729 83.292 M81.290 83.350 C 77.952 86.245,77.353 89.256,80.114 89.258 C 80.845 89.259,83.270 86.917,83.888 85.614 C 84.697 83.908,82.676 82.147,81.290 83.350 M92.669 84.295 C 90.744 84.978,89.357 87.018,89.358 89.160 C 89.362 94.756,96.811 96.556,99.299 91.563 C 101.410 87.326,97.183 82.692,92.669 84.295 M200.425 86.585 C 199.791 87.260,199.837 88.515,200.515 89.048 C 201.363 89.716,206.257 89.659,206.942 88.974 C 207.547 88.369,207.579 87.362,207.017 86.647 C 206.421 85.889,201.125 85.839,200.425 86.585 M210.050 86.612 C 209.244 87.418,209.453 88.676,210.485 89.226 C 211.179 89.595,215.822 89.528,216.375 89.140 C 217.293 88.498,217.310 86.812,216.403 86.327 C 215.546 85.867,210.571 86.091,210.050 86.612 M286.217 86.598 C 283.165 88.019,282.454 92.230,284.859 94.635 C 288.054 97.830,293.423 95.625,293.438 91.113 C 293.450 87.332,289.689 84.981,286.217 86.598 M95.718 88.071 C 96.653 89.006,96.420 90.232,95.210 90.737 C 93.266 91.550,92.013 88.788,93.848 87.736 C 94.502 87.361,95.119 87.471,95.718 88.071 M207.315 89.347 C 206.852 89.810,206.836 89.917,206.836 92.578 C 206.836 95.240,206.852 95.346,207.315 95.810 C 208.003 96.497,209.197 96.480,209.751 95.774 C 210.419 94.926,210.362 90.032,209.677 89.347 C 209.025 88.694,207.968 88.694,207.315 89.347 M289.124 89.680 C 290.225 90.267,290.372 91.482,289.438 92.268 C 287.838 93.615,285.911 91.415,287.393 89.933 C 287.917 89.409,288.464 89.329,289.124 89.680 M101.237 100.503 C 99.869 101.871,103.772 106.715,105.913 106.306 C 107.910 105.925,107.686 104.289,105.312 101.915 C 103.113 99.717,102.304 99.436,101.237 100.503 M109.728 101.915 C 107.286 104.356,107.096 105.809,109.152 106.308 C 110.629 106.667,114.461 102.805,114.170 101.251 C 113.794 99.249,112.147 99.496,109.728 101.915 M313.082 100.492 L 312.620 100.984 313.452 114.701 C 314.851 137.759,315.680 141.222,321.906 150.036 C 323.459 152.235,323.399 151.957,322.668 153.587 C 317.781 164.479,319.702 178.569,327.332 187.803 C 329.791 190.779,332.387 188.657,330.008 185.616 C 315.104 166.562,326.746 139.331,350.757 137.082 C 364.972 135.751,378.573 145.480,382.112 159.512 C 388.086 183.201,364.569 203.606,341.877 194.422 C 339.477 193.451,338.996 193.419,338.287 194.180 C 335.283 197.404,348.937 201.189,358.203 199.700 C 379.788 196.234,392.314 173.773,383.797 153.809 L 383.047 152.051 383.635 151.270 C 387.891 145.620,390.727 138.869,391.689 132.094 C 392.406 127.045,393.816 101.159,393.405 100.605 C 393.010 100.074,391.705 99.803,391.147 100.135 C 390.690 100.408,371.981 121.389,370.824 122.927 C 368.475 126.047,366.075 130.499,364.943 133.831 L 364.382 135.483 363.002 135.045 C 356.938 133.119,349.499 133.122,343.424 135.051 L 342.023 135.496 341.405 133.715 C 340.041 129.786,337.082 124.598,334.431 121.489 C 333.833 120.788,329.267 115.667,324.284 110.107 L 315.224 100.000 314.384 100.000 C 313.739 100.000,313.437 100.114,313.082 100.492 M389.362 117.599 C 388.538 130.825,388.562 130.553,387.975 133.525 C 387.042 138.245,385.259 142.615,382.604 146.687 L 381.206 148.831 380.481 147.804 L 379.757 146.777 380.625 144.922 C 386.456 132.461,386.564 132.145,387.008 126.227 C 387.560 118.880,387.217 117.820,384.231 117.629 C 382.634 117.527,382.198 117.864,378.624 121.973 C 374.706 126.477,374.176 127.431,371.197 135.352 C 370.065 138.360,370.243 138.205,368.801 137.448 C 367.396 136.712,367.407 136.912,368.596 133.887 C 370.132 129.977,372.313 126.401,375.250 122.979 C 377.616 120.222,389.932 106.493,389.995 106.543 C 390.025 106.566,389.740 111.542,389.362 117.599 M323.072 113.910 C 333.492 125.531,334.218 126.452,336.415 130.843 C 337.377 132.764,338.966 136.694,338.830 136.815 C 338.718 136.913,336.340 138.086,336.251 138.086 C 336.203 138.086,336.057 137.756,335.928 137.354 C 333.694 130.385,331.480 126.212,327.776 121.990 C 323.679 117.320,322.980 116.914,320.830 117.955 C 318.983 118.849,318.876 119.410,319.352 125.709 C 319.835 132.100,320.192 133.194,325.220 143.731 C 326.790 147.019,326.721 146.638,325.939 147.748 C 325.136 148.887,325.231 148.929,323.878 146.826 C 320.717 141.914,318.833 136.998,318.069 131.671 C 317.699 129.089,316.274 106.641,316.480 106.641 C 316.521 106.641,319.487 109.912,323.072 113.910 M104.785 107.023 C 103.539 107.542,100.728 110.922,100.841 111.766 C 100.980 112.806,101.529 113.281,102.589 113.281 C 103.749 113.281,107.227 109.850,107.227 108.705 C 107.227 107.402,105.964 106.532,104.785 107.023 M108.691 107.062 C 107.149 107.985,107.404 109.043,109.728 111.366 C 112.077 113.716,113.180 113.963,114.048 112.333 C 114.932 110.675,110.289 106.106,108.691 107.062 M149.707 108.442 C 145.508 109.930,145.100 115.879,149.061 117.853 C 152.581 119.608,156.583 117.103,156.523 113.184 C 156.469 109.723,152.966 107.286,149.707 108.442 M336.508 108.969 C 335.691 109.786,335.798 110.676,336.842 111.745 L 337.564 112.484 336.728 113.391 C 334.663 115.632,337.199 117.702,339.404 115.575 L 340.039 114.962 340.674 115.575 C 342.980 117.799,345.338 115.441,343.114 113.135 L 342.501 112.500 343.114 111.865 C 345.273 109.627,343.046 107.104,340.825 109.273 L 340.039 110.040 339.291 109.310 C 338.215 108.259,337.328 108.150,336.508 108.969 M152.500 112.115 C 153.373 112.928,153.208 114.198,152.159 114.741 C 150.552 115.572,149.007 113.475,150.284 112.198 C 150.887 111.595,151.901 111.557,152.500 112.115 M194.132 116.553 C 192.994 117.569,193.205 119.529,194.525 120.212 C 196.386 121.174,198.391 119.523,197.829 117.489 C 197.413 115.984,195.353 115.462,194.132 116.553 M325.588 124.707 C 328.702 128.257,329.925 130.629,332.729 138.555 L 333.275 140.098 332.311 140.898 C 331.781 141.338,330.842 142.173,330.223 142.755 C 329.605 143.336,329.067 143.776,329.028 143.732 C 328.865 143.549,326.036 137.388,324.909 134.766 C 323.164 130.702,323.086 130.392,322.860 126.660 C 322.749 124.834,322.611 122.856,322.552 122.266 C 322.427 120.992,322.100 120.729,325.588 124.707 M383.652 125.685 C 383.369 129.724,383.310 130.091,382.670 131.836 C 382.009 133.638,379.043 140.349,377.897 142.635 L 377.330 143.767 375.725 142.342 C 374.843 141.559,373.879 140.742,373.582 140.527 L 373.044 140.137 374.384 136.614 C 375.861 132.734,377.574 128.715,378.030 128.059 C 378.402 127.525,383.864 121.299,383.916 121.351 C 383.937 121.372,383.818 123.322,383.652 125.685 M112.891 126.483 C 109.233 127.454,107.007 129.822,105.010 134.869 C 101.990 142.499,102.543 150.926,106.565 158.574 L 107.839 160.996 107.602 163.143 C 105.067 186.104,131.959 204.305,160.919 199.228 C 182.237 195.491,197.023 179.619,194.741 162.922 C 194.506 161.199,194.510 161.159,194.986 160.405 C 202.757 148.094,199.716 129.079,189.559 126.471 C 185.383 125.398,176.184 129.086,170.868 133.964 C 169.351 135.357,169.612 135.313,167.218 134.574 C 157.349 131.527,145.656 131.502,135.408 134.506 L 133.023 135.205 131.697 133.988 C 126.315 129.050,117.090 125.368,112.891 126.483 M303.891 128.110 C 302.833 129.168,303.207 130.978,304.603 131.561 C 306.738 132.453,308.581 129.628,306.865 128.094 C 305.976 127.300,304.695 127.307,303.891 128.110 M118.194 130.381 C 121.853 131.636,126.440 134.106,128.600 135.983 L 129.367 136.651 126.919 137.928 C 119.224 141.945,113.358 147.692,110.150 154.357 L 109.228 156.273 108.505 154.552 C 105.638 147.729,105.851 140.863,109.135 134.277 C 111.309 129.918,113.765 128.861,118.194 130.381 M189.941 130.321 C 194.698 132.753,197.344 143.200,195.206 151.109 C 194.437 153.955,192.969 157.195,192.969 156.046 C 192.969 155.674,190.926 151.723,190.488 151.248 C 189.529 150.208,187.500 150.938,187.500 152.324 C 187.500 152.655,187.962 153.782,188.563 154.921 C 191.665 160.792,192.258 167.157,190.281 173.361 L 189.742 175.052 189.736 172.243 C 189.710 160.751,181.131 151.147,166.713 146.468 C 161.800 144.874,160.471 145.361,155.036 150.751 C 153.026 152.745,151.350 154.336,151.311 154.288 C 151.273 154.239,150.129 152.736,148.771 150.947 C 144.079 144.768,142.454 144.266,135.059 146.708 C 120.831 151.405,111.582 162.730,112.831 173.926 C 112.939 174.893,113.008 175.709,112.984 175.740 C 112.961 175.770,112.704 175.155,112.413 174.372 C 106.569 158.616,118.452 142.060,139.160 137.109 C 152.050 134.027,166.991 136.280,176.972 142.811 C 178.543 143.839,179.488 143.924,180.197 143.100 C 181.495 141.590,180.480 140.486,175.440 137.930 C 172.869 136.626,172.888 136.783,175.091 135.118 C 180.450 131.069,187.163 128.900,189.941 130.321 M182.486 144.413 C 181.390 145.355,181.655 146.196,183.692 148.243 C 185.685 150.245,186.431 150.501,187.411 149.521 C 188.267 148.664,188.087 147.878,186.657 146.239 C 184.634 143.920,183.590 143.463,182.486 144.413 M142.145 149.131 C 143.216 149.579,143.694 150.101,147.004 154.441 C 151.392 160.197,150.649 160.202,156.445 154.366 C 162.539 148.230,162.530 148.232,169.706 151.336 C 198.653 163.851,187.323 194.772,153.125 196.589 C 125.553 198.053,106.586 175.607,121.550 159.223 C 126.867 153.402,138.602 147.652,142.145 149.131 M394.712 150.376 C 393.410 151.678,394.322 154.004,396.135 154.004 C 397.260 154.004,397.972 153.517,398.262 152.550 C 398.899 150.423,396.273 148.814,394.712 150.376 M333.931 152.231 C 327.268 154.971,323.735 169.283,328.488 174.284 C 332.508 178.515,341.136 174.138,342.868 166.989 C 345.086 157.836,340.145 149.676,333.931 152.231 M366.647 152.084 C 359.706 154.540,359.807 169.279,366.797 173.926 C 374.414 178.990,379.889 174.201,378.224 163.931 C 376.875 155.619,371.680 150.302,366.647 152.084 M337.084 155.358 C 338.102 155.884,338.141 156.150,337.205 156.176 C 332.180 156.315,330.076 165.619,334.096 169.917 C 334.594 170.449,335.168 170.938,335.372 171.003 C 335.983 171.197,335.803 171.404,334.525 171.977 C 331.559 173.308,330.110 172.176,329.771 168.262 C 329.213 161.831,333.835 153.678,337.084 155.358 M369.856 155.484 C 375.127 158.036,377.302 172.647,372.395 172.541 C 370.907 172.509,368.623 171.284,369.521 170.999 C 372.505 170.052,373.855 163.204,371.849 159.189 C 370.913 157.316,368.541 155.757,367.171 156.116 C 366.655 156.251,366.901 155.910,367.648 155.454 C 368.430 154.977,368.819 154.982,369.856 155.484 M338.457 160.355 C 340.525 163.210,338.800 169.926,336.612 167.538 C 335.075 165.861,334.941 162.297,336.343 160.361 C 337.113 159.299,337.691 159.298,338.457 160.355 M368.539 160.361 C 369.941 162.297,369.808 165.861,368.271 167.538 C 367.417 168.470,366.869 168.261,366.112 166.714 C 364.385 163.184,366.526 157.582,368.539 160.361 M128.232 163.786 C 124.710 164.333,123.828 164.803,123.828 166.130 C 123.828 167.796,124.718 168.025,128.418 167.308 C 130.411 166.922,133.639 166.921,135.645 167.305 C 138.597 167.870,139.024 167.878,139.560 167.374 C 140.211 166.763,140.232 165.479,139.600 164.900 C 138.336 163.744,132.305 163.153,128.232 163.786 M165.661 163.686 C 161.249 164.259,159.954 165.119,160.808 166.910 C 161.294 167.929,161.692 167.963,165.332 167.293 C 167.352 166.922,170.387 166.927,172.363 167.305 C 175.905 167.983,176.614 167.861,176.864 166.529 C 177.067 165.445,176.560 164.722,175.340 164.354 C 172.771 163.581,168.659 163.297,165.661 163.686 M147.846 170.940 C 142.861 172.689,136.729 182.101,137.681 186.542 C 138.145 188.707,139.371 190.241,141.397 191.191 L 142.480 191.699 150.586 191.699 L 158.691 191.699 159.766 191.190 C 165.313 188.559,164.384 180.604,157.768 174.075 C 154.269 170.621,151.368 169.705,147.846 170.940 M152.708 174.462 C 153.870 175.006,156.594 177.721,157.694 179.432 C 158.756 181.082,159.502 182.708,159.133 182.566 C 153.136 180.268,152.336 180.981,153.429 187.646 L 153.533 188.281 150.399 188.281 C 147.582 188.281,147.266 188.248,147.266 187.950 C 147.266 187.767,147.413 186.491,147.594 185.113 C 148.087 181.343,147.566 180.856,144.080 181.834 C 141.736 182.492,141.878 182.538,142.514 181.336 C 145.582 175.549,149.453 172.938,152.708 174.462 M351.685 174.704 C 351.376 174.868,350.824 175.265,350.457 175.587 C 348.699 177.131,346.175 177.726,344.187 177.066 C 342.634 176.550,341.406 177.190,341.406 178.516 C 341.406 181.044,347.690 181.549,351.227 179.304 C 352.377 178.574,352.258 178.570,353.615 179.387 C 357.312 181.613,363.477 181.069,363.477 178.516 C 363.477 177.210,362.202 176.532,360.736 177.059 C 358.520 177.854,356.141 177.299,354.184 175.530 C 353.024 174.482,352.458 174.295,351.685 174.704 M309.044 182.112 L 308.496 182.583 308.496 185.319 C 308.496 188.497,308.748 189.069,310.141 189.056 C 311.606 189.043,311.914 188.387,311.914 185.282 C 311.914 181.877,310.777 180.621,309.044 182.112 M143.851 186.865 C 143.774 187.590,143.679 188.217,143.639 188.259 C 143.486 188.419,142.404 187.837,141.932 187.339 C 141.132 186.498,141.194 186.302,142.383 185.925 C 144.060 185.394,144.010 185.363,143.851 186.865 M158.740 186.061 C 159.304 186.223,159.766 186.426,159.766 186.511 C 159.766 186.849,158.959 187.663,158.325 187.964 C 157.301 188.450,157.064 188.379,156.933 187.549 C 156.557 185.169,156.318 185.366,158.740 186.061 M106.419 188.240 C 101.824 190.627,103.547 197.852,108.711 197.852 C 110.392 197.852,111.298 197.496,112.433 196.391 C 116.643 192.291,111.649 185.523,106.419 188.240 M302.287 188.870 C 301.407 189.562,301.426 190.855,302.327 191.547 C 302.536 191.707,303.521 191.784,305.371 191.784 C 308.223 191.784,308.510 191.712,308.952 190.882 C 309.319 190.194,309.218 189.657,308.609 189.047 L 308.038 188.477 305.412 188.477 C 303.077 188.477,302.732 188.520,302.287 188.870 M311.809 188.922 C 311.109 189.524,311.066 190.614,311.714 191.304 C 312.177 191.796,316.816 192.077,317.862 191.676 C 318.790 191.320,318.968 189.837,318.179 189.047 L 317.608 188.477 314.967 188.477 C 312.501 188.477,312.292 188.506,311.809 188.922 M390.967 188.761 C 385.927 190.694,387.190 198.438,392.545 198.438 C 399.113 198.438,399.522 188.890,392.969 188.547 C 392.180 188.505,391.422 188.587,390.967 188.761 M331.836 189.307 C 330.046 190.242,331.251 192.598,334.317 194.161 C 335.433 194.730,336.571 194.281,336.813 193.178 C 337.166 191.574,333.281 188.553,331.836 189.307 M190.692 189.927 C 189.503 190.453,189.468 191.888,190.615 193.056 L 191.411 193.867 190.799 194.444 C 189.337 195.819,189.501 197.660,191.112 197.962 C 191.854 198.101,192.410 197.861,193.303 197.015 L 193.931 196.422 194.813 197.234 C 196.965 199.218,199.218 196.965,197.234 194.813 L 196.422 193.931 197.015 193.303 C 198.138 192.118,198.330 191.233,197.654 190.373 C 196.863 189.368,195.655 189.531,194.444 190.805 L 193.867 191.411 193.076 190.640 C 192.147 189.735,191.539 189.553,190.692 189.927 M109.909 191.527 C 110.850 192.120,110.602 193.777,109.502 194.239 C 107.988 194.876,106.600 193.169,107.540 191.826 C 108.113 191.008,108.924 190.906,109.909 191.527 M309.044 191.682 C 308.118 192.478,308.107 197.383,309.030 198.243 C 309.443 198.627,310.392 198.755,311.026 198.511 C 312.130 198.088,312.378 192.817,311.343 191.782 C 310.628 191.066,309.802 191.030,309.044 191.682 M393.896 192.499 C 394.497 193.171,394.453 193.859,393.765 194.546 C 392.876 195.436,391.796 195.235,391.315 194.090 C 390.599 192.386,392.660 191.115,393.896 192.499 M3.550 200.452 C 2.573 201.492,2.874 202.200,5.322 204.618 C 8.059 207.320,9.338 207.650,9.945 205.810 C 10.266 204.838,10.135 204.624,7.741 202.197 C 5.309 199.733,4.530 199.408,3.550 200.452 M13.776 201.965 C 11.026 204.641,10.643 205.871,12.308 206.677 C 13.413 207.211,13.844 206.980,16.192 204.601 C 18.585 202.175,18.824 201.620,17.955 200.515 C 17.058 199.375,16.095 199.709,13.776 201.965 M261.173 202.158 C 259.987 202.634,259.979 204.160,261.156 205.381 L 261.919 206.172 261.307 206.748 C 260.111 207.873,259.937 209.216,260.890 209.965 C 261.706 210.607,262.573 210.472,263.579 209.545 L 264.453 208.739 265.328 209.545 C 267.533 211.578,269.791 209.254,267.795 207.008 L 267.035 206.152 267.795 205.327 C 269.854 203.090,267.378 200.739,265.201 202.864 L 264.454 203.594 263.819 202.992 C 262.741 201.971,262.123 201.777,261.173 202.158 M70.117 204.053 C 68.084 205.069,68.587 208.035,70.845 208.338 C 73.538 208.699,74.448 205.043,71.930 203.977 C 71.120 203.634,70.941 203.642,70.117 204.053 M206.738 205.223 C 204.902 205.555,204.241 207.600,205.547 208.906 C 207.116 210.475,209.704 209.137,209.297 206.968 C 209.094 205.887,207.831 205.025,206.738 205.223 M7.324 208.567 C 3.468 210.949,1.872 215.234,4.841 215.234 C 5.671 215.234,9.841 211.328,10.022 210.381 C 10.328 208.780,8.725 207.701,7.324 208.567 M11.899 208.774 C 10.819 209.854,11.007 210.305,13.632 212.930 C 16.223 215.522,16.846 215.789,17.880 214.755 C 18.929 213.706,18.651 213.061,16.046 210.488 C 13.414 207.887,12.969 207.704,11.899 208.774 M224.698 208.683 C 223.989 209.392,223.971 209.304,227.326 221.670 C 230.065 231.768,230.482 233.137,230.936 233.527 L 231.448 233.968 229.666 235.685 C 222.213 242.867,218.250 252.706,218.629 263.086 C 218.848 269.065,219.541 270.698,221.538 269.939 C 222.623 269.526,222.748 269.011,222.388 266.449 C 222.210 265.190,222.067 263.325,222.069 262.305 L 222.072 260.449 222.770 261.816 C 223.577 263.398,225.367 265.816,226.231 266.492 L 226.826 266.958 226.011 268.209 C 224.134 271.090,226.622 273.573,228.573 270.767 C 229.835 268.950,229.697 269.038,230.577 269.485 C 231.001 269.699,231.860 270.036,232.487 270.232 C 233.596 270.580,233.623 270.605,233.516 271.183 C 232.989 274.025,233.273 274.805,234.836 274.805 C 235.966 274.805,236.430 274.280,236.841 272.535 L 237.181 271.094 238.561 271.091 C 239.320 271.090,240.121 271.040,240.340 270.981 C 240.694 270.886,240.803 271.074,241.306 272.648 C 242.122 275.201,243.261 275.909,244.522 274.648 C 245.258 273.912,245.276 273.387,244.629 271.484 C 244.360 270.695,244.141 270.032,244.141 270.012 C 244.141 269.992,244.530 269.826,245.006 269.644 C 245.482 269.463,246.576 268.842,247.437 268.266 L 249.003 267.218 249.603 268.281 C 252.178 272.842,257.509 273.020,260.082 268.630 C 260.679 267.611,260.563 267.631,261.630 268.365 C 262.572 269.013,264.804 270.117,265.174 270.117 C 265.607 270.117,265.621 270.459,265.232 271.590 C 264.530 273.629,264.820 274.791,266.112 275.115 C 267.326 275.420,267.969 274.758,268.742 272.405 L 269.177 271.080 270.954 271.135 L 272.730 271.191 272.900 271.875 C 273.368 273.749,273.486 274.072,273.838 274.424 C 274.404 274.990,275.665 274.939,276.278 274.325 C 276.834 273.770,276.874 273.204,276.465 271.680 C 276.306 271.089,276.175 270.551,276.174 270.486 C 276.173 270.420,276.589 270.210,277.100 270.021 C 277.610 269.831,278.445 269.454,278.956 269.181 C 279.467 268.909,279.915 268.723,279.951 268.767 C 279.988 268.811,280.383 269.392,280.829 270.057 C 282.149 272.026,283.115 272.384,284.195 271.304 C 285.024 270.474,284.945 269.857,283.781 268.073 L 282.796 266.564 283.537 265.682 C 285.434 263.421,286.494 261.582,287.222 259.288 L 287.652 257.931 287.795 260.216 C 288.394 269.807,284.176 279.843,276.793 286.389 C 274.718 288.229,274.749 288.218,274.169 287.342 C 266.465 275.700,244.622 275.437,236.133 286.885 C 235.057 288.336,235.375 288.375,233.269 286.539 C 231.636 285.116,230.322 283.677,228.080 280.859 C 227.052 279.567,225.941 279.286,225.075 280.100 C 224.180 280.941,224.415 281.890,226.040 283.984 C 242.601 305.340,275.550 302.132,287.584 277.992 C 294.670 263.777,291.387 245.897,279.715 235.142 C 278.908 234.398,278.382 233.789,278.546 233.789 C 279.241 233.789,279.603 232.700,282.636 221.475 C 285.853 209.569,285.900 209.328,285.117 208.599 C 284.264 207.804,283.472 208.038,281.003 209.814 C 261.680 223.715,263.308 222.306,263.616 224.861 C 263.722 225.743,263.800 226.476,263.789 226.490 C 263.778 226.503,262.982 226.353,262.019 226.156 C 257.702 225.272,252.213 225.270,247.949 226.151 C 245.841 226.587,246.050 226.752,246.306 224.851 C 246.624 222.487,247.188 223.034,236.339 215.186 C 225.715 207.500,225.821 207.559,224.698 208.683 M47.802 209.177 C 46.828 209.943,46.956 211.078,48.157 212.314 L 48.830 213.007 48.127 213.681 C 47.207 214.562,47.000 215.114,47.275 215.948 C 47.718 217.289,49.306 217.422,50.482 216.217 L 51.239 215.442 52.080 216.217 C 54.370 218.328,56.749 215.883,54.573 213.655 L 53.842 212.906 54.655 212.024 C 56.660 209.849,54.416 207.591,52.242 209.595 L 51.367 210.401 50.493 209.595 C 49.487 208.668,48.620 208.533,47.802 209.177 M83.690 209.629 C 78.751 211.981,80.409 219.385,85.874 219.385 C 90.440 219.385,92.759 213.866,89.544 210.651 C 88.098 209.205,85.524 208.755,83.690 209.629 M87.021 213.175 C 88.345 214.499,86.806 216.576,85.138 215.713 C 84.114 215.184,83.929 214.195,84.685 213.296 C 85.339 212.520,86.315 212.469,87.021 213.175 M235.778 219.158 C 239.357 221.746,242.409 223.983,242.561 224.128 C 242.797 224.356,242.776 224.894,242.412 227.968 C 242.179 229.934,241.990 231.882,241.991 232.296 C 241.992 232.937,241.941 233.029,241.650 232.910 C 241.462 232.834,239.595 232.329,237.500 231.788 C 235.405 231.248,233.622 230.744,233.537 230.669 C 233.403 230.549,229.107 214.981,229.103 214.600 C 229.100 214.334,229.218 214.415,235.778 219.158 M280.784 214.795 C 280.729 214.983,279.749 218.608,278.607 222.852 C 277.465 227.095,276.472 230.619,276.400 230.683 C 276.328 230.747,274.600 231.219,272.559 231.731 C 270.518 232.243,268.626 232.767,268.354 232.896 C 267.878 233.121,267.863 233.108,267.920 232.532 C 267.953 232.203,267.776 230.213,267.527 228.109 L 267.074 224.285 273.820 219.380 C 280.725 214.360,280.959 214.206,280.784 214.795 M201.469 220.557 C 200.536 221.368,200.587 222.270,201.629 223.384 L 202.522 224.339 201.705 225.156 C 199.372 227.490,202.033 229.758,204.436 227.484 L 205.064 226.890 205.946 227.703 C 207.044 228.716,207.772 228.782,208.609 227.945 C 209.446 227.108,209.380 226.380,208.367 225.281 L 207.554 224.400 208.148 223.772 C 210.409 221.383,208.277 218.735,205.900 220.980 L 204.987 221.843 204.064 220.980 C 202.996 219.981,202.268 219.862,201.469 220.557 M37.109 224.767 C 34.749 225.561,34.141 226.021,31.250 229.203 C 27.615 233.205,27.807 233.207,23.828 229.107 C 20.125 225.290,19.479 224.910,16.699 224.906 C 12.753 224.902,9.719 227.662,9.434 231.518 C 9.342 232.761,9.524 233.797,11.138 241.211 C 14.007 254.389,13.919 256.420,10.059 266.109 C 5.497 277.557,4.777 282.441,6.840 287.953 C 8.936 293.556,18.342 296.873,39.648 299.525 C 50.849 300.918,73.140 299.100,74.046 296.718 C 74.316 296.008,74.046 295.151,73.400 294.669 L 72.877 294.278 68.616 294.986 C 53.038 297.575,39.785 297.021,22.647 293.063 C 7.619 289.592,6.134 285.462,13.379 267.281 C 17.460 257.038,17.570 254.513,14.545 240.454 C 12.551 231.182,12.535 230.810,14.095 229.355 C 16.237 227.357,17.998 227.944,21.569 231.845 C 24.628 235.185,25.335 235.634,27.539 235.636 C 29.968 235.637,30.350 235.366,35.073 230.302 C 37.184 228.039,38.655 227.609,42.619 228.095 C 45.034 228.392,45.517 228.672,47.831 231.117 C 49.508 232.889,51.831 233.261,54.799 232.233 C 60.682 230.194,63.524 231.315,68.411 237.598 C 71.957 242.156,74.740 243.401,79.672 242.636 C 83.085 242.106,85.377 242.158,86.719 242.795 C 89.747 244.232,91.526 247.485,91.021 250.661 C 90.828 251.877,90.689 252.182,87.641 258.105 C 83.523 266.109,84.139 270.844,90.248 278.125 C 93.363 281.838,93.903 283.085,93.365 285.326 C 92.795 287.703,91.527 288.759,87.579 290.147 C 84.285 291.304,83.542 292.331,84.966 293.755 C 86.131 294.920,92.479 292.570,94.694 290.154 C 98.384 286.131,97.861 281.770,92.983 275.879 C 87.349 269.075,87.168 266.717,91.615 258.081 C 95.222 251.077,95.509 247.791,92.875 243.652 C 90.201 239.451,86.246 238.066,79.860 239.096 C 75.411 239.814,74.332 239.320,70.863 234.979 C 67.497 230.767,66.259 229.725,63.281 228.596 C 60.991 227.727,56.937 227.758,54.335 228.664 C 51.517 229.645,51.274 229.600,49.463 227.757 C 47.049 225.301,45.437 224.687,40.947 224.514 C 38.586 224.422,38.027 224.459,37.109 224.767 M258.008 229.104 C 259.028 229.209,260.751 229.479,261.836 229.706 C 265.508 230.471,265.588 230.126,259.757 238.582 C 257.172 242.331,255.030 245.425,254.997 245.458 C 254.965 245.491,252.806 242.428,250.201 238.652 C 244.319 230.126,244.402 230.485,248.125 229.701 C 251.670 228.955,254.748 228.769,258.008 229.104 M239.880 236.367 C 240.070 236.614,240.228 236.873,240.230 236.941 C 240.232 237.010,238.982 237.108,237.451 237.160 C 235.891 237.213,234.221 237.381,233.650 237.542 C 232.393 237.897,232.463 237.777,234.410 236.238 L 235.964 235.009 237.749 235.463 C 239.036 235.790,239.630 236.042,239.880 236.367 M276.768 237.318 C 277.460 237.965,277.843 238.406,277.617 238.299 C 276.389 237.715,274.135 237.255,271.925 237.138 L 269.534 237.012 269.972 236.464 C 270.319 236.031,270.777 235.824,272.168 235.470 L 273.926 235.023 274.717 235.583 C 275.152 235.891,276.075 236.672,276.768 237.318 M296.274 235.532 C 294.873 236.933,295.855 239.258,297.847 239.258 C 299.288 239.258,300.000 238.547,300.000 237.109 C 300.000 236.257,299.912 236.015,299.429 235.532 C 298.946 235.049,298.704 234.961,297.852 234.961 C 296.999 234.961,296.757 235.049,296.274 235.532 M263.803 239.484 C 263.405 241.004,264.856 241.836,266.814 241.211 C 279.865 237.044,290.056 252.577,281.127 263.028 C 276.603 268.324,268.084 269.095,262.617 264.704 L 261.659 263.935 261.640 262.654 L 261.621 261.374 262.584 262.353 C 271.777 271.693,287.193 260.924,281.634 249.045 C 276.440 237.946,259.354 241.529,259.288 253.732 L 259.277 255.608 258.432 254.865 C 255.879 252.624,252.185 253.263,250.073 256.311 C 249.600 256.995,249.412 257.165,249.494 256.836 C 250.818 251.577,247.892 245.623,242.871 243.359 C 232.812 238.822,222.587 249.376,227.429 259.297 C 231.413 267.459,242.873 268.104,247.912 260.449 C 248.368 259.757,248.634 259.477,248.562 259.766 C 248.495 260.034,248.384 260.869,248.316 261.621 C 248.174 263.195,247.908 263.574,245.996 264.938 C 240.420 268.914,233.254 268.398,228.525 263.679 C 217.970 253.145,229.414 236.101,243.322 241.641 C 245.453 242.490,246.656 241.922,246.450 240.162 C 246.347 239.277,246.025 238.871,250.115 244.790 C 255.259 252.232,254.643 252.245,259.938 244.580 C 263.790 239.003,264.001 238.725,263.803 239.484 M40.250 240.576 C 40.020 240.764,39.782 241.232,39.720 241.616 C 39.408 243.568,42.383 244.159,42.865 242.241 C 43.229 240.789,41.408 239.630,40.250 240.576 M59.323 242.822 C 58.516 243.436,58.552 245.067,59.383 245.512 C 61.004 246.379,62.635 244.524,61.509 243.093 C 61.058 242.519,59.910 242.377,59.323 242.822 M31.765 245.913 C 31.061 246.466,31.033 247.775,31.711 248.412 C 33.636 250.220,52.928 252.321,64.227 251.953 L 67.223 251.855 67.713 251.284 C 68.288 250.615,68.239 249.597,67.601 248.960 C 67.242 248.601,66.864 248.577,60.808 248.529 C 51.614 248.455,44.547 247.786,37.080 246.281 C 32.637 245.386,32.451 245.373,31.765 245.913 M239.266 245.900 C 242.220 246.460,244.700 248.485,245.720 251.169 L 246.067 252.082 245.012 252.722 C 240.539 255.432,235.865 255.502,231.360 252.924 L 229.918 252.099 230.199 251.302 C 231.501 247.611,235.555 245.196,239.266 245.900 M272.274 245.900 C 275.230 246.461,277.708 248.485,278.730 251.174 L 279.079 252.092 277.630 252.921 C 273.233 255.436,268.761 255.438,264.368 252.924 L 262.925 252.099 263.207 251.302 C 264.509 247.611,268.562 245.196,272.274 245.900 M233.126 257.576 C 236.868 258.805,240.896 258.581,244.604 256.937 C 246.037 256.302,246.060 256.331,245.307 257.823 C 242.123 264.130,231.802 263.430,230.170 256.796 L 230.040 256.267 231.002 256.731 C 231.532 256.986,232.487 257.367,233.126 257.576 M266.133 257.576 C 269.876 258.805,273.904 258.581,277.612 256.937 C 279.040 256.304,279.066 256.335,278.337 257.780 C 275.132 264.128,264.817 263.459,263.178 256.796 L 263.048 256.267 264.010 256.731 C 264.539 256.986,265.495 257.367,266.133 257.576 M255.833 257.311 C 258.216 258.543,258.900 264.011,257.025 266.842 C 255.562 269.052,253.823 268.752,252.499 266.061 C 250.554 262.110,252.951 255.820,255.833 257.311 M221.387 271.710 C 220.300 272.304,220.254 273.148,221.182 275.451 C 222.253 278.107,222.799 278.591,224.186 278.107 C 225.442 277.669,225.503 276.630,224.427 274.027 C 223.434 271.623,222.645 271.022,221.387 271.710 M207.511 279.972 C 207.045 280.437,207.031 280.535,207.031 283.301 C 207.031 286.066,207.045 286.165,207.511 286.630 C 208.235 287.354,209.376 287.299,210.041 286.508 C 210.952 285.427,210.763 280.495,209.783 279.743 C 209.232 279.320,208.042 279.440,207.511 279.972 M258.851 282.128 C 263.464 282.933,267.972 285.425,270.619 288.634 C 271.960 290.259,272.050 290.048,269.482 291.300 C 260.174 295.837,249.939 295.876,240.674 291.410 C 237.919 290.082,237.989 290.215,239.239 288.713 C 243.605 283.467,251.441 280.836,258.851 282.128 M200.479 287.003 C 199.877 287.606,199.825 288.803,200.373 289.480 C 200.754 289.952,205.027 290.290,206.363 289.955 C 207.809 289.592,208.117 287.479,206.822 286.809 C 205.771 286.266,201.073 286.409,200.479 287.003 M210.416 286.991 C 209.701 287.606,209.650 288.838,210.312 289.501 C 210.721 289.911,210.950 289.946,213.580 290.005 L 216.407 290.068 216.993 289.483 C 217.864 288.612,217.698 287.209,216.668 286.740 C 215.654 286.278,211.029 286.464,210.416 286.991 M292.772 286.694 C 287.067 288.566,288.261 296.771,294.238 296.771 C 300.909 296.771,301.193 286.929,294.531 286.597 C 293.833 286.562,293.041 286.606,292.772 286.694 M207.436 289.968 C 206.768 290.818,206.825 295.905,207.511 296.591 C 208.235 297.315,209.376 297.260,210.041 296.469 C 211.011 295.317,210.715 289.980,209.659 289.574 C 208.863 289.269,207.844 289.449,207.436 289.968 M294.984 290.266 C 296.032 290.825,296.216 292.012,295.384 292.844 C 294.310 293.918,292.578 293.149,292.578 291.599 C 292.578 290.581,294.047 289.767,294.984 290.266 M80.273 292.388 C 80.005 292.481,79.407 292.654,78.945 292.773 C 77.325 293.190,76.753 294.739,77.823 295.810 C 79.061 297.047,83.203 295.579,83.203 293.902 C 83.203 292.490,81.908 291.821,80.273 292.388 M351.514 300.605 C 347.514 301.224,346.035 306.639,349.125 309.352 C 352.517 312.331,357.506 310.080,357.516 305.566 C 357.523 302.177,354.975 300.071,351.514 300.605 M187.842 302.760 C 184.068 303.319,182.547 308.056,185.227 310.906 C 188.583 314.476,194.550 311.337,193.551 306.527 C 193.010 303.917,190.630 302.347,187.842 302.760 M353.306 304.192 C 354.255 304.683,354.412 305.957,353.622 306.747 C 352.368 308.002,350.392 306.572,351.089 304.915 C 351.481 303.982,352.352 303.698,353.306 304.192 M304.116 304.811 C 303.373 305.755,303.561 306.518,304.869 307.881 L 306.028 309.087 304.869 310.286 C 303.437 311.768,303.280 312.689,304.312 313.557 C 305.313 314.399,305.929 314.224,307.569 312.630 L 308.594 311.634 309.768 312.795 C 311.190 314.203,312.169 314.389,313.009 313.412 C 313.802 312.490,313.646 311.862,312.268 310.427 L 311.060 309.168 312.051 308.149 C 313.622 306.531,313.870 305.649,312.997 304.776 C 312.103 303.882,311.124 304.085,309.689 305.464 L 308.474 306.630 307.319 305.464 C 305.933 304.063,304.874 303.848,304.116 304.811 M389.329 305.502 C 388.614 305.848,388.477 306.509,388.477 309.595 L 388.477 312.530 389.047 313.101 C 389.967 314.021,391.222 313.769,391.726 312.563 C 392.305 311.178,392.035 306.337,391.347 305.745 C 390.772 305.250,390.032 305.161,389.329 305.502 M108.212 306.211 C 107.166 307.258,107.440 307.986,109.712 310.192 C 111.710 312.133,112.726 312.357,113.586 311.045 C 114.176 310.144,113.849 309.446,111.952 307.558 C 109.866 305.481,109.187 305.236,108.212 306.211 M118.164 305.799 C 117.459 306.051,114.453 309.276,114.334 309.908 C 114.118 311.060,115.239 312.102,116.385 311.815 C 116.947 311.674,119.830 308.938,120.233 308.164 C 120.959 306.769,119.648 305.270,118.164 305.799 M190.167 306.975 C 190.702 308.256,189.383 309.542,188.143 308.948 C 187.352 308.568,187.007 307.750,187.320 306.993 C 187.858 305.695,189.627 305.684,190.167 306.975 M167.837 306.970 C 167.201 307.097,166.432 307.965,166.291 308.717 C 165.826 311.197,169.457 312.370,170.426 310.052 C 171.184 308.237,169.794 306.581,167.837 306.970 M321.367 309.454 C 319.858 310.122,320.064 310.834,323.520 316.890 C 328.082 324.883,328.507 327.426,326.658 335.676 C 326.606 335.911,325.987 336.509,325.256 337.031 C 317.139 342.823,310.916 352.052,309.170 360.886 C 307.408 369.799,310.894 380.156,316.943 383.978 C 317.363 384.243,318.006 384.902,318.373 385.443 C 320.898 389.164,329.159 395.488,330.917 395.047 C 332.878 394.555,332.708 392.448,330.623 391.386 C 328.962 390.540,326.185 388.548,324.277 386.832 C 324.107 386.679,324.618 386.611,326.132 386.584 C 327.670 386.556,328.739 386.410,330.176 386.032 C 335.559 384.616,337.408 384.182,339.648 383.810 C 348.540 382.333,357.773 382.883,366.709 385.420 C 370.065 386.374,371.141 386.567,373.241 386.596 L 375.098 386.621 373.926 387.668 C 367.664 393.263,358.084 396.344,347.912 396.035 C 343.274 395.895,342.406 396.321,343.244 398.327 C 343.667 399.340,344.429 399.480,349.512 399.477 C 362.521 399.470,374.764 393.998,380.762 385.509 C 381.191 384.901,381.798 384.253,382.109 384.068 C 383.216 383.412,385.585 380.960,386.632 379.386 C 394.797 367.115,389.402 348.569,374.409 337.370 L 372.548 335.979 371.988 331.957 C 371.071 325.367,371.247 324.647,375.668 316.899 C 378.946 311.157,379.143 310.620,378.271 309.822 C 377.130 308.777,377.042 308.816,371.461 312.810 C 363.103 318.792,361.539 320.927,360.620 327.609 C 360.223 330.502,360.390 330.326,358.456 329.874 C 352.985 328.596,346.109 328.603,340.645 329.893 C 339.742 330.106,338.987 330.257,338.966 330.228 C 338.946 330.199,338.778 329.077,338.594 327.734 C 337.686 321.113,335.898 318.644,327.857 312.908 C 322.675 309.213,322.329 309.028,321.367 309.454 M111.426 312.495 C 110.545 312.869,107.805 315.913,107.685 316.651 C 107.469 317.981,108.885 318.927,110.117 318.276 C 110.739 317.947,113.337 315.325,113.650 314.710 C 114.346 313.343,112.876 311.880,111.426 312.495 M114.853 312.852 C 113.806 313.898,114.080 314.626,116.352 316.833 C 118.375 318.797,119.356 319.013,120.226 317.686 C 120.817 316.784,120.490 316.086,118.593 314.198 C 116.506 312.121,115.827 311.877,114.853 312.852 M381.126 313.705 C 380.216 314.145,380.020 315.504,380.745 316.347 C 381.337 317.035,386.178 317.305,387.563 316.726 C 388.769 316.222,389.021 314.967,388.101 314.047 L 387.530 313.477 384.537 313.490 C 382.890 313.497,381.355 313.594,381.126 313.705 M392.276 313.956 C 390.224 316.008,393.559 317.622,398.363 316.901 C 400.011 316.654,400.689 314.828,399.485 313.881 C 398.631 313.209,392.964 313.268,392.276 313.956 M388.956 317.276 C 388.487 317.746,388.477 317.822,388.477 320.898 C 388.477 324.567,388.661 325.000,390.225 325.000 C 391.784 325.000,392.059 324.263,391.959 320.358 C 391.899 317.969,391.864 317.771,391.421 317.300 C 390.775 316.614,389.630 316.603,388.956 317.276 M329.590 318.458 C 332.943 320.921,334.450 323.555,335.177 328.223 C 335.696 331.550,335.760 331.298,334.229 331.937 C 333.503 332.239,332.396 332.742,331.767 333.053 C 330.343 333.759,330.401 333.862,330.780 331.328 C 331.000 329.859,331.071 328.443,331.008 326.758 C 330.880 323.343,330.337 321.755,327.776 317.304 C 327.634 317.058,328.003 317.293,329.590 318.458 M370.886 318.213 C 368.037 323.031,367.501 326.645,368.673 333.125 L 368.783 333.731 367.448 333.078 C 366.714 332.720,365.536 332.198,364.830 331.919 L 363.547 331.411 363.905 328.938 C 364.679 323.589,366.069 321.083,369.792 318.323 C 371.653 316.943,371.636 316.945,370.886 318.213 M149.654 326.190 C 146.171 326.648,143.750 329.593,143.750 333.373 L 143.750 335.092 142.432 335.290 L 141.113 335.488 139.276 333.752 C 134.299 329.047,128.737 326.702,122.559 326.702 C 119.345 326.702,118.825 326.872,117.787 328.270 C 114.071 333.272,113.277 341.169,115.586 350.158 L 115.952 351.586 115.099 353.283 C 114.158 355.155,113.372 357.441,113.014 359.349 L 112.780 360.592 110.833 360.652 C 106.255 360.794,103.125 362.020,103.125 363.672 C 103.125 365.258,104.136 365.581,106.528 364.760 C 108.144 364.205,110.931 363.786,111.853 363.959 C 112.582 364.096,112.612 364.176,112.785 366.406 C 112.848 367.212,113.028 368.354,113.186 368.945 C 113.566 370.372,113.588 370.313,112.672 370.313 C 109.521 370.313,101.447 372.381,100.362 373.466 C 99.860 373.968,99.876 375.267,100.391 375.781 C 100.949 376.339,101.744 376.273,104.048 375.478 C 107.023 374.450,109.953 373.835,112.532 373.697 L 114.810 373.575 115.505 374.957 C 116.496 376.924,117.760 377.553,118.745 376.567 C 119.524 375.789,119.463 375.312,118.292 372.981 C 111.741 359.942,119.662 345.707,136.562 340.146 C 138.683 339.448,142.758 338.477,143.565 338.477 C 143.675 338.477,143.750 339.937,143.750 342.083 C 143.750 348.500,145.763 351.074,150.781 351.074 C 155.763 351.074,157.813 348.488,157.813 342.205 L 157.813 338.722 158.740 338.895 C 175.343 341.988,186.733 355.655,183.340 368.414 C 178.249 387.560,148.570 395.789,128.551 383.606 C 126.180 382.163,124.694 382.429,124.747 384.288 C 124.817 386.762,135.260 391.139,143.848 392.293 C 160.757 394.565,178.925 386.580,184.700 374.338 L 185.059 373.578 187.402 373.698 C 190.050 373.833,192.915 374.429,195.952 375.478 C 199.276 376.625,200.738 375.978,199.879 373.739 C 199.486 372.716,192.403 370.682,188.203 370.387 C 186.602 370.274,186.335 370.207,186.417 369.942 C 186.660 369.153,187.084 366.763,187.207 365.484 C 187.343 364.074,187.344 364.073,187.997 363.950 C 188.935 363.774,191.766 364.194,193.413 364.753 C 195.858 365.582,196.875 365.265,196.875 363.672 C 196.875 361.999,193.619 360.743,189.103 360.675 C 187.260 360.647,187.087 360.612,187.018 360.254 C 186.653 358.345,186.189 356.671,185.636 355.272 L 184.979 353.610 185.465 351.951 C 188.372 342.030,187.775 333.653,183.775 328.270 C 182.737 326.872,182.218 326.702,179.004 326.702 C 172.745 326.702,167.059 329.134,162.146 333.913 C 160.086 335.918,160.332 335.820,158.350 335.427 L 157.813 335.321 157.813 333.488 C 157.813 328.693,154.328 325.577,149.654 326.190 M152.441 329.837 C 153.655 330.434,154.329 331.427,154.565 332.959 L 154.692 333.789 150.881 333.789 L 147.070 333.789 147.070 332.998 C 147.070 330.346,149.988 328.628,152.441 329.837 M127.072 330.567 C 130.220 331.365,133.669 333.223,136.058 335.406 L 137.150 336.404 135.564 336.931 L 133.978 337.458 132.690 336.612 C 129.347 334.416,123.830 332.988,122.774 334.045 C 121.668 335.150,120.650 339.667,120.739 343.073 L 120.801 345.423 119.734 346.635 C 118.470 348.071,118.500 348.089,118.039 345.605 C 116.859 339.253,118.577 330.456,121.085 330.007 C 122.114 329.823,125.321 330.123,127.072 330.567 M180.290 330.003 C 182.110 330.304,183.984 335.540,183.984 340.323 C 183.984 342.804,183.147 348.715,182.690 349.454 C 182.635 349.543,182.102 348.990,181.504 348.227 L 180.418 346.838 180.638 345.501 C 181.254 341.774,180.240 335.496,178.789 334.045 C 177.559 332.815,170.860 334.882,167.576 337.505 L 167.086 337.897 165.562 337.342 L 164.038 336.786 165.289 335.616 C 169.354 331.814,176.062 329.304,180.290 330.003 M301.038 331.240 C 300.238 331.728,300.000 332.191,300.000 333.262 C 300.000 335.963,303.990 336.223,304.424 333.550 C 304.734 331.638,302.681 330.238,301.038 331.240 M354.883 332.730 C 364.356 334.213,374.022 339.951,379.938 347.603 L 380.871 348.810 379.352 348.043 C 365.610 341.106,352.859 358.602,363.680 369.547 C 371.050 377.001,383.921 373.223,386.259 362.919 L 386.597 361.426 386.783 362.305 C 387.979 367.981,385.834 375.673,381.965 379.581 C 378.345 383.236,374.424 383.991,368.164 382.237 C 355.266 378.623,344.237 378.598,331.371 382.154 C 327.506 383.223,325.406 383.420,323.176 382.923 C 317.499 381.660,313.373 376.316,312.311 368.848 C 311.939 366.231,311.983 366.165,313.070 367.713 C 316.757 372.963,323.943 374.937,329.650 372.266 C 342.771 366.126,338.556 346.568,324.121 346.612 C 322.371 346.618,321.294 346.715,320.654 346.924 C 319.409 347.331,319.451 347.239,321.505 345.051 C 330.487 335.481,342.986 330.867,354.883 332.730 M126.493 337.517 C 128.004 337.977,130.079 338.859,130.077 339.040 C 130.077 339.106,129.440 339.488,128.661 339.888 C 127.883 340.288,126.521 341.098,125.635 341.689 L 124.023 342.762 124.023 341.881 C 124.023 340.566,124.783 337.109,125.072 337.109 C 125.117 337.109,125.757 337.293,126.493 337.517 M154.688 338.574 L 154.688 340.039 150.879 340.039 L 147.070 340.039 147.070 338.574 L 147.070 337.109 150.879 337.109 L 154.688 337.109 154.688 338.574 M177.015 338.492 C 177.211 339.182,177.422 340.754,177.484 341.986 L 177.597 344.226 176.640 343.444 C 175.139 342.218,174.447 341.739,172.507 340.584 C 170.533 339.408,170.540 339.441,172.070 338.663 C 173.103 338.137,176.182 337.100,176.465 337.182 C 176.572 337.213,176.820 337.803,177.015 338.492 M391.113 337.453 C 388.439 337.914,388.790 341.992,391.504 341.992 C 392.739 341.992,393.750 340.917,393.750 339.604 C 393.750 338.272,392.461 337.221,391.113 337.453 M154.581 344.287 C 153.917 349.001,147.070 348.985,147.070 344.270 L 147.070 343.359 150.891 343.359 L 154.711 343.359 154.581 344.287 M130.929 349.623 C 124.488 350.484,118.138 361.463,120.940 366.895 C 122.631 370.173,125.627 371.387,132.031 371.387 C 140.305 371.387,143.652 369.137,143.652 363.574 C 143.652 356.204,136.920 348.822,130.929 349.623 M166.867 349.623 C 160.426 350.484,154.076 361.463,156.877 366.895 C 158.569 370.173,161.564 371.387,167.969 371.387 C 176.243 371.387,179.590 369.137,179.590 363.574 C 179.590 356.210,172.853 348.822,166.867 349.623 M326.537 350.284 C 333.978 352.264,336.578 361.224,331.327 366.790 C 325.684 372.772,315.636 369.745,314.244 361.645 C 313.043 354.649,319.727 348.471,326.537 350.284 M375.560 350.284 C 383.186 352.313,385.673 361.833,379.971 367.167 C 374.201 372.564,364.894 369.653,363.300 361.953 C 361.843 354.916,368.644 348.443,375.560 350.284 M321.973 352.606 C 318.120 353.883,315.882 357.482,316.581 361.275 C 318.135 369.710,329.974 369.695,331.669 361.256 C 332.730 355.971,327.066 350.918,321.973 352.606 M370.996 352.606 C 366.243 354.182,364.143 359.024,366.309 363.415 C 369.567 370.022,379.499 368.461,380.675 361.157 C 381.545 355.755,376.075 350.923,370.996 352.606 M134.082 353.471 C 138.976 355.901,142.141 363.991,139.187 366.520 C 136.579 368.752,127.462 368.733,124.842 366.491 C 122.438 364.433,123.665 359.412,127.539 355.454 C 130.126 352.811,131.757 352.317,134.082 353.471 M170.020 353.471 C 174.913 355.901,178.078 363.991,175.124 366.520 C 172.516 368.752,163.400 368.733,160.780 366.491 C 158.375 364.433,159.602 359.412,163.477 355.454 C 166.064 352.811,167.694 352.317,170.020 353.471 M133.672 355.943 C 132.822 356.313,132.813 356.369,132.813 361.259 C 132.813 365.976,132.863 366.250,133.802 366.577 C 135.665 367.226,136.131 366.158,136.131 361.230 C 136.131 357.048,135.984 356.331,135.051 355.941 C 134.272 355.616,134.423 355.616,133.672 355.943 M164.922 355.943 C 164.072 356.313,164.063 356.369,164.063 361.259 C 164.063 365.976,164.113 366.250,165.052 366.577 C 166.915 367.226,167.381 366.158,167.381 361.230 C 167.381 357.048,167.234 356.331,166.301 355.941 C 165.522 355.616,165.673 355.616,164.922 355.943 M326.094 356.305 C 326.944 356.748,327.871 357.864,328.113 358.735 C 329.282 362.943,324.282 366.000,321.208 362.958 C 317.807 359.591,321.847 354.090,326.094 356.305 M375.129 356.311 C 375.943 356.735,376.844 357.849,377.121 358.774 C 378.559 363.573,371.693 366.374,369.462 361.898 C 367.616 358.192,371.463 354.399,375.129 356.311 M143.066 375.580 C 139.746 376.214,136.998 376.412,134.834 376.171 C 130.381 375.677,130.583 375.672,130.111 376.272 C 129.094 377.565,129.856 378.805,131.878 379.150 L 133.190 379.374 133.815 380.947 C 135.252 384.567,136.056 385.359,138.004 385.066 C 139.414 384.855,140.007 384.172,141.114 381.482 L 142.078 379.142 143.549 378.878 C 145.813 378.471,152.167 378.524,154.528 378.971 L 156.419 379.328 157.322 381.510 C 158.390 384.090,159.062 384.861,160.423 385.065 C 162.343 385.353,163.194 384.521,164.639 380.944 L 165.276 379.369 166.573 379.148 C 168.622 378.798,169.421 377.411,168.248 376.238 C 167.691 375.681,167.445 375.677,163.770 376.176 C 161.565 376.475,158.415 376.321,155.566 375.774 C 152.386 375.163,145.785 375.060,143.066 375.580 M119.742 378.271 C 118.783 379.056,118.959 379.934,120.366 381.383 C 121.833 382.894,122.604 383.101,123.530 382.232 C 125.193 380.669,121.514 376.823,119.742 378.271 M137.932 380.384 L 137.602 381.275 137.287 380.530 L 136.973 379.785 137.578 379.664 C 137.911 379.598,138.201 379.532,138.223 379.518 C 138.245 379.504,138.114 379.893,137.932 380.384 M161.317 380.204 C 160.990 381.065,160.893 381.127,160.624 380.642 C 160.221 379.916,160.295 379.688,160.933 379.688 C 161.480 379.688,161.502 379.717,161.317 380.204 M391.163 384.957 C 390.230 385.690,390.344 386.884,391.457 388.037 L 392.069 388.672 391.457 389.307 C 389.303 391.539,391.466 394.065,393.774 392.013 L 394.629 391.253 395.455 392.013 C 397.732 394.109,399.957 391.542,397.801 389.307 L 397.189 388.672 397.801 388.037 C 399.968 385.791,397.798 383.290,395.465 385.344 L 394.586 386.118 394.119 385.619 C 393.120 384.549,392.000 384.298,391.163 384.957 M188.315 385.608 C 187.636 386.331,187.742 387.335,188.597 388.281 L 189.303 389.063 188.597 389.844 C 186.707 391.937,188.841 394.101,190.985 392.266 L 191.805 391.564 192.583 392.266 C 194.638 394.123,196.807 391.985,195.004 389.879 L 194.305 389.063 195.004 388.246 C 196.807 386.140,194.638 384.002,192.583 385.859 L 191.805 386.561 190.985 385.859 C 189.975 384.995,188.980 384.901,188.315 385.608 M308.627 387.677 C 306.485 388.417,305.153 390.465,305.319 392.766 C 305.772 399.078,314.931 399.110,315.382 392.800 C 315.649 389.075,312.185 386.448,308.627 387.677 M109.698 387.908 C 105.183 388.629,104.358 394.955,108.496 397.123 C 110.495 398.171,113.495 397.390,114.688 395.511 C 117.133 391.660,114.198 387.189,109.698 387.908 M311.435 391.300 C 312.039 391.904,312.085 392.993,311.528 393.550 C 310.251 394.827,308.197 393.504,308.891 391.852 C 309.359 390.740,310.605 390.470,311.435 391.300 M112.040 392.066 C 112.806 393.673,110.832 395.012,109.565 393.745 C 108.804 392.983,109.251 391.516,110.352 391.168 C 110.898 390.995,111.743 391.445,112.040 392.066 M334.277 393.780 C 332.392 394.811,333.172 396.573,335.906 397.457 C 338.996 398.456,340.598 397.903,340.121 396.001 C 339.824 394.821,335.429 393.150,334.277 393.780 " stroke="none" fill="#000000" fill-rule="evenodd"></path></g></svg>