<?xml version="1.0" encoding="UTF-8" standalone="no"?>
<svg width="400px" height="400px" viewBox="0 0 400 400" version="1.1" xmlns="http://www.w3.org/2000/svg"
    xmlns:xlink="http://www.w3.org/1999/xlink">
    <title>pokemonset 4</title>
    <defs></defs>
    <style>
        #pokemonset {
            /* fill: currentColor; */
            fill: yellow;
            fill-opacity: .25;
            stroke: none;
            fill-rule: evenodd;
        }
    </style>
    <g id="svg">
        <path id="pokemonset"
            d="M81.534 0.479 C 80.500 1.514,80.767 2.136,83.359 4.727 C 85.941 7.310,86.344 7.486,87.485 6.526 C 88.713 5.492,88.446 4.773,85.879 2.207 C 83.379 -0.293,82.612 -0.598,81.534 0.479 M91.516 2.340 C 88.749 5.142,88.510 6.531,90.726 6.947 C 92.278 7.238,96.798 2.710,96.369 1.293 C 95.724 -0.842,94.370 -0.550,91.516 2.340 M246.378 0.479 C 245.473 1.384,245.692 2.065,247.612 4.322 C 252.757 10.369,256.437 18.716,257.410 26.547 C 257.654 28.510,257.883 28.233,255.544 28.801 C 249.190 30.345,243.697 33.356,238.980 37.882 L 237.207 39.583 236.426 39.404 C 235.650 39.226,232.505 39.330,231.717 39.559 C 231.372 39.660,231.204 39.501,230.688 38.587 C 227.698 33.288,220.635 30.137,214.421 31.330 C 204.307 33.272,198.652 44.497,203.234 53.538 L 203.708 54.473 202.757 55.464 C 194.637 63.933,205.737 77.000,215.514 70.481 C 216.379 69.905,216.710 69.773,216.816 69.962 C 218.786 73.475,224.035 75.937,228.441 75.415 L 229.635 75.273 230.460 77.366 C 239.893 101.301,271.314 107.762,289.559 89.518 C 299.178 79.898,302.615 65.392,298.342 52.441 C 296.938 48.186,296.134 47.160,294.599 47.666 C 293.332 48.084,293.236 49.159,294.252 51.568 C 304.304 75.399,282.629 101.371,257.273 95.877 C 236.547 91.387,225.480 68.757,234.678 49.673 C 239.441 39.789,250.314 32.098,260.059 31.719 C 261.240 31.673,262.972 31.547,263.907 31.440 C 269.922 30.748,278.555 33.737,284.625 38.611 C 286.269 39.931,286.976 40.095,287.853 39.357 C 289.358 38.091,288.507 36.821,284.180 33.879 C 279.656 30.804,273.081 28.441,267.840 28.008 L 266.245 27.876 266.351 26.096 C 266.736 19.584,264.680 12.789,260.903 8.094 C 257.005 3.248,248.216 -1.359,246.378 0.479 M24.902 0.616 C 23.710 1.268,23.680 2.566,24.830 3.813 L 25.636 4.687 24.807 5.587 C 22.750 7.818,25.232 10.176,27.399 8.050 L 28.242 7.222 28.819 7.827 C 30.030 9.102,31.238 9.265,32.029 8.259 C 32.678 7.434,32.546 6.571,31.616 5.562 L 30.810 4.687 31.616 3.813 C 33.698 1.554,31.372 -0.853,29.142 1.253 L 28.229 2.116 27.306 1.253 C 26.346 0.355,25.695 0.183,24.902 0.616 M205.143 3.302 C 201.273 4.290,199.863 9.247,202.684 11.949 C 206.511 15.616,212.611 12.098,211.317 6.971 C 210.682 4.459,207.656 2.660,205.143 3.302 M255.078 7.336 C 260.270 11.307,262.888 17.201,262.890 24.928 C 262.891 27.979,262.918 27.920,261.504 27.927 C 261.010 27.930,260.992 27.887,260.878 26.416 C 260.406 20.360,257.514 12.318,253.803 6.746 C 253.350 6.065,253.519 6.143,255.078 7.336 M207.437 7.212 C 208.219 7.994,208.139 9.023,207.243 9.711 C 206.331 10.411,204.688 9.541,204.688 8.357 C 204.688 7.615,205.630 6.641,206.348 6.641 C 206.660 6.641,207.093 6.867,207.437 7.212 M83.339 10.516 C 80.948 12.937,80.745 13.312,81.282 14.319 C 82.164 15.975,83.232 15.675,85.879 13.028 C 88.379 10.528,88.684 9.760,87.607 8.683 C 86.558 7.634,85.912 7.911,83.339 10.516 M89.883 8.599 C 88.719 9.684,89.019 10.433,91.661 13.040 C 94.165 15.510,94.794 15.770,95.810 14.755 C 96.888 13.677,96.583 12.910,94.082 10.410 C 91.644 7.971,90.901 7.651,89.883 8.599 M229.545 11.075 C 228.162 11.342,227.945 13.078,229.134 14.368 L 229.948 15.251 229.134 16.080 C 227.046 18.208,229.362 20.544,231.555 18.523 L 232.437 17.709 233.220 18.474 C 235.396 20.598,237.821 18.196,235.759 15.959 L 234.995 15.130 235.759 14.311 C 237.789 12.135,235.441 9.814,233.318 11.897 L 232.500 12.700 231.924 12.088 C 231.447 11.581,230.242 10.864,230.036 10.964 C 230.005 10.979,229.784 11.029,229.545 11.075 M284.766 13.029 C 284.040 13.294,283.594 13.938,283.594 14.721 C 283.594 15.883,287.009 19.336,288.158 19.336 C 290.599 19.336,290.624 17.550,288.219 15.081 C 286.258 13.068,285.649 12.706,284.766 13.029 M294.629 13.081 C 293.581 13.527,290.586 16.923,290.586 17.666 C 290.586 18.688,291.231 19.336,292.249 19.336 C 293.151 19.336,296.743 16.078,296.932 15.088 C 297.200 13.688,295.889 12.546,294.629 13.081 M6.568 17.853 C 2.321 19.433,2.056 25.563,6.151 27.470 C 10.288 29.397,14.693 25.565,13.385 21.178 C 12.576 18.469,9.260 16.851,6.568 17.853 M285.616 21.912 C 283.326 24.166,283.054 24.868,284.073 25.888 C 285.077 26.892,285.752 26.630,288.027 24.355 C 290.335 22.047,290.522 21.546,289.468 20.493 C 288.426 19.450,287.933 19.632,285.616 21.912 M291.280 20.199 C 289.982 21.137,290.351 22.319,292.644 24.568 C 294.937 26.817,296.559 27.000,296.931 25.053 C 297.305 23.099,292.719 19.159,291.280 20.199 M9.514 21.533 C 10.111 22.185,10.218 22.752,9.871 23.422 C 9.026 25.057,6.771 24.467,6.771 22.610 C 6.771 21.322,8.647 20.586,9.514 21.533 M44.922 21.508 C 19.274 24.455,3.185 50.923,12.427 74.965 C 21.321 98.102,49.377 107.250,70.313 93.840 C 73.937 91.518,74.749 89.946,72.834 88.956 C 71.949 88.498,71.652 88.598,69.413 90.105 C 47.324 104.977,18.314 92.582,13.776 66.332 C 13.343 63.824,13.371 63.155,13.916 63.034 C 14.158 62.981,15.410 62.628,16.699 62.251 C 36.268 56.521,61.798 56.332,82.471 61.763 L 84.766 62.366 84.762 62.970 C 84.742 66.362,83.211 72.181,81.289 76.172 C 79.883 79.090,79.873 79.898,81.232 80.461 C 82.928 81.164,84.578 78.712,86.487 72.656 C 94.976 45.723,72.705 18.316,44.922 21.508 M52.051 25.008 C 63.189 26.058,73.250 32.110,79.152 41.309 C 82.018 45.777,84.730 53.859,84.762 58.028 L 84.766 58.536 82.568 57.968 C 61.995 52.649,33.679 53.069,14.844 58.972 C 14.146 59.191,13.521 59.371,13.456 59.372 C 13.138 59.379,13.908 53.824,14.558 51.428 C 19.070 34.794,35.211 23.420,52.051 25.008 M220.027 34.865 C 223.531 35.753,226.569 38.148,228.119 41.246 C 229.388 43.781,229.759 43.963,232.031 43.164 C 232.979 42.831,234.570 42.636,234.570 42.853 C 234.570 42.897,234.170 43.534,233.680 44.269 C 228.776 51.632,226.529 63.724,228.633 71.423 C 228.793 72.008,227.735 72.200,225.914 71.918 C 222.903 71.452,220.367 69.513,219.033 66.657 C 218.271 65.026,217.864 64.648,216.866 64.648 C 216.375 64.648,216.168 64.827,214.391 66.789 C 211.563 69.912,206.092 69.023,204.188 65.131 C 202.812 62.319,203.673 58.908,206.197 57.168 C 208.070 55.876,208.286 55.108,207.225 53.516 C 201.182 44.441,209.573 32.217,220.027 34.865 M68.750 36.001 C 58.473 39.625,51.212 45.493,53.217 48.554 C 54.436 50.415,61.829 52.528,68.297 52.865 C 73.857 53.154,75.337 50.293,73.910 42.010 C 72.840 35.801,72.022 34.847,68.750 36.001 M25.464 35.968 C 24.246 37.313,22.778 45.182,23.131 48.473 C 23.585 52.712,25.932 53.598,33.594 52.425 C 41.420 51.227,45.247 49.144,44.528 46.474 C 43.478 42.574,27.470 33.752,25.464 35.968 M29.567 40.133 C 34.215 42.007,40.929 46.259,40.274 46.914 C 40.062 47.126,37.027 48.151,36.133 48.313 L 35.449 48.436 35.425 47.391 C 35.323 43.040,32.031 43.222,32.031 47.579 C 32.031 49.253,32.162 49.168,29.311 49.341 L 27.194 49.470 26.849 48.943 C 26.225 47.992,27.101 39.453,27.823 39.453 C 27.855 39.453,28.639 39.759,29.567 40.133 M70.318 42.369 C 70.814 44.960,70.931 48.608,70.533 49.089 C 70.236 49.448,69.387 49.496,66.947 49.290 L 65.476 49.165 65.390 47.581 C 65.160 43.315,62.296 43.011,61.959 47.217 L 61.859 48.456 61.252 48.330 C 59.761 48.020,57.065 47.017,57.157 46.806 C 57.718 45.518,62.927 42.260,67.383 40.410 C 70.003 39.322,69.696 39.117,70.318 42.369 M289.913 40.428 C 288.806 40.875,288.589 42.108,289.404 43.313 C 291.387 46.241,292.197 46.889,293.334 46.457 C 294.808 45.896,294.722 44.557,293.068 42.354 C 291.623 40.428,290.943 40.013,289.913 40.428 M247.800 46.111 C 241.422 47.614,239.334 58.271,244.421 63.358 C 249.497 68.434,257.025 63.897,257.025 55.762 C 257.025 49.570,252.631 44.973,247.800 46.111 M278.418 46.299 C 273.387 48.070,271.145 55.167,273.814 60.872 C 276.591 66.806,283.968 66.968,286.901 61.159 C 290.744 53.547,285.237 43.899,278.418 46.299 M250.270 49.601 C 254.670 51.273,254.448 60.595,249.976 61.943 C 248.243 62.465,246.013 60.641,245.345 58.154 L 245.149 57.422 246.061 57.419 C 249.479 57.407,250.649 52.699,247.618 51.153 C 246.098 50.377,248.546 48.945,250.270 49.601 M281.759 49.815 C 285.822 51.781,285.543 60.225,281.361 61.822 C 279.210 62.643,276.894 60.526,276.263 57.161 L 276.128 56.443 276.980 56.930 C 278.066 57.551,279.439 57.587,280.446 57.021 C 283.449 55.333,282.254 50.781,278.807 50.781 C 277.736 50.781,277.826 50.467,279.088 49.800 C 279.998 49.319,280.742 49.323,281.759 49.815 M263.477 60.424 C 261.196 60.922,259.006 62.665,256.601 65.896 C 252.229 71.769,252.315 76.966,256.819 79.078 L 257.910 79.590 265.039 79.590 L 272.168 79.590 273.273 79.072 C 278.548 76.599,277.594 69.250,271.203 63.118 C 268.548 60.571,266.334 59.799,263.477 60.424 M267.001 64.165 C 270.503 65.976,274.351 73.165,272.840 75.072 C 272.008 76.122,271.653 76.172,265.039 76.172 C 256.415 76.172,255.522 75.547,257.672 71.020 C 260.343 65.396,264.077 62.652,267.001 64.165 M77.807 82.282 C 77.579 82.413,77.142 82.827,76.837 83.203 C 76.532 83.579,75.862 84.355,75.348 84.928 C 73.811 86.641,74.221 88.477,76.141 88.477 C 77.138 88.477,80.066 85.563,80.398 84.241 C 80.746 82.854,79.051 81.572,77.807 82.282 M4.541 82.666 C 3.650 83.620,3.778 84.466,5.006 85.753 L 5.668 86.446 5.063 87.022 C 3.789 88.233,3.626 89.441,4.631 90.232 C 5.456 90.881,6.320 90.749,7.329 89.819 L 8.203 89.013 9.078 89.819 C 10.083 90.745,10.950 90.881,11.766 90.239 C 12.717 89.491,12.546 88.146,11.357 87.028 L 10.752 86.459 11.521 85.624 C 13.717 83.242,11.446 80.850,9.069 83.040 L 8.187 83.854 7.357 83.040 C 6.353 82.055,5.248 81.908,4.541 82.666 M89.934 83.697 C 86.575 84.941,85.500 89.327,87.889 92.042 C 91.646 96.309,98.416 92.471,96.783 86.998 C 95.968 84.268,92.678 82.682,89.934 83.697 M93.045 87.489 C 93.643 88.088,93.573 89.192,92.899 89.771 C 91.753 90.758,90.156 90.043,90.156 88.544 C 90.156 87.085,91.977 86.421,93.045 87.489 M205.754 88.158 C 201.978 89.916,201.950 95.476,205.707 97.348 C 209.171 99.074,213.087 96.644,213.080 92.773 C 213.073 88.924,209.263 86.523,205.754 88.158 M209.163 91.707 C 210.138 92.650,209.394 94.401,208.018 94.401 C 206.646 94.401,205.888 92.568,206.885 91.660 C 207.711 90.908,208.351 90.922,209.163 91.707 M347.701 100.131 C 347.013 100.407,346.875 101.274,346.874 105.313 L 346.872 109.277 345.225 105.694 C 344.319 103.723,343.419 101.990,343.224 101.843 C 342.197 101.063,340.430 101.931,340.430 103.216 C 340.430 103.387,341.229 105.289,342.206 107.442 C 343.183 109.595,343.952 111.381,343.915 111.411 C 343.878 111.442,343.013 111.577,341.992 111.711 C 331.097 113.144,320.663 119.370,315.010 127.811 C 305.433 142.113,310.094 161.036,325.487 170.352 C 326.765 171.126,326.752 170.981,325.773 173.557 C 320.598 187.165,330.889 200.000,346.973 200.000 C 362.354 200.000,372.405 188.547,368.919 174.993 L 368.239 172.349 369.910 171.422 C 385.088 162.998,391.183 146.088,384.292 131.524 C 383.133 129.074,381.924 128.410,380.753 129.581 C 380.073 130.261,380.143 131.000,381.061 132.826 C 387.265 145.164,382.466 159.483,369.372 167.710 L 367.676 168.775 367.526 167.737 C 367.270 165.967,367.539 164.004,368.402 161.354 C 369.796 157.075,369.482 154.555,367.254 152.149 C 365.716 150.488,364.892 150.159,358.974 148.844 C 354.185 147.779,353.702 147.633,352.344 146.834 C 348.563 144.609,346.096 144.567,342.402 146.663 C 341.096 147.404,339.702 147.927,336.133 149.017 C 333.608 149.788,331.160 150.641,330.693 150.913 C 327.502 152.769,326.231 156.462,327.444 160.352 C 328.065 162.343,328.270 164.865,327.940 166.455 C 327.662 167.792,327.793 167.765,326.346 166.782 C 313.017 157.731,309.504 141.409,318.259 129.212 C 329.350 113.759,353.717 109.939,370.391 121.039 C 373.021 122.790,374.609 122.693,374.609 120.783 C 374.609 119.740,374.439 119.541,372.374 118.180 C 367.474 114.951,362.069 112.861,356.066 111.876 C 354.610 111.637,353.395 111.430,353.367 111.415 C 353.339 111.401,354.108 109.650,355.076 107.524 C 357.278 102.688,357.287 101.563,355.121 101.563 C 354.049 101.563,353.782 101.931,352.020 105.844 L 350.488 109.247 350.391 104.997 C 350.277 100.039,349.850 99.266,347.701 100.131 M388.143 100.407 C 383.356 102.777,385.004 109.985,390.332 109.985 C 395.736 109.985,397.390 102.594,392.485 100.365 C 391.358 99.853,389.220 99.874,388.143 100.407 M173.527 101.032 C 172.381 102.018,172.757 102.999,175.172 105.327 C 177.248 107.328,177.870 107.511,178.945 106.436 C 179.953 105.429,179.693 104.776,177.379 102.490 C 175.216 100.354,174.590 100.117,173.527 101.032 M182.177 102.295 C 179.810 104.597,179.415 105.700,180.616 106.645 C 181.667 107.472,182.287 107.223,184.410 105.127 C 186.679 102.886,186.933 102.275,186.037 101.210 C 185.052 100.039,184.270 100.259,182.177 102.295 M368.211 102.993 C 366.753 103.803,366.744 106.199,368.196 106.950 C 370.086 107.927,372.103 106.285,371.497 104.262 C 371.112 102.978,369.417 102.323,368.211 102.993 M391.421 103.891 C 391.765 104.235,391.992 104.668,391.992 104.980 C 391.992 105.293,391.765 105.726,391.421 106.070 C 391.077 106.414,390.645 106.641,390.332 106.641 C 390.020 106.641,389.587 106.414,389.243 106.070 C 388.899 105.726,388.672 105.293,388.672 104.980 C 388.672 104.668,388.899 104.235,389.243 103.891 C 389.587 103.547,390.020 103.320,390.332 103.320 C 390.645 103.320,391.077 103.547,391.421 103.891 M106.641 106.768 C 104.803 107.373,104.266 109.188,105.547 110.469 C 107.125 112.047,109.703 110.699,109.293 108.511 C 109.165 107.830,108.230 106.836,107.716 106.836 C 107.572 106.836,107.337 106.799,107.194 106.754 C 107.051 106.709,106.802 106.715,106.641 106.768 M175.066 109.416 C 172.778 111.660,172.400 112.864,173.696 113.773 C 175.346 114.928,180.242 110.365,179.283 108.565 C 178.434 106.972,177.332 107.194,175.066 109.416 M180.616 108.003 C 179.471 108.904,179.773 109.920,181.797 111.977 C 183.967 114.182,184.804 114.514,185.873 113.595 C 187.011 112.617,186.724 111.803,184.450 109.559 C 182.284 107.422,181.671 107.173,180.616 108.003 M305.998 108.010 C 305.013 108.785,305.119 109.824,306.312 111.084 L 306.913 111.719 306.312 112.354 C 305.119 113.613,305.013 114.653,305.998 115.427 C 306.845 116.093,307.960 115.846,308.966 114.768 L 309.437 114.265 310.280 115.043 C 312.436 117.029,314.801 114.654,312.705 112.607 L 311.934 111.854 312.705 110.978 C 314.722 108.687,312.354 106.350,310.173 108.479 L 309.391 109.244 308.508 108.430 C 307.503 107.504,306.793 107.385,305.998 108.010 M131.119 110.624 C 130.239 111.381,130.344 112.467,131.399 113.522 L 132.222 114.345 131.399 115.184 C 129.275 117.348,131.524 119.776,133.735 117.707 L 134.691 116.814 135.469 117.592 C 137.681 119.804,140.181 117.432,138.061 115.132 L 137.255 114.258 138.061 113.383 C 140.077 111.196,137.821 108.952,135.633 110.969 L 134.751 111.782 134.124 111.188 C 132.900 110.030,132.005 109.862,131.119 110.624 M111.759 118.369 C 111.236 118.579,110.672 119.783,110.844 120.324 C 110.909 120.530,113.335 125.555,116.236 131.492 C 119.137 137.428,121.869 143.055,122.308 143.997 L 123.106 145.708 122.092 147.843 C 116.057 160.551,118.001 176.247,126.900 186.663 C 128.814 188.904,131.767 187.333,130.084 184.969 L 129.699 184.428 130.654 184.315 C 135.991 183.683,138.270 176.498,134.400 172.510 C 131.757 169.787,127.235 169.755,124.412 172.440 C 123.468 173.339,123.540 173.426,122.886 170.605 C 117.540 147.530,138.683 126.159,161.816 131.256 C 180.328 135.335,191.816 154.326,186.609 172.238 L 186.302 173.293 185.485 172.466 C 180.591 167.513,172.034 172.274,173.700 179.024 C 174.414 181.919,177.089 184.375,179.527 184.375 C 180.339 184.375,180.257 184.509,178.174 186.588 C 168.700 196.043,154.817 198.869,142.541 193.841 C 139.462 192.580,138.281 192.818,138.281 194.700 C 138.281 197.773,152.324 200.799,160.352 199.457 C 185.524 195.247,198.803 168.641,186.984 146.094 L 185.909 144.043 191.685 132.197 C 197.765 119.728,197.798 119.643,196.890 118.735 C 195.909 117.754,196.018 117.704,183.796 124.776 L 172.377 131.384 170.515 130.516 C 160.241 125.728,148.565 125.891,138.467 130.962 L 136.699 131.850 125.234 125.227 C 111.207 117.124,112.818 117.944,111.759 118.369 M376.660 122.603 C 374.863 123.027,374.942 124.484,376.880 126.656 C 378.771 128.776,379.725 129.036,380.718 127.703 C 381.376 126.819,381.072 126.058,379.341 124.252 C 377.844 122.690,377.413 122.425,376.660 122.603 M120.960 128.943 L 119.634 130.279 118.226 127.493 C 117.451 125.961,116.813 124.647,116.807 124.573 C 116.801 124.500,118.032 125.152,119.541 126.023 L 122.285 127.607 120.960 128.943 M191.080 125.342 C 190.749 126.136,188.873 129.926,188.742 130.067 C 188.697 130.115,188.093 129.591,187.399 128.903 C 186.677 128.187,186.210 127.579,186.308 127.481 C 186.525 127.264,191.066 124.635,191.250 124.621 C 191.325 124.614,191.249 124.939,191.080 125.342 M331.714 129.129 C 323.645 130.014,319.913 138.372,325.193 143.731 C 330.170 148.782,340.081 147.549,343.038 141.510 C 346.248 134.954,340.081 128.211,331.714 129.129 M362.455 129.122 C 354.330 129.997,350.613 138.453,355.997 143.816 C 360.748 148.548,370.090 147.658,373.380 142.160 C 377.333 135.556,371.156 128.185,362.455 129.122 M129.541 131.806 L 133.390 134.023 131.880 135.245 C 130.200 136.607,127.699 139.157,126.367 140.869 C 125.887 141.487,125.444 141.992,125.383 141.992 C 125.323 141.992,124.361 140.098,123.246 137.782 L 121.219 133.573 123.256 131.528 C 124.376 130.403,125.383 129.507,125.493 129.537 C 125.603 129.566,127.425 130.587,129.541 131.806 M184.909 131.491 C 187.303 133.877,187.277 133.322,185.195 137.447 L 183.496 140.812 182.520 139.622 C 181.303 138.139,178.839 135.822,177.089 134.516 C 176.179 133.837,175.840 133.479,176.014 133.381 C 176.155 133.302,177.720 132.396,179.492 131.368 C 181.265 130.339,182.757 129.497,182.809 129.495 C 182.861 129.493,183.806 130.391,184.909 131.491 M336.377 133.002 C 341.439 134.917,341.799 140.403,337.011 142.668 C 331.225 145.405,324.235 140.877,326.679 135.974 C 328.157 133.007,332.708 131.613,336.377 133.002 M366.113 132.687 C 372.258 134.329,372.847 140.779,367.051 142.964 C 361.413 145.089,355.155 140.634,357.332 136.046 C 358.612 133.350,362.716 131.780,366.113 132.687 M333.023 134.295 C 331.469 135.602,333.133 137.957,334.947 137.019 C 335.251 136.862,335.554 136.591,335.621 136.417 C 336.342 134.538,334.511 133.043,333.023 134.295 M360.840 134.015 C 359.645 134.668,359.596 136.419,360.756 137.019 C 361.576 137.443,362.074 137.370,362.710 136.734 C 364.070 135.374,362.507 133.103,360.840 134.015 M196.274 137.094 C 195.435 137.933,195.449 139.364,196.304 140.219 C 197.739 141.654,200.000 140.708,200.000 138.672 C 200.000 137.820,199.912 137.578,199.429 137.094 C 198.946 136.611,198.704 136.523,197.852 136.523 C 196.999 136.523,196.757 136.611,196.274 137.094 M350.601 149.836 C 352.425 150.923,352.485 150.943,357.422 152.035 C 363.468 153.374,363.538 153.396,364.467 154.235 C 366.036 155.652,366.131 156.922,364.948 160.645 C 363.636 164.774,363.763 168.381,365.470 175.488 C 367.147 182.465,365.998 186.905,361.407 191.199 C 349.421 202.412,326.977 194.923,327.789 179.983 C 327.900 177.955,328.068 177.309,329.468 173.535 C 331.547 167.931,332.031 163.956,331.060 160.449 C 330.308 157.731,330.264 157.456,330.449 156.631 C 330.930 154.492,331.762 153.976,337.708 152.133 C 341.388 150.992,342.946 150.410,344.091 149.748 C 346.792 148.187,347.856 148.201,350.601 149.836 M341.067 153.619 C 339.445 154.755,342.207 160.202,344.211 159.819 C 345.716 159.531,345.815 158.308,344.544 155.709 C 343.374 153.316,342.365 152.710,341.067 153.619 M350.735 153.662 C 350.123 154.355,348.633 157.616,348.639 158.248 C 348.653 159.707,350.485 160.467,351.433 159.406 C 352.156 158.598,353.516 155.680,353.516 154.936 C 353.516 153.548,351.608 152.674,350.735 153.662 M134.960 158.972 C 131.090 160.149,129.059 166.406,132.547 166.406 C 133.508 166.406,134.071 165.866,134.270 164.753 C 134.872 161.385,138.748 161.380,139.346 164.746 C 139.781 167.198,142.773 167.004,142.773 164.524 C 142.773 160.721,138.707 157.832,134.960 158.972 M169.146 159.128 C 166.512 160.058,164.424 164.442,165.909 165.927 C 167.041 167.059,168.943 166.233,168.946 164.609 C 168.951 161.427,173.408 161.554,174.006 164.754 C 174.391 166.817,176.967 167.097,177.461 165.129 C 178.416 161.324,173.328 157.652,169.146 159.128 M152.734 170.910 C 150.056 173.209,147.704 173.907,145.197 173.147 C 143.282 172.566,142.188 173.064,142.188 174.518 C 142.188 175.260,143.035 176.367,143.604 176.367 C 143.789 176.367,143.954 176.796,144.113 177.686 C 145.436 185.086,148.298 191.128,151.144 192.525 C 156.796 195.301,162.321 189.192,163.372 179.004 C 163.619 176.610,163.605 176.644,164.468 176.386 C 165.584 176.052,166.016 175.553,166.016 174.600 C 166.016 173.067,164.873 172.509,163.062 173.158 C 160.591 174.043,157.627 173.177,155.540 170.962 C 154.714 170.086,153.716 170.067,152.734 170.910 M130.958 174.330 C 133.086 175.340,133.525 178.194,131.815 179.904 C 128.609 183.110,123.745 178.409,126.818 175.074 C 127.935 173.862,129.413 173.597,130.958 174.330 M182.130 174.330 C 184.217 175.320,184.672 178.218,183.004 179.887 C 179.770 183.120,174.893 178.435,177.991 175.073 C 179.107 173.862,180.585 173.597,182.130 174.330 M157.163 176.342 C 157.719 176.561,158.610 176.798,159.143 176.869 L 160.113 176.998 160.022 177.806 C 158.869 188.039,153.785 193.153,150.820 187.063 C 149.621 184.600,147.656 178.531,147.656 177.291 C 147.656 177.103,148.098 176.937,149.043 176.768 C 150.407 176.524,153.232 175.284,153.695 174.727 C 153.884 174.499,154.106 174.577,155.037 175.199 C 155.651 175.609,156.607 176.123,157.163 176.342 M384.659 176.261 C 383.903 177.017,383.914 182.885,384.673 183.598 C 385.363 184.247,386.453 184.203,387.055 183.503 C 387.501 182.985,387.754 177.647,387.379 176.669 C 387.040 175.785,385.383 175.537,384.659 176.261 M107.511 181.534 C 107.045 181.999,107.031 182.098,107.031 184.863 C 107.031 187.629,107.045 187.727,107.511 188.192 C 108.235 188.916,109.376 188.862,110.041 188.071 C 110.952 186.989,110.763 182.058,109.783 181.305 C 109.232 180.883,108.042 181.002,107.511 181.534 M376.456 184.464 C 376.125 184.795,375.977 185.160,375.977 185.645 C 375.977 187.113,376.457 187.305,380.133 187.305 C 383.223 187.305,383.345 187.289,383.755 186.853 C 384.351 186.219,384.337 184.981,383.728 184.409 C 382.989 183.715,377.160 183.759,376.456 184.464 M388.063 184.181 C 387.214 184.677,387.141 186.173,387.930 186.909 C 388.320 187.273,388.611 187.305,391.504 187.305 C 394.397 187.305,394.687 187.273,395.078 186.909 C 395.883 186.159,395.789 184.644,394.908 184.172 C 394.455 183.930,388.479 183.938,388.063 184.181 M307.816 186.699 C 305.064 187.679,303.713 191.093,305.050 193.688 C 307.502 198.445,314.551 196.824,314.551 191.504 C 314.551 187.761,311.315 185.452,307.816 186.699 M385.039 187.384 C 384.210 187.751,384.180 187.894,384.180 191.379 C 384.180 195.167,384.818 196.222,386.552 195.298 C 387.432 194.829,387.487 194.595,387.494 191.294 C 387.501 187.468,386.925 186.549,385.039 187.384 M131.889 188.042 C 131.002 188.184,130.406 189.530,130.788 190.526 C 131.079 191.283,134.376 193.555,135.184 193.555 C 136.479 193.555,137.269 192.363,136.795 191.127 C 136.423 190.157,132.821 187.893,131.889 188.042 M100.479 188.565 C 99.877 189.168,99.825 190.366,100.373 191.043 C 100.995 191.812,106.104 191.864,107.000 191.110 C 107.807 190.430,107.869 189.296,107.138 188.565 C 106.673 188.100,106.574 188.086,103.809 188.086 C 101.043 188.086,100.945 188.100,100.479 188.565 M110.491 188.479 C 109.826 189.001,109.655 189.844,110.056 190.619 C 110.497 191.472,111.003 191.602,113.895 191.602 L 116.436 191.602 117.007 191.031 C 117.864 190.174,117.689 188.768,116.668 188.303 C 115.761 187.889,111.070 188.023,110.491 188.479 M192.772 188.257 C 187.067 190.128,188.261 198.333,194.238 198.333 C 200.909 198.333,201.193 188.492,194.531 188.159 C 193.833 188.125,193.041 188.168,192.772 188.257 M310.741 190.330 C 311.692 191.343,310.948 193.034,309.551 193.034 C 308.765 193.034,308.008 192.226,308.008 191.386 C 308.008 190.021,309.800 189.329,310.741 190.330 M107.436 191.530 C 106.768 192.380,106.825 197.468,107.511 198.153 C 108.151 198.793,109.162 198.797,109.901 198.162 C 110.811 197.380,110.852 192.297,109.956 191.401 C 109.351 190.796,107.957 190.868,107.436 191.530 M195.384 192.116 C 196.422 193.155,195.695 194.922,194.229 194.922 C 193.755 194.922,193.459 194.767,193.084 194.321 C 191.736 192.719,193.906 190.639,195.384 192.116 M87.669 200.544 C 85.173 201.841,84.269 205.055,85.674 207.636 C 88.169 212.220,95.313 210.324,95.313 205.078 C 95.313 201.191,91.162 198.729,87.669 200.544 M200.815 200.452 C 199.835 201.495,200.154 202.360,202.315 204.521 C 204.508 206.713,205.319 207.003,206.357 205.966 C 207.394 204.928,207.104 204.117,204.911 201.925 C 202.735 199.748,201.794 199.410,200.815 200.452 M209.412 202.022 C 207.332 204.136,207.125 204.547,207.649 205.530 C 208.490 207.110,209.594 206.859,211.939 204.556 C 214.048 202.484,214.343 201.890,213.794 200.829 C 212.986 199.266,211.810 199.586,209.412 202.022 M249.895 200.462 C 244.808 202.831,246.454 210.433,252.051 210.422 C 257.707 210.412,259.335 202.863,254.199 200.461 C 252.872 199.840,251.229 199.841,249.895 200.462 M277.305 202.548 C 276.385 203.467,276.600 204.225,278.255 205.892 L 279.569 207.216 278.138 208.691 C 276.786 210.086,276.714 210.204,276.822 210.869 C 277.169 213.006,278.944 213.002,281.044 210.859 L 282.108 209.774 283.513 211.137 C 284.980 212.559,285.481 212.757,286.390 212.273 C 287.803 211.520,287.678 210.310,286.007 208.579 L 284.710 207.235 286.007 205.860 C 287.521 204.255,287.738 203.346,286.825 202.433 C 285.906 201.513,285.068 201.736,283.501 203.316 L 282.149 204.678 280.744 203.316 C 279.057 201.680,278.334 201.519,277.305 202.548 M5.191 203.581 C 3.439 205.332,8.400 210.831,10.368 209.320 C 11.648 208.338,11.349 207.336,9.112 205.108 C 6.966 202.971,6.127 202.644,5.191 203.581 M15.332 203.495 C 14.465 204.040,11.965 206.659,11.742 207.254 C 11.311 208.406,12.117 209.570,13.345 209.570 C 14.564 209.570,18.058 206.088,18.058 204.874 C 18.058 203.400,16.631 202.678,15.332 203.495 M90.824 203.615 C 91.871 204.157,92.111 205.290,91.357 206.134 C 90.744 206.821,90.074 206.926,89.312 206.456 C 87.542 205.363,88.980 202.662,90.824 203.615 M253.110 204.021 C 254.090 204.846,253.873 206.232,252.684 206.732 C 250.959 207.457,249.631 205.417,250.962 204.087 C 251.670 203.378,252.323 203.359,253.110 204.021 M67.209 204.992 C 65.646 206.308,66.571 208.985,68.588 208.984 C 70.333 208.982,71.396 207.639,70.917 206.040 C 70.451 204.486,68.475 203.927,67.209 204.992 M202.439 208.995 C 200.176 211.223,199.812 212.117,200.776 213.081 C 201.842 214.147,202.735 213.804,205.057 211.437 C 207.442 209.005,207.539 207.389,205.318 207.091 L 204.488 206.979 202.439 208.995 M207.993 207.602 C 206.921 208.673,207.335 209.694,209.787 212.028 C 211.632 213.785,212.679 214.094,213.524 213.131 C 214.465 212.059,214.191 211.222,212.243 209.222 C 209.931 206.848,209.073 206.522,207.993 207.602 M8.301 210.522 C 4.721 212.747,3.519 216.602,6.404 216.602 C 7.379 216.602,10.883 213.194,11.064 212.070 C 11.299 210.615,9.643 209.688,8.301 210.522 M12.257 210.542 C 11.055 211.488,11.451 212.591,13.818 214.893 C 16.119 217.131,17.564 217.237,18.068 215.207 C 18.545 213.282,13.709 209.400,12.257 210.542 M22.852 215.138 C 18.120 216.418,14.776 219.896,12.793 225.600 C 12.335 226.916,12.206 227.106,11.625 227.316 C 8.455 228.462,5.879 237.435,5.531 248.538 C 5.312 255.525,7.958 259.656,13.384 260.794 C 14.345 260.996,14.462 261.071,14.360 261.420 C 12.294 268.438,12.771 274.475,15.869 280.535 C 17.045 282.836,17.394 283.203,18.405 283.203 C 20.242 283.203,20.553 281.822,19.255 279.425 C 9.455 261.313,27.946 241.461,53.887 242.244 C 78.176 242.977,94.565 261.461,86.110 278.587 C 77.551 295.924,49.181 301.890,30.098 290.367 C 27.976 289.085,27.125 288.940,26.382 289.731 C 24.946 291.259,26.289 292.628,31.836 295.289 C 49.145 303.590,71.993 300.169,84.082 287.465 C 91.315 279.865,93.450 271.139,90.514 261.184 C 90.418 260.858,90.478 260.719,90.749 260.639 C 95.820 259.129,98.249 255.041,97.983 248.464 C 97.535 237.373,95.127 228.940,91.963 227.374 C 91.193 226.993,91.100 226.856,90.524 225.243 C 86.211 213.165,73.880 211.114,65.321 221.052 C 62.074 224.822,58.457 231.549,56.476 237.500 L 56.054 238.770 51.758 238.778 L 47.462 238.786 47.139 237.899 C 42.505 225.169,37.248 218.063,30.630 215.586 C 28.641 214.841,24.773 214.618,22.852 215.138 M296.387 216.485 C 293.994 217.541,294.694 220.898,297.306 220.898 C 299.886 220.898,300.514 217.481,298.118 216.480 C 297.335 216.153,297.137 216.154,296.387 216.485 M27.832 218.459 C 33.249 219.601,38.344 225.482,42.298 235.156 C 43.855 238.964,43.997 239.453,43.550 239.453 C 40.554 239.453,31.173 243.117,27.058 245.894 C 25.297 247.082,25.480 247.086,25.186 245.850 C 23.669 239.451,19.807 231.472,16.903 228.733 L 15.787 227.681 16.220 226.487 C 18.417 220.417,22.787 217.395,27.832 218.459 M80.425 218.769 C 83.491 219.823,85.773 222.367,87.172 226.290 L 87.667 227.678 86.583 228.732 C 83.893 231.347,80.840 237.349,78.840 243.954 L 78.208 246.041 76.946 245.265 C 72.362 242.445,65.213 239.890,60.023 239.216 C 59.608 239.162,59.622 239.094,60.566 236.621 C 65.780 222.971,73.215 216.288,80.425 218.769 M229.883 225.214 C 219.276 226.156,213.561 238.713,219.679 247.636 L 220.268 248.494 219.297 249.980 C 206.313 269.844,221.713 294.738,249.211 298.337 C 282.811 302.733,307.995 273.668,291.702 249.298 L 290.410 247.366 291.196 245.705 C 296.434 234.623,286.550 222.524,274.749 225.572 C 271.431 226.428,267.397 229.422,266.033 232.039 L 265.571 232.926 264.151 232.683 C 258.662 231.743,251.210 231.834,246.129 232.903 C 245.344 233.068,244.630 233.203,244.544 233.203 C 244.458 233.203,244.051 232.628,243.640 231.925 C 240.942 227.312,235.602 224.707,229.883 225.214 M235.059 229.299 C 237.822 230.352,239.811 232.186,241.148 234.917 C 242.364 237.398,242.372 237.401,245.804 236.624 C 251.368 235.364,257.645 235.230,263.715 236.242 C 267.670 236.902,267.605 236.920,268.640 234.840 C 272.638 226.806,283.908 226.672,287.886 234.611 C 289.692 238.214,289.457 241.961,287.206 245.435 C 285.956 247.365,285.993 247.630,287.854 250.109 C 293.952 258.231,294.874 267.929,290.375 276.638 C 289.481 278.370,289.349 278.541,289.303 278.027 C 287.972 263.273,275.840 252.063,259.403 250.400 C 240.836 248.522,223.662 260.899,222.305 277.136 L 222.168 278.780 221.163 276.841 C 216.683 268.201,217.446 258.633,223.260 250.561 C 224.728 248.523,224.739 248.016,223.348 246.440 C 216.192 238.330,224.983 225.462,235.059 229.299 M229.065 230.561 C 222.292 232.426,220.027 240.953,224.986 245.912 C 229.990 250.916,238.540 248.548,240.334 241.661 C 242.070 234.995,235.711 228.730,229.065 230.561 M275.977 230.555 C 269.140 232.476,266.879 241.002,271.898 245.932 C 277.702 251.633,287.514 247.501,287.498 239.363 C 287.486 233.455,281.620 228.970,275.977 230.555 M14.241 230.973 C 15.744 232.238,18.409 237.013,20.203 241.657 C 21.424 244.818,22.669 249.609,22.269 249.609 C 21.898 249.609,18.650 253.488,17.307 255.535 L 15.918 257.652 14.941 257.531 C 12.581 257.238,10.203 255.376,9.365 253.164 C 8.111 249.854,9.817 236.397,12.056 231.935 C 12.902 230.248,13.215 230.110,14.241 230.973 M90.715 230.782 C 93.265 233.332,95.579 249.994,93.885 253.613 C 93.181 255.118,91.739 256.488,90.289 257.031 C 88.955 257.530,88.868 257.500,88.179 256.316 C 87.071 254.412,85.446 252.392,83.358 250.323 L 81.219 248.205 81.898 245.831 C 84.301 237.433,89.128 229.195,90.715 230.782 M233.191 234.115 C 236.208 235.089,237.889 238.789,236.596 241.611 C 234.036 247.202,225.857 245.478,225.896 239.355 C 225.921 235.559,229.562 232.943,233.191 234.115 M280.076 234.099 C 281.570 234.543,283.185 236.187,283.677 237.764 C 285.401 243.293,278.510 247.456,274.414 243.359 C 270.272 239.218,274.427 232.422,280.076 234.099 M230.166 236.592 C 227.200 237.938,228.185 242.458,231.445 242.458 C 235.334 242.458,235.580 236.698,231.704 236.395 C 231.161 236.353,230.510 236.436,230.166 236.592 M277.034 236.606 C 275.738 237.170,275.002 238.789,275.388 240.224 C 276.019 242.568,278.918 243.265,280.603 241.479 C 282.873 239.072,280.092 235.275,277.034 236.606 M251.408 240.366 C 251.020 240.522,249.023 244.647,249.023 245.293 C 249.023 246.756,250.545 247.585,251.720 246.762 C 252.356 246.317,254.102 242.745,254.102 241.889 C 254.102 240.634,252.706 239.845,251.408 240.366 M257.861 240.674 C 257.081 241.509,257.130 241.933,258.275 244.265 C 259.708 247.187,260.660 247.768,261.929 246.499 C 263.253 245.175,261.008 240.234,259.082 240.234 C 258.493 240.234,258.159 240.355,257.861 240.674 M29.682 253.101 C 20.735 255.965,18.195 267.832,25.121 274.410 C 31.515 280.484,41.526 277.321,43.957 268.459 C 46.446 259.389,38.097 250.408,29.682 253.101 M69.358 253.033 C 60.593 255.473,57.805 267.510,64.453 274.212 C 71.007 280.820,81.917 277.057,83.719 267.568 C 85.412 258.647,77.599 250.740,69.358 253.033 M258.817 253.916 C 272.025 255.252,282.437 263.399,285.194 274.555 C 285.643 276.371,285.822 281.488,285.492 283.043 C 285.262 284.123,281.614 287.183,277.846 289.456 L 277.080 289.918 277.874 288.856 C 282.900 282.133,281.504 271.934,274.618 265.061 C 262.426 252.892,239.885 256.062,232.614 270.968 C 230.080 276.163,229.993 282.854,232.393 287.894 L 232.951 289.065 232.378 288.702 C 230.988 287.822,228.642 286.004,227.318 284.780 L 225.879 283.451 225.888 279.665 C 225.924 264.169,241.303 252.144,258.817 253.916 M35.324 256.658 C 40.306 258.365,42.476 265.407,39.466 270.098 C 36.560 274.626,30.855 275.329,27.272 271.600 C 20.975 265.046,27.027 253.816,35.324 256.658 M73.926 256.351 C 77.923 257.002,81.089 262.078,80.315 266.593 C 79.116 273.587,71.426 276.459,66.851 271.621 C 61.927 266.414,64.446 257.397,71.139 256.270 C 72.160 256.098,72.420 256.106,73.926 256.351 M31.534 261.417 C 31.131 261.820,31.055 262.084,31.055 263.077 L 31.055 264.258 29.874 264.258 C 28.414 264.258,27.734 264.785,27.734 265.918 C 27.734 267.051,28.414 267.578,29.874 267.578 L 31.055 267.578 31.055 268.759 C 31.055 270.243,31.580 270.902,32.755 270.892 C 34.012 270.882,34.570 270.167,34.570 268.568 L 34.570 267.578 35.657 267.578 C 37.006 267.578,37.409 267.371,37.685 266.535 C 38.131 265.183,37.328 264.258,35.708 264.258 L 34.570 264.258 34.570 263.199 C 34.570 261.195,32.797 260.154,31.534 261.417 M71.111 261.407 C 70.790 261.749,70.640 262.202,70.561 263.068 L 70.454 264.258 69.343 264.258 C 67.947 264.258,67.383 264.744,67.383 265.945 C 67.383 267.097,67.969 267.578,69.374 267.578 L 70.461 267.578 70.545 268.747 C 70.763 271.761,74.023 271.771,74.023 268.759 L 74.023 267.578 75.279 267.578 C 76.741 267.578,77.344 267.083,77.344 265.883 C 77.344 264.788,76.645 264.258,75.204 264.258 L 74.023 264.258 74.023 263.077 C 74.023 261.116,72.308 260.133,71.111 261.407 M259.760 261.434 C 269.459 263.007,276.738 270.190,277.280 278.725 C 277.673 284.915,273.533 290.219,267.536 291.207 C 264.398 291.724,252.556 290.721,250.121 289.731 C 239.425 285.385,240.473 272.083,251.758 268.957 C 262.183 266.068,272.595 275.587,266.383 282.327 C 263.421 285.540,255.349 285.573,251.485 282.387 C 248.188 279.670,250.988 274.890,255.859 274.922 C 257.347 274.932,258.970 275.545,259.008 276.112 C 259.076 277.150,258.691 277.614,257.519 277.910 C 255.171 278.501,255.646 281.381,258.081 281.324 C 263.462 281.197,264.276 273.493,259.078 271.888 C 247.625 268.350,241.160 282.726,252.315 286.926 C 261.474 290.374,269.997 287.338,271.502 280.093 C 273.773 269.152,259.176 261.036,247.559 266.781 C 234.755 273.113,236.883 290.108,250.938 293.772 C 252.174 294.095,258.748 294.679,261.605 294.721 C 262.739 294.738,261.444 294.916,258.786 295.110 C 250.665 295.703,241.597 293.932,239.026 291.252 C 226.381 278.070,240.159 258.256,259.760 261.434 M204.165 271.769 C 202.525 272.483,202.382 275.091,203.938 275.896 C 205.311 276.605,207.381 275.713,207.443 274.385 C 207.549 272.141,206.053 270.948,204.165 271.769 M2.788 272.759 C 1.404 274.143,2.372 276.563,4.310 276.563 C 6.054 276.563,7.080 275.266,6.638 273.622 C 6.191 271.962,4.062 271.485,2.788 272.759 M46.469 277.915 L 45.898 278.486 45.898 281.325 C 45.898 286.530,47.712 288.870,51.740 288.865 C 55.673 288.860,57.431 286.670,57.572 281.597 L 57.658 278.526 57.067 277.935 L 56.475 277.344 51.758 277.344 L 47.040 277.344 46.469 277.915 M54.102 282.135 C 54.102 284.289,53.303 285.405,51.761 285.405 C 50.164 285.405,49.416 284.407,49.415 282.275 L 49.414 280.859 51.758 280.859 L 54.102 280.859 54.102 282.135 M19.927 283.979 C 18.909 284.997,19.224 285.970,21.187 287.874 C 23.032 289.663,24.367 289.809,24.995 288.293 C 25.837 286.261,21.411 282.495,19.927 283.979 M89.796 287.300 C 88.843 288.050,89.017 289.393,90.213 290.517 L 90.825 291.093 90.067 291.885 C 88.874 293.129,88.877 294.419,90.074 295.038 C 90.880 295.454,91.594 295.244,92.489 294.327 L 93.244 293.554 93.937 294.215 C 96.317 296.487,98.868 294.291,96.647 291.882 L 95.833 290.999 96.647 290.170 C 98.762 288.015,96.455 285.673,94.234 287.720 L 93.359 288.526 92.485 287.720 C 91.480 286.794,90.612 286.658,89.796 287.300 M290.918 288.435 C 289.431 288.740,289.196 290.442,290.462 291.732 L 291.276 292.562 290.462 293.444 C 288.289 295.802,290.823 298.196,293.063 295.902 L 293.819 295.128 294.753 296.002 C 297.151 298.245,299.287 295.620,297.015 293.220 L 296.422 292.592 297.234 291.711 C 299.338 289.428,296.780 287.055,294.610 289.277 L 293.865 290.040 293.162 289.353 C 292.432 288.641,291.592 288.297,290.918 288.435 M6.704 289.858 C 2.854 290.593,1.265 295.451,3.928 298.341 C 7.162 301.850,12.876 299.669,12.884 294.922 C 12.891 291.555,10.042 289.220,6.704 289.858 M206.738 289.884 C 203.955 290.857,202.527 294.283,203.781 296.977 C 206.173 302.114,213.740 300.478,213.740 294.824 C 213.740 291.158,210.213 288.669,206.738 289.884 M8.936 293.799 C 9.803 294.608,9.369 296.117,8.143 296.551 C 7.560 296.757,6.538 296.204,6.260 295.532 C 5.564 293.853,7.589 292.541,8.936 293.799 M209.677 293.643 C 210.402 294.369,210.390 295.376,209.646 296.045 C 208.074 297.460,205.912 295.230,207.407 293.735 C 208.135 293.007,209.005 292.971,209.677 293.643 M169.791 301.835 C 168.263 303.149,172.053 308.190,174.213 307.716 C 176.249 307.269,176.048 305.854,173.601 303.407 C 171.327 301.133,170.840 300.932,169.791 301.835 M178.117 303.240 C 176.088 305.234,175.832 305.722,176.268 306.766 C 176.574 307.497,177.598 307.931,178.341 307.643 C 179.173 307.320,182.422 303.829,182.422 303.258 C 182.422 302.512,182.051 301.830,181.512 301.584 C 180.468 301.108,180.108 301.284,178.117 303.240 M348.068 303.857 C 347.841 304.045,344.925 309.561,341.590 316.113 C 334.579 329.885,335.526 328.365,334.180 328.008 C 331.116 327.197,328.123 329.351,328.053 332.420 L 328.027 333.514 323.242 334.139 C 298.277 337.401,299.994 337.069,300.003 338.634 C 300.007 339.366,299.156 338.460,311.671 351.062 C 321.144 360.600,323.033 362.591,322.951 362.949 C 322.702 364.035,317.188 394.124,317.188 394.397 C 317.188 394.566,317.399 394.950,317.656 395.250 C 318.545 396.282,318.566 396.274,332.111 389.362 L 344.593 382.994 345.099 383.467 C 346.727 384.991,349.537 385.247,351.265 384.029 L 352.169 383.392 364.237 389.938 C 376.526 396.604,376.964 396.806,377.952 396.277 C 378.838 395.803,378.841 395.834,376.273 379.516 C 374.927 370.963,373.785 363.785,373.735 363.565 C 373.663 363.243,375.668 361.243,383.917 353.408 C 389.567 348.043,394.882 342.993,395.729 342.188 C 397.110 340.873,397.268 340.649,397.267 340.001 C 397.264 338.351,397.980 338.544,383.080 336.190 L 369.773 334.088 369.678 332.907 C 369.409 329.558,366.259 327.494,363.112 328.604 L 362.308 328.888 361.651 327.481 C 357.299 318.157,350.474 304.124,350.162 303.857 C 349.941 303.669,349.473 303.516,349.121 303.516 C 348.769 303.516,348.295 303.669,348.068 303.857 M103.711 307.741 C 101.891 309.031,102.605 311.719,104.767 311.719 C 107.550 311.719,107.816 307.775,105.052 307.485 C 104.438 307.420,104.062 307.492,103.711 307.741 M173.145 308.394 C 172.049 308.859,169.247 312.091,169.247 312.889 C 169.247 313.952,169.841 314.542,170.911 314.542 C 171.999 314.542,175.586 311.038,175.586 309.976 C 175.586 308.769,174.269 307.916,173.145 308.394 M176.993 308.408 C 175.447 309.028,175.854 310.574,178.163 312.848 C 180.171 314.825,180.866 315.063,181.827 314.102 C 182.907 313.021,182.730 312.536,180.410 310.215 C 178.333 308.139,178.044 307.986,176.993 308.408 M355.545 322.656 L 359.714 331.348 358.025 333.061 L 356.336 334.774 355.200 334.383 C 351.371 333.066,346.434 333.035,342.211 334.303 C 341.311 334.573,340.510 334.721,340.430 334.633 C 340.228 334.409,338.189 331.597,338.011 331.297 C 337.879 331.075,341.821 323.125,347.313 312.536 L 349.067 309.155 350.221 311.560 C 350.856 312.883,353.252 317.876,355.545 322.656 M389.151 309.659 C 388.682 310.128,388.672 310.205,388.672 313.281 C 388.672 316.896,388.869 317.383,390.332 317.383 C 391.795 317.383,391.992 316.896,391.992 313.281 C 391.992 309.667,391.795 309.180,390.332 309.180 C 389.848 309.180,389.482 309.328,389.151 309.659 M128.329 311.289 C 127.468 312.150,127.525 312.867,128.541 313.969 L 129.347 314.844 128.541 315.718 C 126.542 317.886,128.793 320.138,130.961 318.139 L 131.836 317.333 132.710 318.139 C 134.906 320.163,137.123 317.739,135.033 315.599 L 134.311 314.859 135.124 313.977 C 137.109 311.824,134.856 309.571,132.703 311.555 L 131.820 312.369 131.081 311.646 C 130.024 310.615,129.121 310.498,128.329 311.289 M305.419 313.278 C 304.357 314.114,304.568 315.182,306.108 316.748 L 307.116 317.773 306.119 318.799 C 303.285 321.716,305.509 324.246,308.396 321.389 L 309.570 320.228 310.595 321.224 C 312.262 322.844,312.945 323.023,313.882 322.085 C 314.812 321.155,314.680 320.515,313.250 319.026 L 312.047 317.773 313.250 316.521 C 314.506 315.214,314.671 314.754,314.232 313.792 C 313.649 312.511,312.260 312.675,310.699 314.209 L 309.582 315.308 308.324 314.099 C 306.929 312.760,306.303 312.583,305.419 313.278 M381.445 317.440 C 380.422 317.958,380.229 319.467,381.086 320.243 C 381.776 320.867,387.780 320.785,388.299 320.144 C 388.983 319.299,388.767 317.934,387.877 317.473 C 387.150 317.098,382.173 317.072,381.445 317.440 M392.773 317.440 C 391.750 317.958,391.557 319.467,392.414 320.243 C 393.104 320.867,399.108 320.785,399.627 320.144 C 400.311 319.299,400.095 317.934,399.205 317.473 C 398.478 317.098,393.502 317.072,392.773 317.440 M389.151 320.987 C 388.682 321.456,388.672 321.533,388.672 324.609 C 388.672 328.224,388.869 328.711,390.332 328.711 C 391.795 328.711,391.992 328.224,391.992 324.609 C 391.992 320.995,391.795 320.508,390.332 320.508 C 389.848 320.508,389.482 320.656,389.151 320.987 M112.109 321.291 C 97.179 325.307,95.628 346.173,109.829 351.964 C 110.771 352.348,110.952 352.496,110.880 352.825 C 109.191 360.512,109.305 362.500,111.435 362.500 C 112.560 362.500,112.917 361.844,113.217 359.231 C 116.055 334.496,143.642 320.110,166.699 331.342 C 181.483 338.544,189.515 354.257,186.202 369.498 C 185.872 371.020,185.740 371.070,185.348 369.824 C 183.284 363.275,176.503 356.089,168.848 352.338 C 147.937 342.094,121.365 351.968,115.539 372.147 L 115.090 373.706 114.694 372.812 C 114.047 371.349,112.424 371.110,111.606 372.358 C 110.261 374.411,115.628 382.615,121.033 386.770 C 133.481 396.339,157.331 398.022,172.949 390.434 C 187.347 383.439,192.972 370.355,189.120 352.825 C 189.048 352.496,189.229 352.348,190.171 351.964 C 201.318 347.418,203.505 332.088,194.101 324.420 C 186.939 318.581,175.593 320.172,170.605 327.716 C 170.176 328.366,169.736 328.861,169.629 328.817 C 169.521 328.773,168.433 328.284,167.209 327.731 C 155.948 322.642,142.252 322.865,131.458 328.314 C 130.785 328.654,130.215 328.904,130.193 328.870 C 127.514 324.870,124.864 322.785,120.801 321.481 C 118.783 320.833,114.184 320.733,112.109 321.291 M120.020 324.895 C 122.612 325.764,124.799 327.320,126.305 329.367 C 127.329 330.757,127.326 330.690,126.379 331.317 L 125.610 331.826 124.624 331.162 C 117.228 326.185,107.848 333.287,110.735 341.678 C 111.170 342.943,112.302 344.729,113.071 345.363 L 113.601 345.801 113.031 347.061 C 112.717 347.754,112.384 348.523,112.290 348.770 L 112.119 349.218 111.017 348.731 C 102.867 345.126,100.798 334.480,107.013 328.128 C 110.441 324.624,115.477 323.373,120.020 324.895 M187.791 324.896 C 198.907 328.627,199.675 344.002,188.982 348.731 L 187.877 349.220 187.472 348.292 C 187.249 347.781,186.916 347.015,186.731 346.590 L 186.395 345.817 186.931 345.366 C 187.710 344.711,188.831 342.939,189.265 341.678 C 192.152 333.287,182.772 326.185,175.376 331.162 L 174.390 331.826 173.621 331.317 C 172.665 330.684,172.661 330.743,173.779 329.266 C 177.019 324.987,182.744 323.201,187.791 324.896 M333.578 331.437 C 333.770 331.539,335.038 333.156,336.396 335.029 C 339.439 339.225,339.286 339.146,342.163 338.002 C 346.269 336.368,350.028 336.307,354.425 337.802 C 357.390 338.810,356.967 338.989,360.961 335.035 C 364.704 331.329,364.842 331.249,365.869 332.174 C 366.789 333.003,366.426 333.654,363.281 336.823 C 359.727 340.403,359.705 340.471,361.415 342.389 C 363.738 344.992,364.891 347.273,365.828 351.122 C 366.199 352.643,366.432 352.734,369.948 352.734 C 373.471 352.734,374.089 352.964,374.089 354.277 C 374.089 355.583,373.651 355.749,369.923 355.859 C 365.999 355.975,366.203 355.857,365.555 358.400 C 364.773 361.466,363.509 363.836,361.355 366.271 C 359.728 368.110,359.757 368.193,363.264 371.752 C 364.866 373.377,366.194 374.839,366.217 375.000 C 366.358 376.020,365.769 376.758,364.813 376.758 C 364.276 376.758,363.759 376.326,360.840 373.438 C 356.986 369.624,357.212 369.724,354.578 370.681 C 353.725 370.991,352.532 371.347,351.926 371.472 C 350.107 371.846,350.107 371.846,350.038 376.577 L 349.978 380.653 349.474 381.049 C 347.678 382.462,347.070 381.337,347.070 376.598 C 347.070 371.892,347.078 371.911,344.876 371.383 C 344.096 371.196,342.710 370.754,341.797 370.402 C 339.209 369.404,339.471 369.241,336.063 373.955 C 334.809 375.690,333.645 377.162,333.477 377.226 C 332.887 377.453,332.400 377.339,331.925 376.864 C 331.062 376.002,331.233 375.581,333.984 371.800 C 336.774 367.966,336.876 367.700,335.986 366.553 C 335.691 366.172,335.020 365.302,334.495 364.619 C 333.233 362.981,332.148 360.680,331.561 358.402 C 330.904 355.855,330.911 355.859,327.532 355.859 C 324.452 355.859,323.633 355.526,323.633 354.271 C 323.633 352.978,324.236 352.734,327.441 352.734 C 330.693 352.734,331.061 352.576,331.328 351.063 C 331.784 348.482,333.241 345.426,335.151 343.046 C 337.087 340.633,337.202 341.125,333.535 336.102 C 331.291 333.028,331.099 332.522,331.870 331.702 C 332.316 331.227,332.991 331.122,333.578 331.437 M120.654 333.117 C 120.950 333.177,121.561 333.402,122.012 333.618 L 122.832 334.010 121.454 335.310 C 119.838 336.834,117.559 339.508,116.391 341.249 C 115.936 341.926,115.526 342.524,115.478 342.578 C 115.293 342.788,114.247 341.281,113.943 340.365 C 112.877 337.155,114.993 333.678,118.412 333.023 C 119.210 332.870,119.501 332.883,120.654 333.117 M182.344 333.231 C 185.922 334.131,187.554 339.227,185.155 342.003 C 184.617 342.626,184.557 342.649,184.357 342.316 C 183.556 340.987,180.839 337.674,179.172 335.994 L 177.191 333.999 178.026 333.595 C 179.544 332.859,180.534 332.776,182.344 333.231 M130.650 334.631 C 125.890 335.972,123.183 341.984,126.049 344.850 C 129.400 348.201,136.362 344.042,136.393 338.672 C 136.410 335.591,133.789 333.747,130.650 334.631 M166.668 334.551 C 162.798 335.540,162.451 340.431,166.010 343.827 C 172.113 349.648,178.745 343.007,172.923 336.903 C 171.129 335.023,168.578 334.064,166.668 334.551 M331.161 338.746 L 332.563 340.676 331.661 341.871 C 330.462 343.460,329.446 345.435,328.730 347.568 L 328.143 349.316 325.839 349.416 C 324.443 349.477,323.343 349.621,323.047 349.783 C 321.369 350.698,320.380 352.124,320.273 353.782 L 320.215 354.685 312.838 347.313 C 306.720 341.199,305.537 339.931,305.904 339.881 C 320.130 337.946,329.086 336.766,329.381 336.788 C 329.618 336.806,330.282 337.537,331.161 338.746 M379.949 339.164 C 386.398 340.187,391.702 341.051,391.735 341.084 C 391.768 341.117,388.587 344.194,384.667 347.922 C 377.958 354.303,377.539 354.665,377.539 354.082 C 377.539 351.056,375.410 349.425,371.449 349.418 L 368.973 349.414 368.647 348.291 C 367.955 345.904,366.781 343.590,365.204 341.504 L 364.466 340.527 366.067 338.916 C 366.947 338.030,367.792 337.305,367.946 337.305 C 368.099 337.305,373.500 338.141,379.949 339.164 M132.970 338.611 C 133.130 340.262,130.690 342.701,129.038 342.541 C 128.250 342.464,128.103 341.618,128.683 340.493 C 129.801 338.322,132.814 336.999,132.970 338.611 M169.004 338.205 C 171.204 339.314,172.590 342.383,170.962 342.541 C 169.376 342.694,166.992 340.397,166.992 338.714 C 166.992 337.794,167.787 337.593,169.004 338.205 M148.633 342.508 C 148.364 342.562,147.459 342.819,146.621 343.080 C 144.883 343.621,143.093 343.688,141.895 343.256 C 139.799 342.501,138.154 344.356,139.551 345.899 C 140.596 347.053,144.836 347.329,147.535 346.418 C 149.598 345.721,151.381 345.715,153.459 346.399 C 158.488 348.052,164.142 346.281,162.104 343.690 C 161.519 342.946,161.112 342.900,159.248 343.367 C 157.343 343.844,156.808 343.808,154.395 343.041 C 152.857 342.552,149.817 342.271,148.633 342.508 M345.952 343.640 C 337.815 345.612,334.906 355.927,340.797 361.916 C 347.636 368.867,359.456 364.038,359.444 354.297 C 359.435 347.166,352.854 341.968,345.952 343.640 M350.301 346.983 C 357.132 348.762,358.096 357.882,351.781 360.988 C 347.223 363.230,341.607 360.073,341.089 354.977 C 340.580 349.964,345.465 345.724,350.301 346.983 M153.634 351.765 C 167.618 352.889,178.924 360.986,182.593 372.505 C 183.785 376.246,183.744 376.479,181.329 379.604 C 168.974 395.596,132.620 396.018,119.230 380.325 C 117.754 378.595,117.714 378.360,118.362 375.180 C 120.907 362.692,133.077 352.984,147.694 351.782 C 150.608 351.543,150.861 351.542,153.634 351.765 M387.452 355.104 C 382.993 355.764,381.908 362.061,385.854 364.374 C 389.560 366.546,394.225 363.253,393.358 359.076 C 392.779 356.289,390.374 354.671,387.452 355.104 M389.124 358.626 C 390.093 359.142,390.317 360.141,389.652 360.987 C 388.863 361.989,387.361 361.744,386.943 360.546 C 386.459 359.158,387.841 357.942,389.124 358.626 M328.615 360.663 C 329.180 362.514,330.332 364.807,331.552 366.508 L 332.551 367.900 330.634 370.522 C 327.903 374.259,327.591 375.108,328.193 377.168 C 329.217 380.666,334.130 381.921,336.441 379.274 C 336.735 378.938,340.404 373.921,340.514 373.705 C 340.521 373.691,341.252 373.910,342.138 374.193 L 343.749 374.707 343.744 377.148 L 343.738 379.590 332.563 385.271 C 326.416 388.395,321.361 390.933,321.329 390.910 C 321.298 390.887,322.462 384.429,323.917 376.558 C 326.981 359.986,326.823 361.465,325.658 360.169 L 324.754 359.164 326.473 359.221 L 328.192 359.277 328.615 360.663 M371.419 360.528 C 369.833 362.171,369.707 360.015,372.372 376.833 C 373.613 384.663,374.602 391.184,374.570 391.325 C 374.532 391.491,370.788 389.562,364.014 385.886 L 353.516 380.190 353.516 377.419 L 353.516 374.647 354.910 374.224 L 356.304 373.800 359.256 376.725 C 363.408 380.839,365.704 381.377,368.249 378.831 C 370.722 376.359,370.269 373.907,366.675 370.294 L 364.423 368.030 365.444 366.681 C 366.620 365.129,368.000 362.409,368.582 360.498 L 368.983 359.180 370.852 359.180 L 372.720 359.180 371.419 360.528 M110.938 364.196 C 110.165 364.489,109.766 365.106,109.767 366.001 C 109.770 367.603,110.154 369.406,110.593 369.873 C 111.511 370.850,113.476 370.124,113.477 368.808 C 113.478 365.557,112.419 363.634,110.938 364.196 M302.831 379.561 C 298.069 381.778,299.564 389.043,304.785 389.057 C 307.053 389.063,308.619 388.127,309.497 386.241 C 311.478 381.987,307.082 377.581,302.831 379.561 M108.487 382.120 C 108.023 382.585,108.008 382.687,108.008 385.406 C 108.008 388.616,108.241 389.141,109.668 389.141 C 111.095 389.141,111.328 388.616,111.328 385.406 C 111.328 382.166,111.096 381.641,109.668 381.641 C 109.184 381.641,108.818 381.789,108.487 382.120 M306.142 383.008 C 307.043 383.909,306.247 385.742,304.955 385.742 C 304.296 385.742,303.320 384.751,303.320 384.082 C 303.320 382.706,305.146 382.012,306.142 383.008 M384.817 384.674 C 383.897 385.318,384.092 386.808,385.238 387.878 L 385.748 388.355 385.182 388.953 C 383.017 391.244,385.090 393.717,387.469 391.680 L 388.290 390.978 389.067 391.680 C 391.197 393.605,393.516 391.455,391.578 389.352 L 390.773 388.479 391.460 387.718 C 393.551 385.404,391.358 383.091,389.022 385.146 L 388.146 385.918 387.393 385.146 C 386.555 384.288,385.614 384.116,384.817 384.674 M188.421 387.183 C 182.970 389.216,184.252 396.970,190.039 396.965 C 195.338 396.960,197.028 389.870,192.304 387.460 C 191.302 386.949,189.411 386.814,188.421 387.183 M101.953 388.721 C 100.872 389.285,100.737 390.840,101.701 391.599 C 102.292 392.063,106.880 392.191,107.679 391.765 C 108.703 391.219,108.903 390.030,108.123 389.122 C 107.568 388.477,102.991 388.180,101.953 388.721 M111.788 388.663 C 110.661 389.138,110.421 390.530,111.313 391.421 L 111.884 391.992 114.551 391.992 L 117.218 391.992 117.813 391.397 C 118.505 390.705,118.489 389.692,117.775 388.977 C 117.331 388.532,112.677 388.288,111.788 388.663 M191.122 390.909 C 191.424 391.211,191.602 391.612,191.602 391.992 C 191.602 393.376,189.818 394.078,188.869 393.068 C 187.458 391.566,189.665 389.452,191.122 390.909 M108.413 391.921 C 107.745 392.769,107.802 397.664,108.487 398.349 C 109.136 398.998,110.307 399.011,110.903 398.376 C 111.574 397.662,111.553 392.467,110.876 391.831 C 110.201 391.197,108.946 391.243,108.413 391.921 ">
        </path>
    </g>
</svg>