<?xml version="1.0" encoding="UTF-8" standalone="no"?>
<svg width="400px" height="400px" viewBox="0 0 400 400" version="1.1" xmlns="http://www.w3.org/2000/svg"
    xmlns:xlink="http://www.w3.org/1999/xlink">
    <title>pokemonset 3</title>
    <defs></defs>
    <style>
        #pokemonset {
            /* fill: currentColor; */
            fill: violet;
            fill-opacity: .25;
            stroke: none;
            fill-rule: evenodd;
        }
    </style>
    <g id="svg">
        <path id="pokemonset"
            d="M87.863 0.373 C 87.395 0.752,87.045 5.773,87.390 7.150 C 87.702 8.394,89.419 8.841,90.341 7.919 C 91.068 7.192,91.090 1.103,90.368 0.425 C 89.783 -0.125,88.511 -0.151,87.863 0.373 M30.167 1.456 C 29.377 2.246,29.496 3.316,30.494 4.399 L 31.300 5.273 30.494 6.148 C 28.359 8.464,30.673 10.856,32.970 8.707 L 33.893 7.845 34.806 8.707 C 35.959 9.797,36.826 9.884,37.710 8.999 C 38.609 8.101,38.409 6.993,37.131 5.778 L 36.531 5.208 37.406 4.272 C 39.510 2.023,37.130 -0.311,34.864 1.778 L 33.994 2.580 33.083 1.778 C 31.960 0.791,30.945 0.678,30.167 1.456 M229.274 5.275 C 228.528 5.711,227.971 8.772,227.800 13.379 C 227.501 21.426,229.519 28.718,233.481 33.907 C 234.299 34.978,234.282 35.027,232.957 35.463 C 230.329 36.328,224.847 39.119,223.714 40.169 C 223.117 40.722,223.068 41.930,223.616 42.605 C 224.282 43.428,225.366 43.231,227.539 41.891 C 238.153 35.343,251.135 34.803,262.598 40.432 C 278.475 48.228,287.907 66.510,281.591 77.246 C 277.975 83.393,264.067 90.004,251.782 91.416 C 237.370 93.072,216.282 85.794,211.290 77.441 C 207.375 70.888,209.208 61.011,215.998 52.074 C 218.318 49.021,218.268 47.656,215.837 47.656 C 214.076 47.656,209.181 55.183,207.365 60.686 C 203.237 73.188,207.102 82.250,219.091 88.181 C 238.032 97.552,257.750 97.220,275.358 87.233 C 285.493 81.485,288.913 73.772,286.124 62.954 C 282.325 48.222,269.238 36.845,252.226 33.486 C 251.862 33.415,251.799 33.222,251.681 31.800 C 250.903 22.480,245.684 14.255,236.794 8.342 C 232.780 5.673,230.314 4.667,229.274 5.275 M6.521 6.749 C 1.292 8.681,2.339 16.556,7.901 17.130 C 13.687 17.728,16.039 9.645,10.853 6.986 C 9.818 6.456,7.638 6.337,6.521 6.749 M262.061 7.913 C 260.041 8.655,258.885 10.400,258.891 12.695 C 258.908 19.292,268.535 19.502,268.900 12.913 C 269.105 9.209,265.571 6.625,262.061 7.913 M79.581 8.683 C 78.903 9.361,78.919 10.506,79.616 11.204 C 80.373 11.960,86.162 12.011,87.025 11.269 C 87.793 10.608,87.804 9.323,87.047 8.672 C 86.193 7.937,80.318 7.946,79.581 8.683 M91.104 8.683 C 90.426 9.361,90.442 10.506,91.140 11.204 C 91.909 11.973,97.687 12.010,98.569 11.251 C 99.343 10.585,99.343 9.337,98.569 8.671 C 97.716 7.937,91.840 7.947,91.104 8.683 M235.305 11.559 C 243.083 16.801,247.027 23.139,248.309 32.455 L 248.408 33.172 247.392 33.067 C 246.151 32.939,241.525 33.307,239.492 33.697 L 238.001 33.982 237.553 33.446 C 233.090 28.107,231.348 22.800,231.348 14.551 C 231.348 8.529,231.094 8.721,235.305 11.559 M9.869 10.949 C 10.811 12.770,8.659 14.354,7.212 12.906 C 6.507 12.201,6.483 11.545,7.136 10.770 C 7.946 9.807,9.325 9.897,9.869 10.949 M265.023 11.629 C 266.004 12.579,265.301 14.258,263.922 14.258 C 262.527 14.258,261.748 12.488,262.744 11.582 C 263.571 10.830,264.210 10.843,265.023 11.629 M87.863 11.896 C 87.393 12.277,87.045 17.299,87.393 18.684 C 87.710 19.948,89.401 20.383,90.341 19.442 C 91.068 18.716,91.090 12.626,90.368 11.948 C 89.783 11.399,88.511 11.372,87.863 11.896 M204.590 13.127 C 203.263 13.887,203.359 15.097,204.869 16.670 L 206.028 17.876 204.869 19.075 C 203.560 20.430,203.372 21.196,204.116 22.142 C 204.874 23.106,205.933 22.890,207.319 21.490 L 208.474 20.323 209.689 21.490 C 212.548 24.235,215.007 21.775,212.219 18.958 L 211.059 17.785 212.268 16.527 C 213.715 15.020,213.839 14.395,212.882 13.437 C 211.996 12.552,211.196 12.744,209.729 14.196 L 208.594 15.319 207.569 14.323 C 206.089 12.885,205.455 12.630,204.590 13.127 M288.956 14.542 C 288.487 15.011,288.477 15.088,288.477 18.164 C 288.477 21.832,288.661 22.266,290.225 22.266 C 291.784 22.266,292.059 21.529,291.959 17.623 C 291.899 15.234,291.864 15.037,291.421 14.566 C 290.775 13.879,289.630 13.868,288.956 14.542 M280.729 22.769 C 280.104 23.394,280.177 24.682,280.869 25.242 C 281.554 25.797,287.441 25.754,288.047 25.190 C 288.852 24.440,288.757 22.925,287.877 22.453 C 286.987 21.977,281.268 22.230,280.729 22.769 M292.202 22.780 C 291.640 23.495,291.672 24.502,292.276 25.107 C 292.745 25.575,292.824 25.586,295.863 25.586 C 299.570 25.586,300.000 25.415,300.000 23.946 C 300.000 22.404,299.657 22.266,295.851 22.266 L 292.606 22.266 292.202 22.780 M48.633 23.643 C 35.693 24.678,24.203 32.181,18.204 43.514 L 17.285 45.250 10.449 42.330 C 2.650 38.998,2.438 38.939,1.546 39.830 L 0.925 40.452 1.061 42.150 C 2.041 54.334,7.288 65.665,14.495 71.162 C 15.063 71.596,15.303 72.019,15.811 73.492 C 23.199 94.913,47.910 105.073,68.219 95.040 C 74.215 92.077,76.292 89.946,74.716 88.370 C 73.884 87.538,73.095 87.702,71.031 89.136 C 55.610 99.852,34.647 96.204,23.690 80.898 C 22.591 79.361,20.638 75.885,20.145 74.585 L 19.951 74.073 21.139 74.443 C 33.552 78.307,45.508 70.826,45.508 59.197 C 45.508 57.133,46.264 57.570,32.813 51.853 C 26.313 49.091,20.931 46.792,20.852 46.745 C 20.678 46.642,21.440 45.103,22.528 43.359 C 34.197 24.662,60.070 21.607,75.560 37.097 C 78.035 39.572,81.950 45.097,81.517 45.504 C 81.424 45.592,75.293 48.240,67.893 51.388 C 52.485 57.943,53.772 57.160,54.011 59.832 C 54.580 66.182,57.746 70.918,63.173 73.538 C 68.756 76.234,76.607 75.952,82.373 72.849 C 83.152 72.429,83.789 72.105,83.789 72.127 C 83.788 72.320,82.790 74.712,82.000 76.413 C 80.964 78.646,80.932 78.998,81.697 79.834 C 82.247 80.435,83.615 80.448,84.205 79.857 C 85.244 78.819,87.760 72.421,88.315 69.406 C 88.533 68.226,88.701 67.896,89.749 66.599 C 94.055 61.265,97.149 53.008,98.336 43.682 C 99.007 38.415,98.585 38.298,90.844 41.602 C 87.824 42.891,85.286 43.944,85.205 43.941 C 85.125 43.939,84.563 43.082,83.956 42.037 C 77.818 31.455,66.876 24.642,54.415 23.640 C 51.686 23.421,51.408 23.421,48.633 23.643 M289.523 25.584 C 288.320 26.070,287.868 32.222,288.956 33.310 C 289.596 33.950,290.608 33.953,291.347 33.318 C 291.976 32.777,292.283 28.304,291.801 26.694 C 291.501 25.694,290.481 25.198,289.523 25.584 M200.664 40.313 C 199.562 41.414,199.789 43.247,201.110 43.922 C 202.220 44.490,203.640 44.051,204.200 42.967 C 205.387 40.672,202.483 38.493,200.664 40.313 M218.859 43.859 C 217.015 45.424,216.687 46.392,217.667 47.372 C 219.119 48.825,223.204 45.801,222.454 43.828 C 221.898 42.368,220.604 42.379,218.859 43.859 M23.636 51.929 L 41.895 59.712 41.835 60.373 C 41.036 69.321,30.752 74.309,20.941 70.509 C 13.285 67.545,7.768 59.026,5.380 46.484 C 5.206 45.571,5.022 44.629,4.971 44.390 C 4.907 44.093,4.957 43.986,5.127 44.051 C 5.264 44.104,13.593 47.649,23.636 51.929 M94.531 44.510 C 94.531 48.295,91.050 58.063,88.120 62.500 C 81.617 72.346,68.533 74.939,61.336 67.808 C 59.065 65.558,56.824 60.345,57.850 59.698 C 58.313 59.405,94.020 44.178,94.287 44.158 C 94.421 44.149,94.531 44.307,94.531 44.510 M290.383 46.399 C 288.433 47.458,289.149 50.563,291.348 50.580 C 292.402 50.588,293.018 50.301,293.425 49.611 C 294.622 47.585,292.441 45.283,290.383 46.399 M224.219 54.286 C 219.793 55.112,216.980 57.721,218.814 59.298 C 219.571 59.949,220.187 59.885,221.668 59.000 C 224.785 57.137,227.825 57.137,231.814 59.000 C 233.722 59.891,234.158 59.933,234.897 59.298 C 235.521 58.761,235.653 57.535,235.152 56.925 C 233.816 55.298,227.264 53.717,224.219 54.286 M261.212 54.392 C 258.055 55.078,255.664 56.618,255.664 57.964 C 255.664 59.734,256.962 60.202,258.815 59.098 C 262.109 57.136,265.150 57.104,269.111 58.989 C 271.062 59.919,271.527 59.949,272.281 59.195 C 274.834 56.641,266.832 53.169,261.212 54.392 M21.191 58.129 C 19.231 58.709,18.555 60.368,19.829 61.475 C 20.430 61.997,20.956 62.022,22.417 61.597 C 25.213 60.784,28.745 62.313,30.034 64.896 C 31.134 67.098,33.789 67.038,33.789 64.811 C 33.789 60.577,26.315 56.612,21.191 58.129 M72.595 58.106 C 68.193 59.316,64.335 64.340,66.444 66.115 C 67.550 67.046,68.537 66.673,69.504 64.959 C 71.103 62.126,74.127 60.817,77.215 61.621 C 80.805 62.556,81.912 59.129,78.343 58.127 C 76.985 57.746,73.944 57.735,72.595 58.106 M243.939 62.789 C 241.063 63.711,238.867 66.691,238.867 69.673 C 238.867 72.406,241.904 72.462,242.266 69.735 C 242.726 66.263,246.332 64.710,248.940 66.860 C 251.038 68.589,250.869 71.355,248.542 73.343 C 246.974 74.682,246.997 75.662,248.625 76.831 C 251.887 79.175,250.335 84.180,246.346 84.180 C 244.180 84.180,242.571 82.679,242.254 80.363 C 242.075 79.061,241.572 78.516,240.547 78.516 C 237.057 78.516,239.141 85.159,243.215 87.017 C 250.008 90.116,256.754 82.259,252.638 76.041 L 251.970 75.031 252.358 74.538 C 256.828 68.855,250.886 60.563,243.939 62.789 M45.801 76.501 C 34.790 76.695,29.493 77.388,28.801 78.725 C 27.064 82.085,30.635 86.170,37.207 88.343 C 50.984 92.896,68.680 89.510,72.251 81.637 C 73.988 77.806,72.044 76.977,60.352 76.561 C 55.536 76.390,52.751 76.379,45.801 76.501 M55.048 83.169 C 56.065 85.554,56.270 86.195,56.057 86.327 C 55.342 86.769,45.538 86.828,45.104 86.393 C 45.015 86.304,45.528 84.844,46.243 83.150 L 47.545 80.069 50.658 80.122 L 53.772 80.176 55.048 83.169 M43.301 80.713 C 41.972 83.940,41.321 85.341,41.207 85.215 C 41.097 85.093,39.905 82.265,39.313 80.722 C 39.237 80.524,39.676 80.469,41.309 80.469 C 42.906 80.469,43.377 80.527,43.301 80.713 M61.080 82.909 C 60.528 84.252,60.016 85.285,59.941 85.204 C 59.763 85.013,58.008 80.873,58.008 80.645 C 58.008 80.548,58.925 80.469,60.045 80.469 L 62.082 80.469 61.080 82.909 M67.858 80.628 L 68.626 80.764 67.956 81.530 C 67.341 82.232,65.184 83.789,64.827 83.789 C 64.744 83.789,64.899 83.240,65.173 82.568 C 65.446 81.897,65.745 81.150,65.838 80.908 C 66.019 80.434,66.440 80.376,67.858 80.628 M36.053 82.407 C 36.418 83.312,36.666 84.102,36.606 84.162 C 36.244 84.524,32.227 81.691,32.227 81.074 C 32.227 80.847,33.138 80.710,34.443 80.740 L 35.390 80.762 36.053 82.407 M77.261 83.518 C 75.298 85.720,75.087 86.671,76.350 87.640 C 78.265 89.111,82.725 83.907,81.065 82.140 C 80.043 81.052,79.184 81.363,77.261 83.518 M92.950 89.466 C 87.597 90.310,87.080 98.093,92.263 99.798 C 94.377 100.494,97.165 99.592,98.326 97.838 C 101.031 93.750,97.791 88.703,92.950 89.466 M95.132 93.540 C 95.522 93.929,95.703 94.306,95.703 94.727 C 95.703 95.147,95.522 95.524,95.132 95.913 C 94.046 97.000,92.188 96.251,92.188 94.727 C 92.188 94.306,92.369 93.929,92.758 93.540 C 93.148 93.150,93.525 92.969,93.945 92.969 C 94.366 92.969,94.743 93.150,95.132 93.540 M187.984 100.365 C 185.332 101.570,184.207 105.007,185.627 107.569 C 188.199 112.211,195.313 110.382,195.313 105.078 C 195.313 101.370,191.363 98.830,187.984 100.365 M305.566 100.566 C 300.643 102.851,302.291 110.246,307.715 110.208 C 313.042 110.170,314.670 102.933,309.863 100.661 C 308.622 100.074,306.718 100.032,305.566 100.566 M156.016 101.319 C 155.727 101.507,154.696 102.640,153.726 103.837 C 151.158 107.006,149.411 108.272,145.801 109.577 C 140.966 111.325,138.619 114.586,138.995 119.032 C 139.105 120.329,139.069 120.541,138.594 121.414 L 138.072 122.373 135.637 123.097 C 123.682 126.651,115.025 134.219,111.562 144.141 C 108.926 151.694,110.069 160.647,114.539 167.451 C 115.011 168.170,115.458 169.122,115.533 169.567 C 115.898 171.728,117.451 175.126,119.037 177.233 L 119.909 178.393 118.787 179.408 C 116.450 181.522,115.814 184.188,117.090 186.520 C 117.765 187.754,123.641 192.720,125.572 193.689 C 128.656 195.236,131.110 194.075,133.581 189.902 L 134.839 187.779 136.649 188.274 L 138.459 188.770 138.348 190.527 C 138.167 193.404,139.644 195.604,142.222 196.298 C 143.789 196.720,152.895 196.458,153.817 195.964 C 155.869 194.866,156.998 192.694,156.746 190.337 L 156.615 189.117 158.480 188.686 C 159.506 188.448,160.396 188.239,160.457 188.219 C 160.519 188.200,160.894 188.914,161.290 189.808 C 162.853 193.326,165.556 194.767,168.555 193.680 C 169.337 193.397,176.449 189.031,177.074 188.450 C 179.181 186.494,179.177 183.235,177.065 180.602 L 175.997 179.270 177.212 177.733 C 179.135 175.302,180.741 171.969,181.146 169.567 C 181.221 169.122,181.669 168.170,182.141 167.451 C 191.468 153.251,185.473 134.671,168.826 126.185 L 167.242 125.378 166.899 124.109 C 166.192 121.499,164.060 119.124,161.198 117.758 C 157.285 115.890,156.624 114.367,157.911 110.180 C 158.564 108.053,158.594 107.829,158.594 104.973 L 158.594 101.988 157.993 101.482 C 157.291 100.891,156.747 100.847,156.016 101.319 M374.594 102.329 L 374.023 102.900 374.023 105.829 C 374.023 109.274,374.314 109.967,375.750 109.955 C 377.276 109.941,377.539 109.329,377.539 105.790 C 377.539 103.030,377.526 102.945,377.033 102.359 C 376.344 101.540,375.395 101.528,374.594 102.329 M105.167 103.604 C 103.435 105.336,108.421 110.815,110.368 109.320 C 111.672 108.319,111.357 107.321,109.009 105.015 C 106.831 102.875,106.147 102.624,105.167 103.604 M115.332 103.487 C 111.826 105.645,110.562 109.570,113.373 109.570 C 114.565 109.570,118.058 106.069,118.058 104.874 C 118.058 103.404,116.639 102.682,115.332 103.487 M191.357 104.022 C 192.598 105.411,190.897 107.435,189.312 106.456 C 188.211 105.776,188.211 104.381,189.312 103.701 C 190.074 103.230,190.744 103.335,191.357 104.022 M308.876 104.102 C 309.463 104.689,309.387 105.799,308.720 106.373 C 307.096 107.769,305.133 105.580,306.648 104.064 C 307.325 103.388,308.176 103.402,308.876 104.102 M167.425 104.797 C 165.559 106.104,166.446 108.984,168.714 108.984 C 170.909 108.984,171.895 106.239,170.184 104.893 C 169.559 104.402,168.064 104.350,167.425 104.797 M329.892 108.359 C 329.031 109.220,329.087 109.938,330.103 111.040 L 330.909 111.914 330.103 112.789 C 328.092 114.971,330.342 117.221,332.524 115.209 L 333.398 114.403 334.273 115.209 C 336.505 117.267,338.694 114.839,336.576 112.654 L 335.873 111.930 336.687 111.047 C 338.672 108.894,336.419 106.641,334.265 108.626 L 333.383 109.439 332.643 108.717 C 331.587 107.685,330.683 107.568,329.892 108.359 M154.346 109.676 C 152.736 114.481,154.343 118.274,158.972 120.599 C 162.031 122.136,163.312 123.633,163.659 126.079 C 163.889 127.703,163.931 127.750,166.087 128.773 C 179.465 135.125,185.840 147.861,181.786 160.141 L 181.179 161.980 180.750 160.238 C 177.429 146.760,165.267 134.386,153.335 132.346 C 137.984 129.722,120.431 143.236,115.691 161.328 C 115.238 163.058,113.672 156.362,113.672 152.695 C 113.672 140.532,123.904 129.399,138.151 126.061 C 141.071 125.376,142.473 123.144,142.492 119.145 C 142.511 115.346,143.395 114.166,147.266 112.780 C 149.982 111.808,152.367 110.416,154.004 108.848 C 154.434 108.436,154.804 108.105,154.826 108.111 C 154.849 108.117,154.633 108.822,154.346 109.676 M366.587 110.337 C 366.197 110.726,366.016 111.103,366.016 111.523 C 366.016 111.944,366.197 112.321,366.587 112.710 L 367.157 113.281 370.017 113.281 C 373.531 113.281,374.198 113.012,374.213 111.588 C 374.229 109.998,373.694 109.766,370.014 109.766 L 367.157 109.766 366.587 110.337 M378.223 110.002 C 377.140 110.622,377.004 111.984,377.945 112.776 C 378.533 113.270,378.608 113.281,381.475 113.281 L 384.405 113.281 384.976 112.710 C 385.777 111.910,385.765 110.961,384.946 110.271 C 384.270 109.703,379.105 109.495,378.223 110.002 M108.301 110.518 C 104.801 112.673,103.559 116.602,106.377 116.602 C 107.419 116.602,111.133 112.960,111.133 111.938 C 111.133 110.534,109.558 109.745,108.301 110.518 M112.198 110.636 C 111.157 111.676,111.451 112.503,113.634 114.687 C 115.896 116.949,116.656 117.191,117.678 115.978 C 118.574 114.913,118.320 114.301,116.051 112.061 C 113.868 109.904,113.183 109.651,112.198 110.636 M374.788 113.336 C 374.135 113.837,374.023 114.415,374.023 117.287 L 374.023 120.147 374.594 120.718 C 374.984 121.108,375.361 121.289,375.781 121.289 C 376.202 121.289,376.579 121.108,376.968 120.718 L 377.539 120.147 377.539 117.290 C 377.539 113.611,377.307 113.076,375.716 113.092 C 375.376 113.096,374.958 113.205,374.788 113.336 M316.797 116.102 C 315.262 116.939,312.220 121.856,311.524 124.627 L 311.307 125.488 309.028 125.427 C 305.639 125.336,301.010 126.379,300.299 127.394 C 299.097 129.111,302.231 135.511,305.664 138.350 C 308.525 140.715,313.777 141.548,318.018 140.308 C 318.325 140.218,318.359 140.383,318.359 141.945 C 318.359 148.449,321.204 154.798,326.519 160.156 L 328.941 162.598 329.213 164.643 C 332.091 186.314,353.840 200.342,374.759 194.021 C 387.389 190.205,396.736 179.894,399.439 166.797 C 401.240 158.072,398.227 142.976,394.855 143.823 C 393.403 144.187,393.223 145.283,394.219 147.703 C 401.819 166.168,390.754 187.162,371.191 191.394 C 350.435 195.883,330.821 178.806,332.428 157.644 C 334.404 131.613,364.486 118.717,384.937 135.133 C 386.846 136.665,388.481 136.375,388.534 134.494 C 388.598 132.234,380.149 127.226,373.340 125.488 C 356.620 121.221,338.511 129.921,332.010 145.345 C 331.236 147.181,331.250 147.170,330.351 146.654 C 328.217 145.427,326.566 143.806,325.027 141.425 C 323.970 139.788,323.932 139.844,326.082 139.844 C 333.136 139.844,337.710 136.083,339.569 128.758 C 340.422 125.393,340.176 124.231,338.528 123.846 C 334.342 122.868,329.034 123.414,326.367 125.097 C 325.411 125.701,325.464 125.707,325.320 124.990 C 324.946 123.118,322.521 119.528,320.271 117.513 C 318.302 115.750,317.809 115.550,316.797 116.102 M319.421 121.631 C 321.050 123.564,322.030 125.478,322.307 127.266 L 322.519 128.639 321.611 130.452 C 321.112 131.450,320.703 132.389,320.703 132.539 C 320.703 133.084,320.338 132.791,319.764 131.787 C 318.752 130.014,316.751 127.914,315.204 127.002 C 314.316 126.479,314.965 124.218,316.807 121.416 C 317.872 119.796,317.875 119.796,319.421 121.631 M335.895 126.876 L 336.487 126.995 336.110 128.355 C 334.578 133.883,331.425 136.383,325.944 136.412 C 322.922 136.429,323.041 136.554,323.821 134.173 C 325.656 128.569,330.307 125.759,335.895 126.876 M104.930 127.798 C 103.594 128.540,103.422 130.687,104.623 131.632 C 105.427 132.264,106.854 132.184,107.663 131.461 C 109.644 129.692,107.264 126.502,104.930 127.798 M311.028 129.010 C 313.711 129.709,315.899 131.683,317.467 134.819 L 318.368 136.621 317.533 136.868 C 311.418 138.677,306.820 136.524,304.220 130.634 L 303.732 129.529 305.040 129.223 C 307.553 128.636,309.346 128.572,311.028 129.010 M153.699 136.142 C 163.441 138.803,173.145 147.865,176.533 157.468 C 179.238 165.131,178.183 171.483,173.329 176.770 C 171.368 178.906,171.359 179.224,173.200 181.481 C 176.145 185.093,176.178 184.997,170.807 188.283 C 165.961 191.248,165.769 191.220,164.059 187.315 C 162.603 183.991,162.480 183.927,159.277 184.838 C 158.311 185.113,156.688 185.488,155.672 185.670 C 152.868 186.174,152.682 186.473,153.139 189.756 C 153.562 192.802,153.262 192.969,147.358 192.969 L 142.939 192.969 142.341 192.371 C 141.763 191.793,141.747 191.731,141.867 190.515 C 142.335 185.798,142.465 186.047,139.128 185.259 C 137.865 184.960,136.353 184.551,135.768 184.350 C 133.349 183.518,133.178 183.632,130.780 187.665 C 128.393 191.678,128.411 191.678,123.789 187.974 C 119.018 184.151,118.997 184.074,121.981 181.305 C 124.736 178.748,124.746 178.622,122.412 175.756 C 117.107 169.239,117.566 161.155,123.776 151.758 C 131.734 139.714,143.774 133.431,153.699 136.142 M389.510 137.158 C 388.580 138.174,388.763 138.868,390.577 141.211 C 393.199 144.596,395.731 142.440,393.249 138.937 C 391.582 136.585,390.504 136.072,389.510 137.158 M346.480 143.413 C 340.110 145.585,334.646 156.897,336.658 163.747 C 339.962 174.996,356.319 174.697,359.264 163.334 C 359.715 161.591,359.709 151.711,359.256 150.182 C 357.638 144.730,351.756 141.614,346.480 143.413 M376.583 143.278 C 373.272 144.168,370.544 147.008,369.630 150.514 C 369.207 152.138,369.214 161.275,369.640 163.086 C 372.299 174.403,388.142 175.245,392.140 164.281 C 394.675 157.330,388.730 145.043,381.959 143.240 C 380.667 142.896,377.931 142.915,376.583 143.278 M324.455 146.399 C 325.772 147.808,327.446 149.075,329.053 149.882 C 330.221 150.469,330.177 150.333,329.769 152.087 C 329.599 152.819,329.341 154.328,329.195 155.441 C 328.864 157.954,328.970 157.897,327.606 156.311 C 324.778 153.024,323.046 149.550,322.171 145.410 C 321.690 143.135,321.759 142.900,322.560 144.089 C 322.937 144.648,323.789 145.688,324.455 146.399 M350.744 146.415 C 351.156 146.526,351.124 146.569,350.374 146.904 C 343.654 149.913,340.140 158.586,342.678 165.900 L 343.147 167.250 342.356 166.486 C 339.597 163.822,338.988 160.616,340.416 156.277 C 342.609 149.615,347.008 145.415,350.744 146.415 M380.831 146.496 C 384.179 147.215,388.174 153.068,389.155 158.693 C 389.627 161.397,389.040 163.737,387.384 165.758 C 386.587 166.730,385.769 167.286,386.038 166.673 C 389.103 159.675,385.524 150.019,378.739 146.982 C 377.392 146.380,378.781 146.057,380.831 146.496 M130.860 149.412 C 125.619 151.354,120.880 160.892,122.337 166.561 C 125.017 176.992,140.181 176.904,142.362 166.445 C 142.753 164.574,142.643 156.493,142.208 155.096 C 140.769 150.474,135.336 147.752,130.860 149.412 M158.494 149.375 C 153.710 151.029,152.172 154.268,152.398 162.207 C 152.542 167.250,153.147 169.086,155.426 171.383 C 162.659 178.673,174.816 172.034,172.765 161.913 C 170.920 152.808,164.607 147.261,158.494 149.375 M355.417 149.854 C 356.692 152.447,356.638 161.377,355.331 164.063 C 353.845 167.114,349.123 169.652,347.808 168.106 C 345.559 165.462,344.642 160.449,345.794 157.101 L 346.139 156.097 347.026 156.489 C 350.181 157.885,353.219 153.817,350.863 151.352 L 350.382 150.848 351.361 150.315 C 352.409 149.745,354.197 149.061,354.702 149.038 C 354.876 149.030,355.185 149.381,355.417 149.854 M376.416 149.753 C 377.730 150.333,377.704 150.277,376.946 150.915 C 376.105 151.623,375.781 152.361,375.781 153.575 C 375.781 156.748,380.001 157.980,381.767 155.321 L 382.189 154.685 382.782 156.110 C 384.428 160.063,383.765 165.113,381.216 168.029 L 380.566 168.773 379.492 168.542 C 374.258 167.415,372.492 164.013,372.707 155.469 C 372.866 149.171,373.363 148.405,376.416 149.753 M135.938 152.962 C 137.103 153.464,138.031 154.372,138.596 155.566 C 139.348 157.155,139.315 157.202,137.451 157.199 C 131.578 157.187,127.570 163.250,129.460 169.288 L 129.843 170.510 129.069 170.076 C 125.394 168.010,124.635 163.728,127.044 158.644 C 129.557 153.338,132.477 151.473,135.938 152.962 M163.574 153.035 C 165.988 154.176,169.112 159.750,169.467 163.548 C 169.679 165.821,168.621 168.123,166.699 169.574 C 165.396 170.557,165.169 170.539,165.554 169.482 C 167.773 163.400,162.723 156.311,156.816 157.214 L 155.917 157.351 156.089 156.585 C 156.836 153.259,160.437 151.552,163.574 153.035 M138.195 160.765 L 139.063 160.984 139.063 163.199 C 139.063 166.720,137.880 168.918,135.294 170.207 C 134.088 170.808,133.909 170.700,133.095 168.887 C 131.244 164.762,134.359 159.800,138.195 160.765 M158.970 160.854 C 162.375 161.865,163.686 167.222,161.253 170.183 L 160.798 170.738 159.821 170.243 C 157.041 168.834,155.780 166.426,155.900 162.758 L 155.957 161.035 156.641 160.802 C 157.554 160.491,157.763 160.495,158.970 160.854 M307.757 170.593 C 302.121 172.604,303.816 180.956,309.751 180.418 C 314.089 180.025,315.964 174.930,312.900 171.866 C 311.500 170.466,309.500 169.971,307.757 170.593 M310.458 174.308 C 311.662 175.511,310.392 177.483,308.775 176.919 C 308.097 176.683,307.532 175.663,307.746 175.060 C 308.187 173.814,309.578 173.428,310.458 174.308 M358.266 175.049 C 356.935 176.528,358.225 178.210,361.390 179.119 C 362.486 179.434,363.459 178.712,363.470 177.575 C 363.487 175.787,359.391 173.799,358.266 175.049 M367.433 175.400 C 365.401 176.432,364.876 177.499,365.869 178.583 C 367.105 179.932,371.289 178.074,371.289 176.176 C 371.289 174.515,369.778 174.211,367.433 175.400 M189.768 187.354 C 188.918 188.118,189.015 189.209,190.028 190.291 L 190.799 191.113 190.009 191.922 C 187.795 194.187,190.270 196.422,192.664 194.320 L 193.379 193.692 194.004 194.284 C 196.310 196.466,198.842 194.265,196.701 191.939 L 195.941 191.113 196.701 190.258 C 198.714 187.993,196.457 185.671,194.234 187.720 L 193.359 188.526 192.485 187.720 C 191.445 186.761,190.559 186.642,189.768 187.354 M326.565 187.644 C 323.551 188.207,323.841 192.693,326.918 193.106 C 329.325 193.429,330.895 190.424,329.281 188.586 C 328.785 188.021,327.569 187.418,327.148 187.528 C 327.095 187.542,326.832 187.594,326.565 187.644 M106.677 189.855 C 104.283 190.332,102.638 192.449,102.664 195.020 C 102.716 200.374,110.137 202.007,112.425 197.168 C 114.265 193.276,110.912 189.011,106.677 189.855 M389.542 192.276 C 388.790 193.028,388.887 193.958,389.823 194.975 L 390.583 195.801 389.823 196.656 C 387.780 198.954,390.102 201.158,392.389 199.092 L 393.166 198.390 394.064 199.217 C 396.189 201.176,398.414 198.756,396.392 196.685 L 395.625 195.900 396.227 195.264 C 398.398 192.971,396.269 190.471,393.922 192.557 L 393.066 193.317 392.241 192.557 C 391.224 191.621,390.294 191.524,389.542 192.276 M108.936 193.799 C 109.803 194.608,109.369 196.117,108.143 196.551 C 107.560 196.757,106.538 196.204,106.260 195.532 C 105.564 193.853,107.589 192.541,108.936 193.799 M204.368 200.592 C 198.751 202.327,199.987 210.742,205.859 210.742 C 211.272 210.742,212.976 203.412,208.137 200.943 C 207.230 200.480,205.309 200.301,204.368 200.592 M86.313 202.133 C 85.291 203.155,85.665 204.210,87.767 206.239 L 88.666 207.107 87.204 208.609 C 85.536 210.323,85.378 210.866,86.248 211.899 C 87.161 212.985,88.024 212.790,89.763 211.104 L 91.202 209.708 92.672 211.104 C 94.377 212.723,95.266 212.955,96.200 212.021 C 97.146 211.075,96.906 210.153,95.279 208.475 L 93.879 207.031 95.279 205.587 C 96.906 203.909,97.146 202.988,96.200 202.042 C 95.284 201.125,94.514 201.345,92.798 203.016 L 91.304 204.469 89.817 203.016 C 88.056 201.294,87.334 201.112,86.313 202.133 M285.747 202.534 C 284.927 203.354,284.886 209.193,285.694 210.000 C 286.357 210.662,287.590 210.611,288.204 209.897 C 288.937 209.045,288.928 203.363,288.192 202.628 C 287.576 202.011,286.318 201.963,285.747 202.534 M206.772 204.196 C 207.396 204.633,207.624 205.471,207.318 206.199 C 206.875 207.252,205.733 207.546,204.833 206.839 C 203.212 205.564,205.083 203.013,206.772 204.196 M9.863 205.342 C 5.518 207.370,5.957 213.828,10.532 215.167 C 15.655 216.666,19.533 210.688,16.065 206.637 C 14.598 204.923,11.947 204.370,9.863 205.342 M46.678 205.966 C 38.323 210.067,35.295 215.985,38.409 222.130 C 38.676 222.656,38.866 223.113,38.831 223.147 C 38.797 223.181,37.847 223.555,36.719 223.979 C 31.280 226.023,27.539 228.419,27.539 229.859 C 27.539 231.764,29.190 232.047,31.543 230.544 C 49.800 218.883,74.489 227.609,81.364 248.152 C 82.183 250.601,82.183 250.602,80.980 249.608 C 73.541 243.461,63.273 244.967,57.155 253.103 C 53.193 258.371,47.213 258.436,43.706 253.250 C 37.461 244.017,23.859 243.383,17.461 252.027 C 16.942 252.728,16.485 253.269,16.445 253.229 C 16.026 252.810,18.253 246.232,19.838 243.209 C 21.487 240.062,21.479 238.872,19.804 238.557 C 18.461 238.306,18.019 238.772,16.200 242.366 C 6.566 261.402,15.644 285.492,35.409 293.343 C 63.332 304.436,91.922 280.540,85.927 251.121 C 82.623 234.907,68.502 222.829,51.602 221.762 L 49.396 221.623 48.618 220.724 C 45.482 217.097,46.014 212.891,50.158 208.547 C 51.456 207.186,51.637 206.282,50.792 205.382 C 50.053 204.596,49.233 204.712,46.678 205.966 M13.333 209.003 C 14.127 209.975,13.865 211.017,12.654 211.705 C 12.005 212.073,11.037 211.697,10.635 210.920 C 9.722 209.154,12.084 207.475,13.333 209.003 M277.548 210.695 C 276.867 211.247,276.795 212.489,277.403 213.197 L 277.896 213.770 281.119 213.770 C 284.262 213.770,284.356 213.758,284.847 213.296 C 285.535 212.650,285.546 211.505,284.872 210.831 C 284.230 210.189,278.309 210.079,277.548 210.695 M289.102 210.748 C 288.183 211.604,288.359 212.959,289.465 213.532 C 290.597 214.120,295.680 213.946,296.372 213.296 C 297.058 212.650,297.069 211.505,296.396 210.831 C 295.713 210.148,289.818 210.081,289.102 210.748 M251.157 212.485 L 250.586 213.056 250.586 219.072 L 250.586 225.088 249.725 223.577 C 247.291 219.307,243.708 215.259,242.345 215.241 C 240.544 215.218,240.196 217.171,241.714 218.782 C 243.678 220.865,246.886 225.250,246.632 225.504 C 246.576 225.559,245.619 225.813,244.506 226.067 C 229.763 229.432,218.351 242.186,216.300 257.591 C 215.801 261.339,215.894 292.143,216.409 293.812 C 217.339 296.822,219.987 298.985,223.264 299.410 C 225.203 299.662,279.489 299.661,281.445 299.409 C 284.317 299.039,286.662 297.299,287.949 294.582 L 288.574 293.262 288.574 275.391 C 288.574 254.328,288.564 254.222,286.045 247.852 C 285.174 245.650,284.699 245.078,283.740 245.078 C 281.929 245.078,281.531 246.160,282.489 248.475 C 285.067 254.703,285.059 254.614,285.059 275.113 L 285.059 292.706 284.466 293.668 C 282.864 296.265,285.186 296.089,252.344 296.089 C 219.502 296.089,221.824 296.265,220.222 293.668 L 219.629 292.706 219.629 275.406 L 219.629 258.105 220.080 256.063 C 225.652 230.854,253.696 220.302,273.123 236.104 C 275.068 237.686,276.953 237.459,276.953 235.643 C 276.953 233.019,267.431 227.575,260.065 225.986 C 258.994 225.755,258.083 225.531,258.040 225.488 C 257.801 225.249,260.555 221.426,262.582 219.183 C 264.517 217.041,264.237 215.008,262.046 215.293 C 260.708 215.467,257.088 219.739,254.810 223.834 L 254.106 225.098 254.104 219.077 L 254.102 213.056 253.531 212.485 C 253.141 212.095,252.764 211.914,252.344 211.914 C 251.923 211.914,251.546 212.095,251.157 212.485 M43.314 213.103 C 42.607 215.045,43.126 218.909,44.371 220.969 C 45.055 222.100,45.103 222.024,43.656 222.104 L 42.489 222.168 41.703 220.629 C 40.326 217.931,40.621 215.422,42.575 213.224 C 43.514 212.168,43.663 212.143,43.314 213.103 M285.747 214.058 C 284.955 214.850,284.883 220.714,285.656 221.486 C 286.371 222.200,287.385 222.216,288.077 221.523 L 288.672 220.928 288.672 217.780 C 288.672 214.697,288.662 214.621,288.192 214.151 C 287.576 213.535,286.318 213.487,285.747 214.058 M2.728 230.618 C 0.404 231.731,0.322 234.914,2.592 235.945 C 5.543 237.284,8.102 233.597,5.811 231.306 C 5.089 230.583,3.528 230.235,2.728 230.618 M200.425 231.897 C 199.694 232.675,199.840 233.709,200.822 234.709 L 201.644 235.547 200.822 236.384 C 198.685 238.562,201.058 240.992,203.235 238.855 L 204.044 238.061 204.870 238.855 C 207.059 240.958,209.453 238.652,207.397 236.421 L 206.591 235.547 207.397 234.672 C 209.444 232.451,207.102 230.144,204.947 232.259 L 204.118 233.073 203.235 232.259 C 202.165 231.273,201.136 231.140,200.425 231.897 M23.627 232.164 C 20.666 234.655,19.912 236.986,21.831 237.716 C 23.163 238.222,26.929 234.742,26.688 233.228 C 26.449 231.720,24.825 231.156,23.627 232.164 M292.674 236.397 C 287.655 238.734,289.488 246.241,295.058 246.157 C 300.379 246.077,301.980 238.678,297.168 236.403 C 295.830 235.770,294.025 235.768,292.674 236.397 M277.915 238.266 C 276.983 239.198,277.113 239.839,278.662 241.941 C 280.361 244.248,281.161 244.582,282.373 243.492 C 283.217 242.732,282.991 241.754,281.515 239.781 C 279.842 237.545,278.993 237.188,277.915 238.266 M295.970 239.822 C 297.367 241.028,296.012 243.272,294.312 242.568 C 293.174 242.097,292.941 240.631,293.874 239.820 C 294.560 239.225,295.278 239.226,295.970 239.822 M273.014 248.714 C 269.478 251.168,269.516 265.362,273.065 267.711 C 274.680 268.779,276.601 267.958,277.528 265.803 C 279.115 262.114,279.115 254.293,277.528 250.604 C 276.599 248.444,274.605 247.609,273.014 248.714 M33.902 250.081 C 36.599 250.937,38.786 252.582,40.543 255.078 C 45.790 262.531,54.932 262.606,60.094 255.240 C 68.934 242.625,88.358 253.126,81.794 266.971 C 77.675 275.658,66.001 276.358,60.161 268.269 C 54.776 260.809,45.830 260.851,40.543 268.359 C 34.911 276.360,23.204 275.618,18.972 266.992 C 14.238 257.345,23.550 246.799,33.902 250.081 M229.004 250.080 C 224.652 252.014,224.913 268.735,229.310 269.710 C 232.448 270.406,234.213 266.862,234.213 259.863 C 234.213 252.662,232.104 248.702,229.004 250.080 M275.015 254.542 C 275.462 257.115,275.194 263.018,274.614 263.376 C 274.300 263.570,273.932 260.773,273.932 258.203 C 273.932 255.633,274.300 252.836,274.614 253.030 C 274.699 253.083,274.880 253.763,275.015 254.542 M28.130 254.024 C 20.313 256.125,20.804 267.546,28.772 268.970 C 34.936 270.071,39.668 263.852,37.037 258.106 C 35.541 254.839,31.681 253.070,28.130 254.024 M68.991 253.918 C 65.131 254.679,62.324 258.850,63.049 262.747 C 64.754 271.914,78.203 270.741,78.197 261.426 C 78.194 256.432,73.920 252.946,68.991 253.918 M230.489 256.104 C 230.947 258.695,230.659 265.039,230.083 265.039 C 229.763 265.039,229.408 262.317,229.408 259.863 C 229.408 257.409,229.763 254.688,230.083 254.688 C 230.168 254.688,230.351 255.325,230.489 256.104 M32.505 258.160 C 34.766 259.728,34.690 263.425,32.365 264.854 C 28.406 267.288,24.052 262.468,26.990 258.903 C 28.396 257.199,30.674 256.891,32.505 258.160 M72.559 257.859 C 74.997 259.138,75.433 262.281,73.447 264.267 C 70.831 266.883,66.574 265.122,66.574 261.423 C 66.574 258.326,69.793 256.408,72.559 257.859 M244.750 263.293 C 237.808 264.152,234.672 267.585,236.018 272.852 C 239.452 286.291,270.410 284.621,270.410 270.996 C 270.410 266.818,267.639 264.646,260.933 263.568 C 258.552 263.186,247.179 262.992,244.750 263.293 M52.668 266.715 C 54.278 267.235,55.646 268.325,57.070 270.225 L 58.378 271.969 57.949 272.430 C 55.213 275.367,46.963 275.470,42.920 272.618 C 42.195 272.106,42.323 271.829,44.562 269.071 C 46.353 266.866,49.923 265.828,52.668 266.715 M250.472 267.425 C 251.420 271.262,245.354 272.725,244.326 268.908 C 243.793 266.929,244.340 266.632,248.438 266.678 L 250.293 266.699 250.472 267.425 M260.509 267.094 C 267.174 268.172,268.865 270.971,265.115 274.720 C 258.334 281.501,239.278 278.730,239.260 270.960 C 239.255 268.881,240.744 267.319,240.808 269.336 C 240.849 270.596,242.368 272.858,243.767 273.741 C 248.348 276.633,254.587 272.920,254.040 267.627 L 253.929 266.546 256.359 266.681 C 257.695 266.755,259.563 266.941,260.509 267.094 M20.275 274.207 C 25.456 278.337,33.389 278.622,39.091 274.883 C 39.602 274.547,39.617 274.552,40.458 275.273 C 45.097 279.249,55.197 279.293,60.174 275.358 C 61.002 274.704,61.252 274.594,61.505 274.775 C 65.783 277.835,72.708 278.363,77.588 276.001 C 78.206 275.702,78.711 275.500,78.711 275.552 C 78.711 275.864,75.978 279.667,74.718 281.108 C 59.446 298.576,30.215 295.196,19.904 274.770 C 19.248 273.469,19.282 273.416,20.275 274.207 M93.930 278.341 C 89.630 278.979,87.984 284.191,91.118 287.246 C 94.544 290.587,99.980 288.317,99.996 283.539 C 100.007 280.118,97.342 277.835,93.930 278.341 M95.969 282.351 C 97.042 283.423,96.334 285.156,94.824 285.156 C 93.872 285.156,93.164 284.449,93.164 283.496 C 93.164 281.986,94.897 281.278,95.969 282.351 M0.425 284.046 C -0.583 285.119,-0.253 285.958,2.109 288.320 C 4.504 290.715,5.290 291.016,6.357 289.950 C 7.419 288.887,7.121 288.114,4.718 285.712 C 2.332 283.326,1.430 282.976,0.425 284.046 M9.999 285.810 C 7.548 288.294,7.375 288.708,8.318 289.829 C 9.332 291.033,10.058 290.777,12.527 288.344 C 14.839 286.065,15.133 285.502,14.575 284.422 C 13.747 282.821,12.607 283.166,9.999 285.810 M4.492 291.541 C 3.552 291.876,0.000 295.807,0.000 296.514 C 0.000 297.866,0.799 298.588,2.039 298.355 C 3.118 298.152,6.836 294.216,6.836 293.276 C 6.836 292.032,5.627 291.137,4.492 291.541 M8.984 291.545 C 7.152 292.219,7.438 293.608,9.934 296.157 C 12.249 298.521,13.355 298.960,14.313 297.897 C 15.286 296.818,14.993 296.012,12.816 293.781 C 10.629 291.541,9.997 291.172,8.984 291.545 M188.146 300.406 C 183.275 302.817,184.896 310.161,190.307 310.193 C 195.927 310.225,197.593 302.695,192.480 300.365 C 191.361 299.854,189.219 299.874,188.146 300.406 M368.253 301.456 C 367.261 302.448,367.519 303.142,369.688 305.312 C 371.858 307.481,372.552 307.739,373.544 306.747 C 374.536 305.755,374.278 305.061,372.108 302.892 C 369.939 300.722,369.245 300.464,368.253 301.456 M376.524 302.892 C 374.355 305.061,374.096 305.755,375.089 306.747 C 376.081 307.739,376.775 307.481,378.944 305.312 C 381.114 303.142,381.372 302.448,380.380 301.456 C 379.388 300.464,378.694 300.722,376.524 302.892 M105.762 303.351 C 104.201 304.204,104.470 305.308,106.807 307.646 C 109.000 309.838,109.811 310.128,110.849 309.091 C 111.852 308.087,111.591 307.412,109.316 305.137 C 107.209 303.030,106.760 302.804,105.762 303.351 M113.937 305.115 C 111.646 307.369,111.374 308.071,112.393 309.091 C 113.413 310.111,114.116 309.838,116.369 307.548 C 118.649 305.231,118.831 304.738,117.788 303.696 C 116.746 302.654,116.254 302.835,113.937 305.115 M191.553 303.963 C 192.843 305.144,191.245 307.369,189.686 306.562 C 188.431 305.913,188.458 304.150,189.731 303.599 C 190.428 303.297,190.936 303.399,191.553 303.963 M167.521 304.886 C 166.801 305.452,166.497 306.498,166.778 307.436 C 167.516 309.899,171.289 309.315,171.289 306.738 C 171.289 304.910,168.952 303.761,167.521 304.886 M146.777 306.836 C 129.712 308.651,113.081 327.104,110.245 347.373 C 106.739 372.424,129.827 400.926,151.789 398.660 C 160.195 397.793,172.392 391.389,171.786 388.160 C 171.475 386.503,169.905 386.406,168.038 387.928 C 163.164 391.903,155.993 395.097,151.904 395.114 L 151.172 395.117 151.172 352.734 L 151.172 310.352 151.843 310.352 C 152.575 310.352,154.749 310.775,156.445 311.248 L 157.520 311.548 157.550 313.003 C 157.728 321.528,168.178 329.742,176.705 328.060 L 177.531 327.897 178.516 329.427 C 187.754 343.780,187.919 359.262,179.006 375.192 C 178.105 376.802,178.681 378.105,180.301 378.119 C 181.289 378.127,181.640 377.758,182.988 375.293 C 190.828 360.960,191.069 346.148,183.699 331.752 C 175.308 315.362,160.511 305.377,146.777 306.836 M302.991 307.064 C 301.044 307.586,301.072 310.488,303.030 311.134 C 304.415 311.591,305.858 310.544,305.858 309.082 C 305.858 308.249,305.199 307.261,304.547 307.118 C 304.248 307.052,303.916 306.976,303.809 306.948 C 303.701 306.920,303.333 306.973,302.991 307.064 M369.688 309.728 C 367.519 311.897,367.261 312.591,368.253 313.583 C 369.245 314.575,369.939 314.317,372.108 312.147 C 374.278 309.978,374.536 309.284,373.544 308.292 C 372.552 307.300,371.858 307.558,369.688 309.728 M375.089 308.292 C 374.096 309.284,374.355 309.978,376.524 312.147 C 378.694 314.317,379.388 314.575,380.380 313.583 C 381.372 312.591,381.114 311.897,378.944 309.728 C 376.775 307.558,376.081 307.300,375.089 308.292 M106.905 312.146 C 105.033 313.989,104.883 314.192,104.883 314.890 C 104.883 315.910,105.565 316.602,106.573 316.602 C 107.520 316.602,111.328 312.965,111.328 312.060 C 111.328 311.301,110.961 310.620,110.418 310.373 C 109.364 309.893,109.018 310.067,106.905 312.146 M112.393 310.636 C 110.567 312.463,115.844 317.967,117.734 316.206 C 118.868 315.149,118.582 314.351,116.246 312.055 C 114.057 309.905,113.375 309.654,112.393 310.636 M147.852 352.799 L 147.852 395.246 146.533 395.075 C 132.191 393.216,117.689 377.739,114.184 360.547 C 112.106 350.360,114.110 340.096,120.158 329.942 L 121.376 327.898 122.260 328.060 C 130.979 329.659,141.406 321.420,141.406 312.933 L 141.406 311.566 142.920 311.167 C 145.144 310.580,146.093 310.396,147.021 310.372 L 147.852 310.352 147.852 352.799 M326.987 310.804 C 326.285 311.551,326.411 312.540,327.338 313.545 L 328.113 314.386 327.338 315.143 C 325.237 317.194,327.593 319.598,329.741 317.595 L 330.560 316.831 331.389 317.595 C 333.529 319.568,335.791 317.309,333.806 315.181 L 333.042 314.362 333.806 313.533 C 335.811 311.359,333.419 309.012,331.354 311.127 L 330.597 311.902 329.756 311.127 C 328.729 310.180,327.687 310.058,326.987 310.804 M137.863 314.009 C 136.902 319.152,130.740 324.430,125.309 324.764 L 123.763 324.859 124.221 324.197 C 126.023 321.592,132.251 316.244,135.930 314.142 C 138.164 312.866,138.076 312.872,137.863 314.009 M162.067 313.553 C 165.922 315.510,172.571 321.081,174.819 324.239 L 175.222 324.805 174.114 324.805 C 168.535 324.805,162.350 319.511,161.049 313.623 C 160.905 312.971,160.917 312.970,162.067 313.553 M312.658 320.710 C 297.201 324.511,296.230 346.740,311.305 351.671 C 312.190 351.961,312.325 352.069,312.240 352.421 C 306.519 376.050,322.506 397.153,347.544 399.022 C 374.216 401.014,395.303 376.776,388.170 352.327 C 388.104 352.101,388.305 351.949,388.913 351.767 C 397.929 349.068,402.640 338.193,398.542 329.542 C 392.791 317.402,375.734 317.106,369.594 329.040 C 368.541 331.087,368.530 331.847,369.547 332.569 C 369.736 332.703,369.949 333.078,370.020 333.401 C 370.099 333.761,370.427 334.192,370.866 334.512 C 371.260 334.800,372.143 335.458,372.828 335.975 C 374.833 337.485,376.367 337.092,376.367 335.069 C 376.367 332.989,380.294 331.618,382.910 332.786 C 386.638 334.450,387.554 339.160,384.695 341.966 L 383.865 342.780 382.871 341.361 C 380.062 337.352,378.656 336.444,377.393 337.823 C 376.791 338.481,376.839 339.247,377.540 340.156 C 377.863 340.575,378.723 341.681,379.451 342.613 C 389.249 355.163,388.093 372.951,376.717 384.663 L 374.625 386.816 375.457 385.145 C 379.405 377.214,377.602 367.482,371.558 364.100 C 371.321 363.967,371.345 363.792,371.712 362.977 C 372.400 361.445,372.330 359.599,371.521 357.956 C 368.648 352.120,359.880 354.428,360.189 360.939 C 360.249 362.194,360.222 362.306,359.863 362.316 C 359.648 362.322,358.857 362.488,358.105 362.684 L 356.738 363.040 356.098 362.478 C 353.278 360.003,346.919 359.699,343.552 361.878 C 342.697 362.432,342.644 362.440,341.357 362.237 L 340.039 362.029 340.039 360.737 C 340.039 353.686,330.121 352.275,328.218 359.055 C 327.730 360.795,327.983 362.477,328.947 363.899 L 329.299 364.418 328.325 365.133 C 322.587 369.345,321.197 377.975,325.079 385.285 C 326.530 388.018,322.214 383.508,319.647 379.610 C 308.827 363.174,315.341 341.151,333.654 332.257 C 335.264 331.475,338.806 330.078,339.179 330.078 C 339.226 330.078,338.775 330.715,338.177 331.494 C 331.598 340.052,334.490 352.344,344.158 356.925 C 354.626 361.885,367.041 354.738,367.893 343.262 C 368.115 340.278,365.965 339.544,364.465 342.092 C 360.754 348.396,351.879 348.159,348.796 341.674 C 346.273 336.364,349.326 330.536,355.330 329.202 L 356.738 328.890 359.395 329.559 C 360.856 329.928,362.952 330.590,364.054 331.032 C 366.387 331.968,367.017 332.025,367.685 331.357 C 368.934 330.107,368.165 328.925,365.407 327.856 C 354.945 323.802,342.955 324.136,332.956 328.760 C 332.015 329.195,331.218 329.516,331.187 329.473 C 331.155 329.430,330.768 328.779,330.326 328.027 C 326.849 322.108,319.445 319.041,312.658 320.710 M320.479 324.329 C 323.235 325.242,325.495 326.949,327.031 329.277 C 328.231 331.095,328.272 331.314,327.507 331.798 L 326.878 332.197 325.848 331.256 C 317.136 323.294,305.090 336.277,313.495 344.570 L 314.821 345.878 314.209 347.255 C 313.458 348.945,313.381 348.956,310.912 347.720 C 306.579 345.551,303.873 341.221,303.854 336.426 C 303.819 327.803,312.312 321.623,320.479 324.329 M387.808 324.299 C 399.291 327.950,399.552 344.234,388.193 348.357 L 386.985 348.796 386.291 347.268 L 385.597 345.740 386.360 345.185 C 389.037 343.234,390.358 339.424,389.572 335.917 C 388.052 329.135,379.497 326.572,374.444 331.387 L 373.583 332.207 372.928 331.762 L 372.272 331.316 372.806 330.274 C 375.439 325.132,382.094 322.481,387.808 324.299 M347.295 330.079 C 341.708 337.013,344.874 347.175,353.418 349.729 C 355.788 350.438,359.820 350.092,361.970 348.995 L 362.733 348.606 362.137 349.472 C 358.192 355.205,349.857 356.793,344.059 352.915 C 334.899 346.788,336.600 332.977,346.970 329.283 C 347.509 329.092,348.015 328.928,348.095 328.921 C 348.175 328.913,347.815 329.434,347.295 330.079 M321.973 332.794 C 322.402 332.985,323.047 333.389,323.404 333.691 L 324.054 334.240 321.826 336.505 C 319.458 338.911,318.455 340.087,317.338 341.761 L 316.646 342.800 315.978 342.214 C 311.250 338.063,316.226 330.243,321.973 332.794 M125.977 334.884 C 114.339 338.009,110.836 356.242,120.104 365.449 C 126.113 371.418,134.866 370.331,139.738 363.009 C 148.155 350.359,138.888 331.418,125.977 334.884 M167.188 334.878 C 155.583 337.926,152.062 356.258,161.315 365.449 C 168.222 372.310,178.614 369.624,182.629 359.940 C 188.004 346.977,178.688 331.858,167.188 334.878 M132.429 338.896 C 134.583 339.928,135.989 341.298,137.508 343.848 L 137.974 344.629 136.907 343.672 C 132.582 339.791,126.080 340.549,122.549 345.347 C 119.588 349.368,118.816 355.656,120.734 360.130 C 121.230 361.289,121.062 361.366,120.445 360.262 C 114.278 349.228,122.689 334.232,132.429 338.896 M173.485 338.815 C 179.922 341.829,182.665 351.615,179.145 359.010 C 178.146 361.109,177.583 361.848,178.245 360.191 C 183.183 347.828,170.821 335.417,161.939 343.821 C 160.933 344.774,161.079 344.355,162.410 342.471 C 165.222 338.491,169.663 337.025,173.485 338.815 M132.965 345.243 C 135.323 346.374,137.089 349.070,137.656 352.405 C 138.046 354.695,138.065 354.674,136.407 353.725 C 132.124 351.272,127.804 351.395,123.724 354.086 L 123.131 354.477 123.257 353.166 C 123.854 346.968,128.557 343.129,132.965 345.243 M170.955 345.261 C 173.492 346.389,175.781 350.278,175.781 353.459 C 175.781 354.420,175.747 354.439,174.985 353.896 C 171.548 351.448,166.789 351.363,162.695 353.677 C 161.997 354.072,161.360 354.424,161.279 354.460 C 160.713 354.711,161.514 350.894,162.408 349.076 C 164.309 345.214,167.573 343.756,170.955 345.261 M132.240 355.784 C 134.044 356.319,137.109 358.113,137.109 358.634 C 137.109 359.090,135.838 361.167,135.065 361.974 C 131.632 365.557,126.833 364.557,124.408 359.754 L 123.794 358.538 124.348 358.068 C 127.033 355.791,129.682 355.025,132.240 355.784 M170.920 355.867 C 172.227 356.307,173.121 356.826,174.360 357.863 L 175.184 358.554 174.593 359.736 C 171.712 365.503,165.408 365.574,162.482 359.873 L 161.816 358.575 162.500 358.004 C 165.061 355.863,168.397 355.017,170.920 355.867 M335.149 358.297 C 336.726 359.113,337.289 362.083,335.874 362.121 C 335.640 362.127,334.834 362.293,334.082 362.490 C 332.547 362.892,332.200 362.807,331.740 361.918 C 330.592 359.698,332.971 357.171,335.149 358.297 M367.371 358.365 C 369.093 359.288,369.202 362.762,367.498 362.413 C 367.166 362.344,366.235 362.204,365.430 362.101 C 363.722 361.883,363.399 361.607,363.542 360.491 C 363.793 358.529,365.702 357.470,367.371 358.365 M352.832 364.470 C 354.574 365.311,353.823 366.122,350.830 366.634 C 347.778 367.156,343.703 365.684,345.544 364.725 C 347.500 363.706,350.995 363.584,352.832 364.470 M340.656 365.552 C 341.279 365.655,341.412 365.778,341.693 366.514 C 343.481 371.196,355.597 371.302,357.248 366.650 C 357.551 365.795,364.093 365.118,366.406 365.702 C 376.997 368.375,376.765 383.273,366.016 390.807 C 350.611 401.603,326.485 392.939,326.330 376.556 C 326.262 369.353,332.884 364.267,340.656 365.552 M103.363 372.375 C 101.449 373.716,102.389 376.563,104.746 376.563 C 106.910 376.563,107.818 373.806,106.100 372.454 C 105.496 371.980,103.989 371.936,103.363 372.375 M347.699 375.393 C 346.329 376.484,345.565 376.758,343.888 376.758 C 341.321 376.758,341.086 377.467,342.172 381.931 C 343.583 387.732,345.141 390.490,347.473 391.313 C 351.576 392.760,354.934 389.215,356.147 382.152 C 356.873 377.928,356.431 376.758,354.108 376.758 C 352.850 376.758,352.091 376.440,350.912 375.419 C 349.665 374.340,349.028 374.335,347.699 375.393 M135.319 376.666 C 134.026 377.368,133.768 382.861,134.918 385.196 C 136.206 387.813,139.943 390.039,143.046 390.039 C 145.852 390.039,145.855 382.538,143.051 379.509 C 141.109 377.412,136.837 375.841,135.319 376.666 M161.048 376.680 C 156.362 377.813,153.910 380.794,153.912 385.352 C 153.914 389.921,154.918 390.744,158.884 389.429 C 162.843 388.117,164.850 385.337,164.839 381.181 C 164.827 376.812,164.095 375.943,161.048 376.680 M349.970 379.069 C 350.630 379.525,352.040 380.078,352.543 380.078 C 353.848 380.078,351.427 387.251,349.874 387.989 C 348.359 388.708,347.280 387.251,345.913 382.641 C 345.164 380.112,345.162 380.153,346.045 380.008 C 346.448 379.942,347.305 379.630,347.949 379.314 C 349.368 378.620,349.327 378.625,349.970 379.069 M307.715 379.337 C 306.922 379.792,306.849 380.090,306.842 382.874 C 306.835 385.821,306.923 386.155,307.801 386.519 C 309.566 387.250,310.156 386.373,310.156 383.024 C 310.156 379.411,309.449 378.343,307.715 379.337 M175.824 380.029 C 175.360 380.436,173.075 383.096,172.599 383.784 C 171.766 384.989,172.535 386.523,173.973 386.523 C 175.212 386.523,178.516 382.817,178.516 381.426 C 178.516 379.974,176.866 379.118,175.824 380.029 M139.869 381.343 C 141.119 382.167,142.387 386.133,141.400 386.133 C 139.877 386.133,137.947 383.977,137.604 381.893 C 137.317 380.148,137.855 380.017,139.869 381.343 M161.387 380.811 C 161.750 382.681,160.601 384.743,158.650 385.721 C 157.491 386.302,157.422 386.266,157.422 385.088 C 157.422 383.062,158.132 381.858,159.892 380.904 C 161.286 380.148,161.258 380.149,161.387 380.811 M300.425 386.585 C 299.791 387.260,299.837 388.515,300.515 389.048 C 301.363 389.716,306.257 389.659,306.942 388.974 C 307.547 388.369,307.579 387.362,307.017 386.647 C 306.421 385.889,301.125 385.839,300.425 386.585 M310.050 386.612 C 309.244 387.418,309.453 388.676,310.485 389.226 C 311.179 389.595,315.822 389.528,316.375 389.140 C 317.293 388.498,317.310 386.812,316.403 386.327 C 315.546 385.867,310.571 386.091,310.050 386.612 M386.217 386.598 C 383.165 388.019,382.454 392.230,384.859 394.635 C 388.054 397.830,393.423 395.625,393.438 391.113 C 393.450 387.332,389.689 384.981,386.217 386.598 M189.933 387.393 C 189.167 388.159,189.268 389.195,190.213 390.258 L 190.973 391.113 190.213 391.939 C 188.065 394.273,190.606 396.464,192.920 394.274 L 193.555 393.673 194.189 394.286 C 196.455 396.470,199.018 394.242,196.892 391.936 L 196.128 391.107 196.892 390.287 C 198.960 388.070,196.656 385.668,194.429 387.720 L 193.555 388.526 192.680 387.720 C 191.613 386.736,190.698 386.628,189.933 387.393 M307.315 389.347 C 306.852 389.810,306.836 389.917,306.836 392.578 C 306.836 395.802,307.064 396.289,308.571 396.289 C 309.942 396.289,310.156 395.782,310.156 392.543 C 310.156 389.403,309.914 388.867,308.496 388.867 C 308.012 388.867,307.646 389.016,307.315 389.347 M389.124 389.680 C 390.225 390.267,390.372 391.482,389.438 392.268 C 387.838 393.615,385.911 391.415,387.393 389.933 C 387.917 389.409,388.464 389.329,389.124 389.680 M106.872 389.855 C 102.161 390.794,101.454 397.599,105.859 399.594 C 107.625 400.393,109.986 400.054,111.414 398.798 C 115.409 395.281,112.122 388.809,106.872 389.855 M108.671 393.436 C 110.267 394.103,109.734 396.549,107.993 396.549 C 105.946 396.549,105.922 393.636,107.965 393.176 C 107.996 393.170,108.313 393.286,108.671 393.436 ">
        </path>
    </g>
</svg>