<?xml version="1.0" encoding="UTF-8" standalone="no"?>
<svg width="400px" height="400px" viewBox="0 0 400 400" version="1.1" xmlns="http://www.w3.org/2000/svg"
    xmlns:xlink="http://www.w3.org/1999/xlink">
    <title>pokemonset 1</title>
    <defs></defs>
    <style>
        #pokemonset {
            /* fill: currentColor; */
            fill: green;
            fill-opacity: .25;
            stroke: none;
            fill-rule: evenodd;
        }
    </style>
    <g id="svg">
        <path id="pokemonset"
            d="M81.697 0.439 C 80.624 1.612,80.974 2.432,83.653 5.029 C 86.065 7.368,86.782 7.611,87.776 6.430 C 88.777 5.240,88.450 4.502,85.773 1.904 C 83.564 -0.239,82.626 -0.576,81.697 0.439 M91.738 2.313 C 89.137 4.946,88.954 5.390,90.024 6.460 C 91.148 7.584,91.720 7.365,94.276 4.834 C 96.857 2.278,97.113 1.716,96.193 0.624 C 95.116 -0.657,94.404 -0.387,91.738 2.313 M24.805 0.520 C 23.298 1.120,23.335 2.825,24.887 4.282 L 25.384 4.749 24.606 5.593 C 22.529 7.846,24.882 10.225,27.108 8.122 L 28.021 7.259 28.944 8.122 C 31.206 10.238,33.523 7.843,31.420 5.562 L 30.614 4.687 31.420 3.813 C 33.495 1.562,31.168 -0.827,28.935 1.261 L 28.005 2.132 27.226 1.353 C 26.455 0.581,25.487 0.249,24.805 0.520 M205.295 5.578 C 203.639 6.972,204.959 9.697,207.095 9.297 C 208.723 8.991,209.391 6.822,208.218 5.649 C 207.444 4.875,206.167 4.844,205.295 5.578 M220.843 5.737 C 215.452 7.748,216.734 15.484,222.461 15.497 C 228.861 15.512,229.148 5.945,222.760 5.537 C 222.044 5.491,221.292 5.570,220.843 5.737 M277.628 5.948 C 276.636 6.940,276.894 7.634,279.063 9.804 C 281.233 11.973,281.927 12.232,282.919 11.239 C 283.911 10.247,283.653 9.553,281.483 7.384 C 279.314 5.214,278.620 4.956,277.628 5.948 M285.885 7.377 C 283.730 9.540,283.470 10.246,284.464 11.239 C 285.456 12.232,286.150 11.973,288.319 9.804 C 290.489 7.634,290.747 6.940,289.755 5.948 C 288.755 4.949,288.041 5.212,285.885 7.377 M45.020 6.908 C 42.931 7.587,41.971 8.371,39.785 11.180 C 38.148 13.285,36.748 14.458,29.688 19.640 C 23.811 23.953,21.209 26.275,19.936 28.339 C 19.376 29.248,19.114 29.479,18.333 29.757 C 15.599 30.728,13.867 33.254,13.867 36.272 C 13.867 38.692,16.278 47.526,17.220 48.558 C 17.595 48.969,17.592 48.989,16.825 51.293 C 10.350 70.753,20.594 91.436,40.028 98.138 C 51.311 102.029,66.352 99.521,74.469 92.395 C 76.600 90.523,74.133 88.178,71.854 89.910 C 59.276 99.471,40.873 98.442,29.216 87.525 C 7.318 67.018,21.093 30.607,51.074 29.750 C 76.000 29.038,92.780 54.938,82.021 77.515 C 80.785 80.108,80.748 80.981,81.850 81.550 C 83.196 82.246,83.980 81.728,85.139 79.376 C 89.595 70.328,90.198 60.432,86.886 50.713 C 86.299 48.990,86.298 48.983,86.680 48.564 C 87.662 47.490,90.039 38.700,90.039 36.146 C 90.039 33.167,87.211 29.517,84.881 29.490 C 84.764 29.488,84.360 28.985,83.984 28.370 C 82.658 26.203,80.155 23.993,73.535 19.145 C 66.849 14.248,65.433 13.041,63.675 10.741 C 62.242 8.865,61.164 7.897,59.789 7.253 L 58.691 6.738 52.246 6.696 C 47.394 6.665,45.608 6.717,45.020 6.908 M83.563 10.488 C 80.982 13.037,80.642 13.818,81.689 14.795 C 82.870 15.897,83.570 15.598,86.279 12.838 C 88.621 10.453,88.872 9.712,87.680 8.709 C 86.551 7.758,86.152 7.930,83.563 10.488 M90.024 8.774 C 88.925 9.873,89.138 10.478,91.455 12.838 C 94.154 15.588,94.754 15.874,95.860 14.944 C 97.130 13.875,96.861 13.032,94.474 10.592 C 91.944 8.006,91.126 7.672,90.024 8.774 M223.637 9.523 C 224.849 11.063,222.873 12.949,221.386 11.670 C 220.185 10.637,221.212 8.642,222.789 8.943 C 223.043 8.992,223.425 9.253,223.637 9.523 M50.000 18.063 L 50.000 25.969 49.561 26.049 C 49.319 26.093,48.053 26.271,46.747 26.444 C 42.899 26.955,39.395 28.007,35.791 29.734 C 35.012 30.107,34.375 30.389,34.375 30.360 C 34.375 28.331,41.578 16.559,45.873 11.569 L 47.089 10.156 48.544 10.156 L 50.000 10.156 50.000 18.063 M58.928 12.500 C 63.246 17.836,67.156 24.211,69.208 29.260 L 69.694 30.457 68.197 29.706 C 64.321 27.763,59.772 26.524,54.834 26.067 L 53.516 25.945 53.516 18.044 L 53.516 10.142 55.313 10.198 L 57.110 10.254 58.928 12.500 M279.040 14.230 C 276.898 16.411,276.647 17.094,277.628 18.075 C 278.620 19.068,279.314 18.809,281.483 16.640 C 283.653 14.470,283.911 13.776,282.919 12.784 C 281.910 11.775,281.188 12.045,279.040 14.230 M284.409 12.757 C 283.473 13.753,283.759 14.499,285.899 16.640 C 288.069 18.809,288.763 19.068,289.755 18.075 C 290.747 17.083,290.489 16.389,288.319 14.220 C 286.162 12.062,285.348 11.758,284.409 12.757 M6.872 17.785 C 4.378 18.282,2.481 20.933,2.816 23.453 C 3.662 29.831,12.777 29.633,13.237 23.227 C 13.487 19.737,10.385 17.084,6.872 17.785 M246.680 18.969 C 224.212 21.551,211.464 46.091,221.855 66.756 C 222.709 68.455,222.687 68.555,221.460 68.555 C 216.405 68.555,207.668 73.232,201.709 79.129 C 199.277 81.536,199.279 81.943,201.743 84.381 C 212.084 94.615,223.913 97.652,234.359 92.757 L 236.005 91.986 237.582 92.657 C 245.192 95.895,254.808 95.895,262.417 92.657 L 263.995 91.986 265.464 92.665 C 276.212 97.631,287.835 94.695,298.257 84.381 C 300.714 81.950,300.717 81.565,298.291 79.141 C 292.428 73.282,283.609 68.555,278.540 68.555 C 277.307 68.555,277.304 68.492,278.421 66.148 C 285.997 50.259,279.713 29.569,265.039 22.086 C 259.689 19.359,253.071 18.235,246.680 18.969 M74.023 23.961 C 77.891 26.828,80.469 29.080,80.469 29.590 C 80.469 29.705,79.084 30.138,77.393 30.553 C 75.701 30.968,74.221 31.343,74.104 31.385 C 73.986 31.428,73.437 30.312,72.866 28.866 C 72.302 27.438,71.099 24.836,70.195 23.084 C 68.639 20.071,68.584 19.924,69.187 20.373 C 69.537 20.634,71.714 22.248,74.023 23.961 M33.411 23.877 C 32.381 25.945,31.231 28.492,30.857 29.537 C 30.351 30.948,30.100 31.415,29.883 31.351 C 29.722 31.304,28.271 30.942,26.660 30.547 C 23.037 29.658,23.154 29.792,24.640 28.238 C 25.637 27.196,34.749 20.181,35.172 20.131 C 35.234 20.123,34.442 21.809,33.411 23.877 M9.277 21.911 C 10.587 23.467,8.361 25.566,6.925 24.130 C 5.841 23.046,6.567 21.289,8.099 21.289 C 8.596 21.289,8.881 21.439,9.277 21.911 M255.469 22.582 C 266.824 24.419,275.134 32.691,277.517 44.531 C 279.685 55.298,277.189 64.390,269.663 73.137 L 268.998 73.911 268.337 73.249 C 260.098 65.009,240.346 64.860,231.952 72.974 L 230.994 73.900 230.332 73.132 C 223.870 65.622,221.021 57.576,221.864 49.219 C 223.685 31.169,238.069 19.767,255.469 22.582 M24.499 33.712 L 28.093 34.611 25.909 36.788 C 23.642 39.047,21.662 41.524,20.405 43.673 C 20.004 44.360,19.620 44.922,19.554 44.922 C 19.144 44.922,17.324 36.123,17.566 35.313 C 17.951 34.030,19.326 32.925,20.658 32.830 C 20.794 32.820,22.523 33.217,24.499 33.712 M48.828 34.491 C 41.822 36.500,41.797 36.512,41.797 37.902 C 41.797 38.407,45.461 45.720,45.873 46.037 C 46.106 46.216,47.107 46.270,49.609 46.237 L 53.027 46.191 55.326 43.164 C 59.383 37.821,59.235 38.279,57.830 35.406 C 56.280 32.237,56.584 32.268,48.828 34.491 M85.156 33.567 C 86.810 34.880,86.846 35.687,85.486 41.092 L 84.459 45.173 83.713 43.896 C 82.423 41.691,80.471 39.241,78.121 36.876 L 75.851 34.592 79.381 33.704 C 83.338 32.708,84.053 32.691,85.156 33.567 M290.363 35.948 C 289.112 36.932,289.329 38.981,290.747 39.574 C 292.561 40.332,294.240 38.877,293.721 36.996 C 293.345 35.634,291.496 35.057,290.363 35.948 M54.719 37.198 C 54.919 37.638,54.778 37.892,53.034 40.226 L 51.130 42.773 49.587 42.773 L 48.044 42.773 47.126 40.926 C 46.622 39.909,46.249 39.045,46.298 39.005 C 46.426 38.900,53.955 36.749,54.252 36.733 C 54.389 36.725,54.599 36.935,54.719 37.198 M57.772 45.993 C 53.845 47.987,54.102 47.568,54.102 52.001 C 54.102 57.345,54.391 57.523,59.227 55.148 C 63.634 52.983,63.281 53.513,63.281 49.054 C 63.281 43.504,62.991 43.342,57.772 45.993 M38.965 45.236 C 35.744 46.455,35.742 46.737,38.901 51.970 C 42.136 57.326,42.107 57.317,45.803 54.329 L 48.145 52.436 48.206 51.464 L 48.267 50.492 45.569 47.887 C 41.634 44.087,41.810 44.158,38.965 45.236 M43.418 51.606 C 43.035 52.029,43.079 52.073,41.907 50.098 L 40.981 48.535 42.361 49.892 C 43.665 51.175,43.723 51.269,43.418 51.606 M59.766 49.899 C 59.766 50.753,59.741 50.787,58.796 51.266 C 57.564 51.890,57.617 51.906,57.617 50.919 C 57.617 50.142,58.528 49.325,59.717 49.035 C 59.744 49.029,59.766 49.417,59.766 49.899 M232.863 49.166 C 231.755 49.367,230.664 51.354,230.664 53.172 C 230.664 57.009,233.990 58.716,235.542 55.674 C 237.025 52.768,235.356 48.714,232.863 49.166 M264.648 49.385 C 261.910 50.860,262.630 57.227,265.535 57.227 C 267.211 57.227,268.273 55.583,268.249 53.027 C 268.222 50.227,266.437 48.421,264.648 49.385 M28.922 49.908 C 24.785 51.066,22.462 56.262,22.464 64.355 C 22.466 70.079,24.662 71.918,31.836 72.205 C 42.525 72.632,45.503 68.163,40.775 58.789 C 37.375 52.050,32.996 48.768,28.922 49.908 M69.590 49.961 C 64.122 51.914,57.764 63.771,59.812 68.193 C 61.197 71.183,63.576 72.165,69.434 72.165 C 77.397 72.165,79.914 70.283,79.908 64.330 C 79.898 53.928,75.527 47.840,69.590 49.961 M201.401 52.991 C 200.597 53.847,200.806 54.739,202.135 56.123 L 203.294 57.330 202.135 58.528 C 199.480 61.275,201.805 63.597,204.561 60.951 L 205.767 59.792 206.966 60.951 C 209.711 63.604,212.042 61.273,209.388 58.528 L 208.230 57.330 209.388 56.123 C 210.737 54.719,210.950 53.767,210.095 52.964 C 209.216 52.138,208.269 52.362,206.933 53.711 L 205.773 54.884 204.590 53.711 C 203.211 52.345,202.219 52.121,201.401 52.991 M32.315 53.716 C 32.642 53.924,33.030 54.173,33.176 54.269 C 33.380 54.404,33.232 54.637,32.537 55.278 C 29.845 57.760,28.616 60.885,28.614 65.255 L 28.613 68.304 28.052 68.143 C 26.184 67.608,25.894 66.894,26.036 63.191 C 26.324 55.658,29.006 51.611,32.315 53.716 M72.832 53.603 C 74.797 54.620,76.077 58.311,76.288 63.574 C 76.415 66.726,76.245 67.234,74.820 67.961 C 73.640 68.563,73.637 68.559,73.763 66.455 C 74.026 62.075,72.621 58.131,69.872 55.532 L 68.828 54.544 69.424 54.151 C 70.486 53.450,70.789 53.332,71.543 53.326 C 71.951 53.323,72.531 53.448,72.832 53.603 M289.146 55.728 C 284.660 57.863,285.873 64.734,290.816 65.182 C 295.080 65.569,297.828 61.241,295.638 57.588 C 294.354 55.447,291.472 54.621,289.146 55.728 M36.615 58.584 C 38.267 61.303,39.596 64.900,39.378 66.061 C 39.062 67.745,38.125 68.272,34.961 68.547 C 32.159 68.790,32.461 68.920,32.201 67.360 C 31.639 63.984,32.635 60.422,34.751 58.241 C 35.764 57.198,35.774 57.200,36.615 58.584 M67.689 58.346 C 69.737 60.484,70.684 64.028,70.122 67.458 C 69.891 68.868,70.248 68.728,67.403 68.530 C 62.095 68.161,61.621 65.346,65.730 58.581 C 66.578 57.185,66.577 57.186,67.689 58.346 M292.054 58.821 C 293.155 59.407,293.302 60.622,292.368 61.408 C 290.767 62.755,288.841 60.555,290.323 59.073 C 290.847 58.549,291.394 58.469,292.054 58.821 M253.776 70.605 C 266.917 72.328,272.725 81.300,264.635 87.382 C 253.859 95.482,231.640 91.121,231.641 80.906 C 231.642 74.344,242.774 69.163,253.776 70.605 M224.645 71.852 C 224.894 71.947,225.404 72.452,225.778 72.975 C 226.153 73.498,227.038 74.585,227.746 75.391 L 229.033 76.855 228.638 77.930 C 227.409 81.281,228.485 85.413,231.386 88.489 L 232.633 89.810 231.517 90.227 C 222.880 93.459,213.827 90.941,205.271 82.929 L 203.999 81.738 205.204 80.610 C 210.507 75.644,216.845 72.399,222.266 71.876 C 223.071 71.798,223.835 71.722,223.962 71.707 C 224.089 71.692,224.397 71.757,224.645 71.852 M279.297 72.107 C 284.032 72.897,289.899 76.096,294.591 80.447 L 296.011 81.762 294.343 83.268 C 285.670 91.097,276.996 93.434,268.493 90.234 L 267.357 89.806 268.499 88.604 C 271.502 85.444,272.611 81.312,271.363 77.930 L 270.967 76.855 272.252 75.391 C 272.958 74.585,273.868 73.470,274.275 72.913 C 275.228 71.608,275.775 71.520,279.297 72.107 M246.681 74.027 C 238.250 74.909,233.547 78.725,235.662 82.969 C 239.094 89.857,260.920 89.828,264.357 82.932 C 267.058 77.511,257.827 72.861,246.681 74.027 M254.395 77.631 C 259.465 78.456,262.392 80.399,260.865 81.927 C 257.476 85.315,245.251 85.688,240.025 82.563 C 235.294 79.733,245.590 76.199,254.395 77.631 M45.401 78.800 C 44.282 79.919,44.869 81.120,47.081 82.232 C 49.524 83.460,50.977 83.111,50.977 81.296 C 50.977 79.468,46.664 77.537,45.401 78.800 M55.281 79.018 C 53.049 80.065,52.520 80.867,53.198 82.179 C 54.240 84.193,59.476 81.912,59.041 79.634 C 58.772 78.227,57.434 78.008,55.281 79.018 M4.091 83.312 C 3.311 84.142,3.438 85.156,4.450 86.188 L 5.278 87.032 4.673 87.608 C 3.405 88.813,3.229 89.713,4.077 90.661 C 4.930 91.616,5.797 91.545,6.935 90.428 L 7.813 89.567 8.643 90.363 C 9.590 91.272,10.132 91.462,10.957 91.175 C 12.320 90.700,12.409 89.039,11.136 87.797 L 10.362 87.041 11.236 86.107 C 13.400 83.794,11.011 81.476,8.679 83.626 L 7.796 84.440 6.967 83.626 C 5.929 82.608,4.862 82.491,4.091 83.312 M78.882 83.205 C 78.154 83.631,75.759 86.707,75.654 87.351 C 75.381 89.035,77.408 89.875,78.799 88.654 C 81.412 86.360,82.195 84.092,80.650 83.294 C 80.021 82.968,79.345 82.934,78.882 83.205 M90.185 84.263 C 86.599 85.543,85.579 90.236,88.296 92.954 C 91.781 96.438,97.656 93.607,97.211 88.658 C 96.909 85.290,93.421 83.108,90.185 84.263 M92.664 87.691 C 92.940 87.796,93.315 88.195,93.498 88.578 C 94.404 90.478,91.476 91.874,90.509 90.004 C 89.760 88.555,91.114 87.102,92.664 87.691 M189.708 100.666 C 189.010 101.266,188.746 106.244,189.351 107.413 C 189.918 108.510,191.135 108.700,192.007 107.828 L 192.578 107.257 192.578 104.205 C 192.578 101.226,192.567 101.143,192.099 100.675 C 191.459 100.035,190.447 100.031,189.708 100.666 M388.965 101.241 C 384.092 103.515,385.662 110.877,391.030 110.929 C 395.448 110.971,397.819 105.771,394.899 102.445 C 393.476 100.824,390.954 100.313,388.965 101.241 M126.660 102.970 C 125.496 103.638,125.449 104.922,126.545 106.111 L 127.310 106.940 126.545 107.759 C 124.362 110.100,126.913 112.305,129.248 110.094 L 129.883 109.494 130.518 110.094 C 132.813 112.267,135.355 110.074,133.224 107.759 L 132.464 106.934 133.224 106.078 C 135.241 103.810,132.804 101.524,130.631 103.645 L 129.884 104.375 129.249 103.773 C 128.158 102.741,127.445 102.520,126.660 102.970 M302.805 104.135 C 302.315 104.372,301.953 105.083,301.953 105.810 C 301.953 106.648,305.756 110.352,306.617 110.352 C 307.494 110.352,308.398 109.447,308.398 108.570 C 308.398 108.019,308.120 107.652,306.386 105.918 C 304.274 103.807,303.884 103.612,302.805 104.135 M311.083 105.615 C 308.631 108.000,308.221 109.532,309.867 110.157 C 310.870 110.539,311.153 110.387,313.212 108.361 C 315.615 105.997,315.921 104.958,314.439 104.192 C 313.344 103.626,312.962 103.788,311.083 105.615 M391.925 104.479 C 393.344 105.344,392.736 107.399,391.056 107.416 C 389.359 107.432,388.869 105.229,390.386 104.406 C 391.082 104.028,391.195 104.034,391.925 104.479 M368.626 105.620 C 367.325 106.674,367.496 108.723,368.947 109.474 C 371.242 110.660,373.421 107.757,371.602 105.938 C 370.820 105.156,369.387 105.003,368.626 105.620 M104.199 108.190 C 99.105 109.431,99.083 116.811,104.168 118.182 C 107.344 119.038,110.534 116.536,110.541 113.184 C 110.547 109.857,107.431 107.404,104.199 108.190 M181.821 108.579 C 181.431 108.968,181.250 109.345,181.250 109.766 C 181.250 110.186,181.431 110.563,181.821 110.953 L 182.392 111.523 185.352 111.523 L 188.311 111.523 188.882 110.953 C 189.272 110.563,189.453 110.186,189.453 109.766 C 189.453 109.345,189.272 108.968,188.882 108.579 L 188.311 108.008 185.352 108.008 L 182.392 108.008 181.821 108.579 M193.262 108.233 C 192.242 108.791,192.039 110.221,192.862 111.044 C 193.330 111.512,193.414 111.523,196.387 111.523 C 200.145 111.523,201.044 110.915,200.269 108.895 C 199.952 108.068,194.504 107.554,193.262 108.233 M153.166 110.951 C 144.849 112.031,137.840 118.006,134.736 126.662 C 134.285 127.917,134.283 127.920,133.402 128.042 C 112.798 130.905,98.815 150.976,103.204 171.389 C 108.122 194.265,133.346 206.485,154.395 196.189 C 160.396 193.253,162.499 190.960,160.483 189.548 C 159.717 189.011,159.111 189.208,156.825 190.739 C 134.996 205.356,105.961 189.958,105.971 163.770 C 105.980 139.752,131.044 124.017,152.637 134.473 C 168.948 142.371,175.549 161.279,167.825 177.976 C 166.422 181.009,166.644 182.031,168.707 182.031 C 169.695 182.031,169.859 181.835,171.195 179.057 L 172.291 176.777 173.694 177.966 C 179.615 182.982,187.024 184.848,193.419 182.932 C 198.013 181.556,198.499 180.581,195.941 177.865 C 192.155 173.846,190.823 169.033,189.258 153.711 C 187.181 133.372,184.684 125.554,178.180 119.024 C 172.548 113.368,161.646 109.850,153.166 110.951 M305.957 111.019 C 304.533 111.654,301.892 114.770,302.013 115.673 C 302.149 116.686,302.705 117.188,303.695 117.188 C 304.540 117.188,308.398 113.535,308.398 112.736 C 308.398 111.932,308.010 111.309,307.332 111.026 C 306.536 110.693,306.685 110.694,305.957 111.019 M309.836 111.029 C 308.198 111.729,308.528 112.976,310.989 115.381 C 313.087 117.431,313.786 117.677,314.755 116.708 C 315.742 115.721,315.487 115.036,313.330 112.880 C 311.317 110.868,310.824 110.607,309.836 111.029 M190.100 111.414 C 189.210 111.808,189.016 112.646,189.095 115.757 C 189.172 118.785,189.444 119.336,190.863 119.336 C 192.377 119.336,192.578 118.869,192.578 115.352 C 192.578 111.544,191.975 110.586,190.100 111.414 M106.236 111.809 C 107.185 112.300,107.342 113.574,106.552 114.364 C 105.545 115.371,103.828 114.627,103.828 113.184 C 103.828 111.878,105.036 111.189,106.236 111.809 M385.695 114.384 C 382.229 117.595,378.409 120.286,374.361 122.370 L 372.107 123.530 371.254 122.917 C 368.670 121.061,366.040 120.274,362.630 120.337 L 360.318 120.379 359.349 119.085 C 353.979 111.913,342.565 112.037,337.216 119.324 L 336.527 120.262 334.426 120.355 C 331.013 120.505,328.533 121.576,325.891 124.040 L 324.512 125.327 322.266 125.744 C 315.180 127.061,307.930 131.004,302.099 136.713 C 300.074 138.696,299.999 138.799,299.999 139.608 C 300.001 141.369,301.052 141.757,303.364 140.847 C 306.769 139.508,310.404 138.538,314.063 137.994 C 316.076 137.694,322.067 137.350,321.875 137.545 C 321.821 137.600,320.975 138.138,319.995 138.741 C 307.204 146.609,301.973 159.891,305.441 175.693 C 306.479 180.423,307.274 182.031,308.572 182.031 C 309.989 182.031,310.160 181.712,310.462 178.508 C 310.850 174.385,310.838 174.401,311.690 176.893 C 317.694 194.460,342.748 203.907,364.355 196.752 C 383.609 190.377,392.959 172.976,385.211 157.941 C 383.811 155.224,382.881 154.647,381.569 155.678 C 380.766 156.310,380.880 157.129,382.123 159.650 C 390.747 177.130,373.746 195.703,349.121 195.703 C 326.402 195.703,309.427 179.438,314.775 162.793 C 316.035 158.870,321.199 153.004,326.521 149.450 C 329.821 147.245,330.302 147.029,331.202 147.346 C 333.096 148.015,335.505 148.147,338.281 147.734 C 338.864 147.647,339.123 147.754,340.039 148.455 C 345.049 152.292,352.870 152.038,357.462 147.889 L 358.192 147.230 359.418 147.536 C 362.167 148.223,364.845 148.128,367.516 147.249 C 368.899 146.794,368.685 146.731,371.509 148.430 C 375.197 150.648,377.125 147.898,373.517 145.565 L 372.168 144.693 374.414 144.799 C 381.518 145.133,388.801 147.985,395.725 153.143 C 398.050 154.876,398.677 155.052,399.521 154.208 C 400.348 153.381,400.190 152.519,398.779 150.174 C 394.123 142.436,386.531 136.102,379.250 133.881 C 376.996 133.193,377.046 133.325,378.547 132.019 C 382.295 128.760,386.914 121.955,389.049 116.548 C 389.797 114.651,389.802 114.186,389.078 113.462 C 388.117 112.501,387.566 112.651,385.695 114.384 M162.402 114.930 C 178.074 118.584,182.925 126.454,185.643 152.637 C 186.489 160.783,186.629 161.959,187.122 165.033 C 188.056 170.860,189.651 175.488,191.717 178.370 C 192.595 179.594,192.592 179.603,191.064 179.900 C 185.758 180.935,180.251 179.124,175.418 174.753 C 173.362 172.894,173.420 173.028,173.839 171.090 C 176.925 156.808,170.637 141.718,158.183 133.516 L 157.088 132.795 156.589 130.889 C 153.442 118.882,146.409 117.398,138.829 127.143 C 137.914 128.318,138.038 127.667,139.150 125.445 C 143.722 116.312,152.093 112.526,162.402 114.930 M350.839 117.478 C 352.560 117.926,354.154 118.825,355.557 120.138 C 357.060 121.544,357.064 121.556,356.062 122.067 C 355.636 122.284,354.800 122.859,354.204 123.345 L 353.119 124.228 351.991 123.935 C 350.216 123.476,348.251 123.363,346.493 123.620 L 344.893 123.854 343.882 123.081 C 343.326 122.656,342.322 122.034,341.650 121.698 C 340.157 120.952,340.157 120.944,341.584 119.757 C 344.258 117.532,347.747 116.673,350.839 117.478 M382.317 122.021 C 380.721 124.508,376.678 129.297,376.176 129.297 C 376.096 129.297,375.886 128.921,375.711 128.463 C 375.536 128.004,375.184 127.324,374.929 126.952 L 374.465 126.275 376.631 125.125 C 377.822 124.492,379.635 123.421,380.658 122.745 C 381.682 122.069,382.552 121.509,382.591 121.500 C 382.630 121.491,382.507 121.726,382.317 122.021 M337.524 123.914 C 338.235 124.065,339.362 124.463,340.027 124.799 L 341.237 125.410 340.492 125.907 C 335.118 129.491,333.017 137.087,335.740 143.092 C 336.063 143.806,336.328 144.422,336.328 144.461 C 336.328 144.998,332.341 144.206,330.584 143.319 C 320.027 137.990,325.938 121.458,337.524 123.914 M365.224 123.935 C 377.582 126.848,375.031 145.128,362.356 144.488 C 360.430 144.390,360.417 144.380,360.904 143.425 C 363.632 138.077,362.027 130.416,357.414 126.770 L 356.445 126.004 356.982 125.625 C 359.411 123.911,362.466 123.285,365.224 123.935 M149.199 124.502 C 150.350 125.097,151.711 127.183,152.562 129.657 C 152.898 130.634,152.900 130.693,152.584 130.554 C 150.389 129.590,146.640 128.548,143.457 128.018 L 142.676 127.888 144.127 126.541 C 146.364 124.467,147.921 123.841,149.199 124.502 M350.853 127.248 C 358.776 129.311,361.431 138.955,355.664 144.728 C 349.828 150.570,339.908 147.521,338.186 139.355 C 336.645 132.048,343.634 125.367,350.853 127.248 M322.264 129.443 C 322.262 129.524,322.139 129.993,321.990 130.486 C 321.840 130.978,321.656 131.956,321.581 132.658 L 321.444 133.934 319.169 134.065 C 316.347 134.229,312.570 134.674,310.736 135.060 C 309.974 135.220,309.289 135.350,309.216 135.348 C 308.878 135.339,312.827 132.934,314.821 131.936 C 317.796 130.446,322.271 128.947,322.264 129.443 M378.647 137.327 C 382.707 138.760,386.454 141.174,390.088 144.699 C 391.572 146.138,391.506 146.246,389.697 145.341 C 385.559 143.272,378.952 141.410,375.732 141.407 C 374.856 141.406,374.869 141.535,375.586 140.002 C 375.909 139.313,376.281 138.292,376.414 137.734 C 376.699 136.535,376.502 136.571,378.647 137.327 M323.932 141.943 C 324.342 142.561,325.147 143.526,325.722 144.088 L 326.767 145.109 325.151 146.155 C 320.133 149.403,315.917 153.754,312.461 159.255 C 311.483 160.812,309.507 165.754,308.706 168.647 C 307.898 171.564,307.751 171.217,307.755 166.406 C 307.765 155.312,312.501 147.452,323.166 140.833 C 323.177 140.826,323.522 141.326,323.932 141.943 M376.627 149.686 C 374.924 151.151,378.783 155.859,380.821 154.805 C 382.266 154.058,382.020 152.846,380.017 150.843 C 378.190 149.016,377.629 148.824,376.627 149.686 M115.688 151.051 C 112.392 152.128,110.398 155.892,109.747 162.259 C 108.984 169.737,110.693 172.007,117.576 172.656 C 128.634 173.699,132.159 169.218,127.641 159.863 C 124.420 153.195,119.723 149.732,115.688 151.051 M155.240 151.235 C 151.965 152.616,148.149 157.749,146.311 163.244 C 144.018 170.098,148.266 173.545,157.902 172.649 C 164.464 172.038,166.241 169.770,165.631 162.784 C 164.828 153.577,160.662 148.947,155.240 151.235 M119.626 154.965 L 120.334 155.505 119.363 156.533 C 116.643 159.409,115.188 163.548,115.532 167.432 L 115.669 168.986 115.208 168.847 C 113.377 168.300,113.033 167.510,113.162 164.160 C 113.459 156.451,116.291 152.422,119.626 154.965 M158.984 154.590 C 161.777 156.034,163.533 166.549,161.263 168.238 C 160.353 168.915,159.499 169.088,159.666 168.560 C 160.702 165.296,158.846 159.496,155.716 156.219 L 155.033 155.504 155.866 154.900 C 156.817 154.212,158.021 154.092,158.984 154.590 M123.575 159.717 C 127.760 166.506,126.776 169.336,120.228 169.336 L 119.390 169.336 119.168 168.229 C 119.045 167.620,118.945 166.836,118.945 166.486 L 118.945 165.850 119.502 166.407 C 121.184 168.089,123.995 166.747,123.773 164.368 C 123.602 162.533,121.397 161.410,119.952 162.423 C 119.230 162.928,120.454 160.671,121.582 159.416 C 122.716 158.155,122.601 158.138,123.575 159.717 M153.775 159.379 C 155.154 160.913,156.011 162.804,155.108 162.321 C 154.078 161.769,152.379 162.268,151.859 163.275 C 150.477 165.948,153.744 168.492,155.852 166.384 L 156.445 165.790 156.426 166.440 C 156.416 166.797,156.306 167.573,156.182 168.164 L 155.957 169.238 154.590 169.223 C 148.891 169.160,147.989 167.507,150.606 161.922 C 151.456 160.107,152.490 158.398,152.737 158.398 C 152.823 158.398,153.290 158.840,153.775 159.379 M340.756 159.229 C 340.494 159.578,340.125 160.171,339.935 160.547 C 338.173 164.028,332.626 165.969,328.711 164.473 C 326.726 163.715,325.586 164.163,325.586 165.703 C 325.586 168.214,331.647 169.330,336.369 167.688 C 340.847 166.131,345.145 160.753,343.298 159.018 C 342.563 158.328,341.355 158.428,340.756 159.229 M355.143 159.097 C 353.276 160.964,357.939 166.329,362.793 167.898 C 367.396 169.387,373.596 167.838,372.972 165.354 C 372.645 164.049,371.739 163.796,369.817 164.474 C 365.535 165.984,360.821 164.239,358.460 160.268 C 357.355 158.408,356.229 158.011,355.143 159.097 M135.449 174.034 C 133.363 174.360,130.719 175.368,129.267 176.392 C 128.809 176.715,128.350 176.759,125.360 176.764 C 121.821 176.771,121.578 176.823,121.126 177.673 C 120.319 179.187,121.257 180.153,123.623 180.244 L 125.405 180.313 126.010 181.514 C 131.587 192.574,143.723 192.697,149.627 181.753 L 150.425 180.273 151.550 180.273 C 153.628 180.273,154.689 179.467,154.392 178.113 C 154.128 176.913,153.631 176.758,150.022 176.755 L 146.777 176.753 144.675 175.696 C 141.631 174.166,138.368 173.578,135.449 174.034 M331.818 174.283 C 328.993 175.774,329.001 180.160,331.831 181.592 C 332.698 182.030,332.724 182.031,342.522 182.031 L 352.344 182.031 352.344 185.260 C 352.344 189.434,352.762 190.490,354.785 191.427 C 357.793 192.819,360.484 190.834,360.699 187.064 L 360.796 185.352 361.502 185.350 C 363.270 185.345,365.430 183.510,365.430 182.011 C 365.430 181.694,365.700 181.158,366.107 180.671 C 367.508 178.995,367.527 176.821,366.153 175.257 C 364.835 173.756,365.849 173.837,348.322 173.832 L 332.679 173.828 331.818 174.283 M352.344 177.930 L 352.344 178.711 342.983 178.711 C 333.262 178.711,333.008 178.691,333.008 177.927 C 333.008 177.194,333.602 177.148,343.110 177.148 L 352.344 177.148 352.344 177.930 M361.802 177.455 C 362.228 177.881,362.247 181.284,361.826 181.633 C 361.349 182.029,360.877 181.787,360.697 181.054 C 360.486 180.195,359.718 179.492,358.989 179.492 C 357.406 179.492,357.227 179.988,357.227 184.351 C 357.227 188.165,357.085 188.728,356.236 188.274 C 355.681 187.976,355.647 177.682,356.201 177.359 C 356.794 177.014,361.441 177.094,361.802 177.455 M140.282 177.722 C 141.756 178.098,143.208 178.742,144.522 179.601 C 144.903 179.850,145.457 180.113,145.752 180.185 C 146.432 180.351,146.353 180.643,145.213 182.182 C 145.191 182.212,144.787 182.013,144.315 181.742 C 140.835 179.737,135.652 179.579,131.856 181.361 C 131.062 181.734,130.392 182.015,130.369 181.986 C 130.345 181.957,130.097 181.565,129.816 181.115 L 129.307 180.297 129.741 180.159 C 129.980 180.084,130.442 179.819,130.767 179.572 C 133.279 177.659,137.118 176.912,140.282 177.722 M163.600 184.619 C 161.015 187.347,160.833 189.258,163.159 189.258 C 164.183 189.258,164.335 189.152,165.828 187.393 C 167.544 185.372,167.720 184.175,166.402 183.494 C 165.385 182.968,165.029 183.111,163.600 184.619 M139.844 183.801 C 142.579 184.417,142.840 184.767,141.155 185.556 C 138.426 186.833,135.737 186.683,133.558 185.131 L 132.959 184.704 133.466 184.439 C 134.861 183.708,138.024 183.391,139.844 183.801 M390.769 186.768 C 389.822 187.486,389.922 188.598,391.038 189.755 L 391.800 190.545 391.096 191.220 C 389.780 192.480,389.804 193.899,391.149 194.461 C 392.013 194.822,392.486 194.672,393.466 193.727 L 394.256 192.966 394.931 193.670 C 397.119 195.954,399.610 193.663,397.467 191.338 L 396.692 190.497 397.467 189.740 C 398.881 188.359,398.364 186.523,396.560 186.523 C 395.911 186.523,395.657 186.652,395.026 187.299 L 394.269 188.074 393.428 187.299 C 392.527 186.468,391.447 186.252,390.769 186.768 M185.004 188.003 C 180.197 190.399,181.923 197.670,187.294 197.652 C 190.318 197.642,192.382 195.581,192.377 192.578 C 192.369 188.695,188.470 186.276,185.004 188.003 M308.130 189.533 C 302.879 191.487,304.346 199.325,309.961 199.313 C 316.527 199.299,316.837 189.652,310.282 189.322 C 309.384 189.276,308.617 189.352,308.130 189.533 M188.460 191.512 C 189.435 192.455,188.691 194.206,187.315 194.206 C 185.942 194.206,185.184 192.372,186.182 191.465 C 187.008 190.713,187.648 190.726,188.460 191.512 M311.084 193.221 C 312.084 194.136,311.363 195.898,309.988 195.898 C 308.123 195.898,307.789 193.357,309.570 192.718 C 309.995 192.566,310.581 192.760,311.084 193.221 M87.402 200.465 C 82.499 202.784,84.231 210.191,89.676 210.191 C 94.187 210.191,96.500 204.956,93.470 201.603 C 91.995 199.970,89.457 199.494,87.402 200.465 M244.774 200.301 C 243.725 201.036,242.175 208.204,241.842 213.853 L 241.699 216.280 240.536 214.732 C 236.199 208.959,230.479 204.976,224.259 203.399 C 221.815 202.779,221.395 202.793,220.664 203.525 C 219.761 204.428,219.959 205.091,221.723 207.075 C 226.773 212.756,231.516 220.003,234.285 226.267 L 234.802 227.437 232.196 224.896 C 225.029 217.910,216.927 214.170,216.099 217.466 C 215.930 218.140,216.309 218.805,218.008 220.820 C 219.849 223.002,222.486 226.519,224.657 229.688 L 226.330 232.129 222.979 230.464 C 217.145 227.565,210.898 225.997,207.042 226.463 C 204.425 226.779,204.085 228.698,206.403 230.069 C 210.176 232.299,215.180 235.779,219.036 238.857 C 220.322 239.883,221.465 240.786,221.576 240.863 C 221.694 240.946,221.079 241.711,220.085 242.719 C 208.222 254.741,208.090 278.031,219.858 282.972 C 222.219 283.964,225.610 283.953,228.110 282.946 L 229.169 282.520 230.294 284.766 C 237.040 298.227,250.285 303.581,262.138 297.640 C 264.361 296.525,264.978 295.446,264.060 294.280 C 263.349 293.375,262.795 293.426,260.335 294.621 C 239.787 304.602,221.368 274.641,233.026 250.201 C 241.137 233.197,259.265 231.237,269.309 246.277 C 276.750 257.420,276.974 274.601,269.822 285.647 C 268.666 287.432,268.857 288.841,270.299 289.157 C 271.577 289.438,272.519 288.366,274.444 284.441 L 275.417 282.456 276.234 282.815 C 288.644 288.277,297.658 271.755,291.691 254.481 C 289.374 247.770,285.357 242.218,280.964 239.653 L 280.046 239.116 282.426 237.228 C 285.747 234.593,289.447 231.979,292.773 229.918 C 296.702 227.485,297.331 226.628,296.099 225.396 C 294.051 223.348,282.977 226.024,275.598 230.349 C 274.920 230.746,274.337 231.042,274.301 231.007 C 274.058 230.764,279.482 220.815,281.756 217.332 C 284.851 212.594,282.520 211.458,276.905 214.966 C 272.979 217.420,267.958 222.783,264.772 227.925 C 263.689 229.672,263.683 229.637,264.539 226.547 C 266.547 219.292,269.643 212.732,274.541 205.350 C 276.863 201.850,276.933 201.686,276.472 200.795 C 275.957 199.799,274.949 199.740,272.685 200.575 C 265.664 203.164,259.898 208.832,255.737 217.236 C 254.610 219.513,254.669 219.494,254.217 217.725 C 252.764 212.041,248.746 202.210,247.189 200.529 C 246.618 199.913,245.481 199.806,244.774 200.301 M289.138 201.821 C 285.597 203.157,284.638 207.508,287.299 210.169 C 290.492 213.362,295.612 211.310,295.858 206.738 C 296.048 203.218,292.438 200.577,289.138 201.821 M4.672 203.696 C 3.630 204.738,3.812 205.231,6.092 207.548 C 8.345 209.838,9.048 210.111,10.067 209.091 C 11.087 208.071,10.814 207.369,8.524 205.115 C 6.207 202.835,5.715 202.654,4.672 203.696 M13.145 205.137 C 10.870 207.412,10.608 208.087,11.612 209.091 C 12.650 210.128,13.461 209.838,15.654 207.646 C 17.963 205.337,18.271 204.180,16.783 203.411 C 15.641 202.820,15.300 202.982,13.145 205.137 M202.554 203.598 C 201.613 204.599,201.876 205.286,204.030 207.448 C 206.207 209.633,206.917 209.898,207.919 208.896 C 208.911 207.903,208.653 207.210,206.483 205.040 C 204.312 202.869,203.514 202.576,202.554 203.598 M210.899 205.040 C 208.776 207.163,208.535 207.774,209.389 208.860 C 210.263 209.971,211.153 209.656,213.334 207.467 C 215.514 205.279,215.824 204.398,214.720 203.530 C 213.634 202.675,213.022 202.917,210.899 205.040 M90.768 203.960 C 91.362 204.503,91.487 204.999,91.201 205.688 C 90.511 207.353,88.086 206.878,88.086 205.078 C 88.086 203.576,89.641 202.928,90.768 203.960 M67.090 204.719 C 65.645 205.513,65.642 208.094,67.084 208.751 C 68.755 209.512,70.508 208.482,70.508 206.738 C 70.508 205.023,68.593 203.892,67.090 204.719 M291.584 205.167 C 293.115 205.959,292.512 208.203,290.768 208.203 C 289.116 208.203,288.746 205.705,290.304 205.076 C 290.888 204.841,290.965 204.846,291.584 205.167 M269.002 207.471 C 264.216 215.321,259.766 227.766,259.766 233.299 L 259.766 233.942 258.643 233.596 C 257.579 233.267,257.512 233.209,257.376 232.494 C 257.297 232.078,256.972 230.298,256.655 228.538 L 256.077 225.338 257.064 222.805 C 259.207 217.305,261.894 212.926,265.137 209.646 C 266.664 208.102,269.668 205.664,270.043 205.664 C 270.076 205.664,269.608 206.477,269.002 207.471 M248.140 210.449 C 250.079 215.422,252.177 223.014,253.214 228.809 C 253.483 230.313,253.744 231.772,253.794 232.052 L 253.885 232.562 251.406 232.677 C 250.042 232.741,248.361 232.932,247.671 233.101 C 246.018 233.508,246.265 234.113,245.561 227.930 C 244.874 221.901,245.149 211.717,246.122 207.181 L 246.341 206.158 246.822 207.230 C 247.086 207.819,247.680 209.268,248.140 210.449 M51.255 208.001 C 48.833 208.981,43.997 218.992,43.063 224.960 L 42.931 225.799 41.306 224.239 C 35.645 218.804,26.345 214.266,24.623 216.098 C 23.002 217.824,24.103 227.383,26.634 233.554 C 27.132 234.768,27.539 235.783,27.539 235.811 C 27.539 235.839,26.770 235.706,25.830 235.515 C 18.527 234.034,7.282 235.037,4.515 237.417 C 2.332 239.295,9.098 247.143,16.749 251.609 L 18.752 252.778 18.143 253.586 C 5.156 270.824,16.114 292.728,40.625 298.522 C 46.177 299.835,54.285 300.152,59.668 299.267 C 82.194 295.562,95.817 278.542,90.045 261.314 C 88.339 256.222,86.430 254.177,84.854 255.753 C 84.128 256.479,84.245 257.166,85.547 259.819 C 94.264 277.582,76.992 296.289,51.873 296.289 C 29.483 296.289,12.386 280.536,16.824 263.996 C 22.083 244.395,52.755 235.612,73.633 247.728 C 76.915 249.633,77.112 249.680,78.076 248.780 C 79.690 247.274,77.317 245.115,71.238 242.560 C 70.138 242.098,69.197 241.688,69.146 241.650 C 68.798 241.386,74.157 239.628,77.344 238.961 C 81.908 238.005,88.135 238.063,92.424 239.100 L 94.126 239.511 93.699 240.117 C 91.103 243.804,83.552 249.578,81.692 249.299 C 80.155 249.069,79.297 249.709,79.297 251.088 C 79.297 251.763,82.202 254.803,83.018 254.983 C 84.264 255.256,85.431 253.874,84.972 252.667 C 84.795 252.201,84.836 252.122,85.406 251.829 C 92.268 248.300,100.055 239.371,97.962 237.431 C 95.227 234.897,80.311 233.866,75.132 235.854 C 74.925 235.933,75.066 235.433,75.603 234.189 C 77.616 229.519,78.418 225.575,78.418 220.345 L 78.418 216.568 77.870 216.097 C 75.992 214.480,65.761 219.372,61.538 223.906 C 60.880 224.613,60.824 224.572,60.555 223.193 C 59.625 218.428,56.359 211.678,53.608 208.838 C 52.598 207.795,52.154 207.638,51.255 208.001 M230.176 209.720 C 234.099 212.242,237.497 215.930,240.569 220.996 L 241.753 222.949 241.984 226.074 C 242.111 227.793,242.378 230.430,242.577 231.934 C 242.777 233.438,242.880 234.721,242.808 234.786 C 241.469 235.990,240.742 235.866,240.564 234.404 C 239.846 228.530,234.010 216.773,228.058 209.207 L 227.081 207.966 227.945 208.403 C 228.420 208.644,229.424 209.236,230.176 209.720 M204.183 211.745 C 201.754 214.127,201.409 215.450,203.038 216.130 C 204.070 216.561,204.492 216.336,206.522 214.269 C 208.648 212.106,208.898 211.419,207.919 210.440 C 206.952 209.474,206.249 209.719,204.183 211.745 M209.464 210.440 C 208.462 211.442,208.728 212.157,210.889 214.284 C 213.006 216.368,213.252 216.511,214.191 216.201 C 215.973 215.613,215.700 214.256,213.319 211.876 C 211.150 209.706,210.456 209.448,209.464 210.440 M6.215 212.055 C 3.879 214.351,3.593 215.149,4.727 216.206 C 5.996 217.388,10.547 214.048,10.547 211.934 C 10.547 209.470,8.797 209.519,6.215 212.055 M11.985 210.385 C 11.494 210.622,11.133 211.333,11.133 212.060 C 11.133 212.965,14.940 216.602,15.888 216.602 C 16.896 216.602,17.578 215.910,17.578 214.890 C 17.578 214.192,17.428 213.989,15.556 212.146 C 13.438 210.062,13.048 209.870,11.985 210.385 M53.748 215.228 C 56.396 219.992,58.393 227.187,57.372 228.286 C 56.021 229.741,53.826 233.062,52.139 236.208 L 51.205 237.949 50.390 236.327 C 49.443 234.444,47.821 231.789,46.724 230.327 L 45.958 229.306 46.210 227.495 C 46.947 222.216,49.475 215.508,51.735 212.831 C 52.111 212.386,52.281 212.589,53.748 215.228 M31.997 221.721 C 36.412 224.226,40.908 228.338,44.079 232.770 C 45.326 234.512,47.772 238.627,47.635 238.751 C 47.593 238.789,46.504 238.963,45.215 239.139 C 43.926 239.315,41.996 239.655,40.926 239.895 L 38.982 240.332 37.215 239.430 C 36.244 238.933,34.728 238.236,33.846 237.881 L 32.244 237.235 31.175 235.062 C 28.878 230.393,27.346 224.357,27.344 219.977 C 27.344 219.459,29.303 220.193,31.997 221.721 M74.950 222.021 C 74.760 226.073,73.629 230.195,71.446 234.791 L 70.275 237.258 68.878 237.799 C 67.025 238.517,65.230 239.410,64.740 239.859 C 64.371 240.197,64.272 240.202,63.275 239.936 C 61.878 239.563,57.181 238.870,56.038 238.868 C 54.853 238.867,54.815 238.793,55.404 237.631 C 59.241 230.059,66.383 223.226,73.633 220.193 C 74.224 219.945,74.786 219.739,74.882 219.735 C 74.982 219.730,75.011 220.715,74.950 222.021 M275.258 221.338 C 274.017 223.509,270.784 230.112,269.804 232.477 L 268.851 234.778 267.328 235.944 C 265.599 237.268,265.545 237.282,264.746 236.628 L 264.160 236.148 265.166 234.212 C 267.497 229.724,270.559 225.388,273.699 222.128 C 275.944 219.796,276.218 219.658,275.258 221.338 M226.568 224.435 C 229.858 227.032,237.184 235.463,238.021 237.614 C 238.066 237.731,237.420 238.493,236.586 239.308 L 235.070 240.791 233.488 237.729 C 231.071 233.050,227.819 227.815,225.035 224.121 C 224.550 223.477,224.057 222.822,223.941 222.667 C 223.686 222.325,225.102 223.278,226.568 224.435 M286.119 230.100 C 283.907 231.623,280.566 234.175,278.399 235.997 L 276.451 237.636 274.212 237.643 C 272.735 237.648,271.640 237.756,270.996 237.959 L 270.020 238.267 270.508 237.886 C 274.719 234.599,280.892 231.183,285.349 229.673 C 287.664 228.889,287.783 228.955,286.119 230.100 M216.279 231.384 C 218.847 232.233,223.916 234.742,226.632 236.510 L 228.558 237.763 227.609 238.007 C 227.087 238.141,226.236 238.433,225.717 238.656 L 224.773 239.062 223.080 237.636 C 220.746 235.671,218.448 233.905,215.942 232.150 C 214.774 231.333,213.883 230.664,213.960 230.664 C 214.037 230.664,215.081 230.988,216.279 231.384 M22.829 238.577 C 26.326 239.074,28.646 239.689,32.200 241.062 L 34.223 241.844 31.321 243.259 C 28.105 244.828,25.100 246.752,22.805 248.715 L 21.294 250.007 19.973 249.340 C 16.164 247.416,12.207 244.234,9.393 240.831 L 8.352 239.572 9.596 239.219 C 12.843 238.299,18.829 238.008,22.829 238.577 M292.969 238.613 C 292.170 239.024,291.650 240.207,291.874 241.102 C 292.514 243.653,296.289 243.235,296.289 240.613 C 296.289 238.787,294.603 237.771,292.969 238.613 M231.949 242.552 L 232.570 243.991 231.582 245.580 C 226.237 254.180,224.625 266.124,227.352 276.921 C 228.003 279.496,228.086 279.297,226.105 279.909 C 217.552 282.553,212.071 270.474,215.805 257.209 C 218.337 248.214,225.051 240.821,230.459 241.073 L 231.328 241.113 231.949 242.552 M276.953 241.598 C 286.594 245.421,292.860 262.023,288.893 273.233 C 286.793 279.169,281.934 281.792,277.325 279.477 L 276.623 279.125 277.173 277.026 C 280.147 265.659,278.028 252.597,271.779 243.767 C 270.401 241.821,270.401 241.829,271.973 241.328 C 273.280 240.912,275.531 241.034,276.953 241.598 M238.091 255.183 C 235.036 256.040,232.940 258.478,232.919 261.199 C 232.909 262.538,233.370 263.086,234.507 263.086 C 235.714 263.086,236.136 262.607,236.413 260.925 C 237.048 257.066,243.570 257.765,244.231 261.762 C 244.489 263.318,246.664 263.658,247.389 262.255 C 249.274 258.609,242.971 253.814,238.091 255.183 M262.350 255.186 C 259.010 256.085,256.419 259.566,257.240 262.052 C 257.795 263.734,260.547 263.294,260.547 261.523 C 260.547 259.199,263.820 257.631,266.310 258.763 C 267.266 259.197,268.359 260.398,268.359 261.013 C 268.359 262.371,268.998 263.086,270.211 263.086 C 273.184 263.086,271.790 257.610,268.373 255.867 C 266.520 254.921,264.276 254.667,262.350 255.186 M32.562 261.725 C 27.026 263.115,26.260 270.884,31.414 273.374 C 35.517 275.356,40.239 272.351,40.235 267.759 C 40.232 263.704,36.469 260.744,32.562 261.725 M66.465 261.874 C 59.816 264.255,61.337 273.868,68.369 273.912 C 73.806 273.945,76.618 267.564,72.954 263.507 C 71.428 261.819,68.605 261.108,66.465 261.874 M36.705 267.130 C 37.223 269.006,35.282 270.900,33.414 270.340 C 32.239 269.988,31.592 269.148,31.483 267.831 L 31.390 266.707 32.108 267.338 C 33.456 268.522,35.922 267.779,35.944 266.182 C 35.952 265.561,36.439 266.167,36.705 267.130 M67.399 267.464 C 68.221 268.156,69.466 268.163,70.277 267.480 C 71.039 266.840,71.094 266.857,71.094 267.745 C 71.094 269.254,69.591 270.619,68.124 270.440 C 66.118 270.196,65.070 267.928,66.180 266.234 L 66.489 265.762 66.644 266.361 C 66.730 266.690,67.069 267.187,67.399 267.464 M238.286 271.479 C 236.991 272.775,237.644 279.813,239.327 282.684 C 242.137 287.479,245.898 289.196,253.198 289.015 C 258.396 288.886,260.487 288.125,263.273 285.347 C 266.013 282.615,266.817 280.470,266.945 275.550 L 267.035 272.096 266.534 271.595 L 266.033 271.094 252.353 271.094 C 238.991 271.094,238.663 271.103,238.286 271.479 M2.494 272.481 C 1.284 273.383,1.443 275.602,2.767 276.286 C 5.143 277.515,7.475 274.623,5.610 272.759 C 4.769 271.918,3.411 271.796,2.494 272.481 M242.616 275.587 C 242.974 280.537,250.385 280.537,250.743 275.587 L 250.828 274.414 252.344 274.414 L 253.859 274.414 253.944 275.587 C 254.302 280.537,261.713 280.537,262.071 275.587 L 262.156 274.414 262.914 274.414 C 263.639 274.414,263.672 274.441,263.670 275.049 C 263.654 282.157,260.025 285.547,252.431 285.547 C 244.966 285.547,241.211 282.403,241.211 276.151 L 241.211 274.414 241.871 274.414 L 242.531 274.414 242.616 275.587 M247.461 274.888 C 247.461 275.762,246.823 276.167,246.256 275.653 C 245.574 275.036,245.787 274.414,246.680 274.414 C 247.377 274.414,247.461 274.465,247.461 274.888 M258.789 274.888 C 258.789 275.762,258.151 276.167,257.584 275.653 C 256.902 275.036,257.115 274.414,258.008 274.414 C 258.705 274.414,258.789 274.465,258.789 274.888 M45.966 275.269 C 44.887 276.198,45.473 278.932,47.109 280.604 C 50.667 284.238,57.031 281.743,57.031 276.714 C 57.031 274.270,53.985 274.052,53.623 276.469 C 53.151 279.617,48.828 279.476,48.828 276.313 C 48.828 274.976,47.057 274.331,45.966 275.269 M89.187 287.429 C 88.393 288.222,88.484 289.062,89.478 290.141 L 90.284 291.016 89.478 291.890 C 87.389 294.156,89.846 296.538,92.046 294.379 L 92.888 293.553 93.643 294.326 C 94.537 295.241,95.253 295.454,96.052 295.041 C 97.298 294.397,97.309 293.081,96.078 291.879 L 95.311 291.130 96.137 290.288 C 98.296 288.088,95.914 285.632,93.648 287.720 L 92.773 288.526 91.899 287.720 C 90.820 286.726,89.980 286.636,89.187 287.429 M290.608 287.164 C 289.616 287.926,289.675 289.162,290.759 290.271 L 291.470 291.000 290.657 291.882 C 288.672 294.036,290.925 296.289,293.079 294.304 L 293.961 293.491 294.690 294.202 C 296.871 296.332,299.303 294.128,297.241 291.890 L 296.435 291.016 297.241 290.141 C 299.283 287.925,297.036 285.677,294.820 287.720 L 293.945 288.526 293.071 287.720 C 292.147 286.869,291.255 286.668,290.608 287.164 M265.674 290.831 C 264.006 292.443,263.733 293.504,264.772 294.322 C 266.680 295.823,270.839 291.531,269.079 289.878 C 268.171 289.025,267.285 289.273,265.674 290.831 M6.287 289.860 C 3.167 290.463,1.396 293.620,2.447 296.705 C 3.613 300.127,8.322 301.192,10.904 298.618 C 14.543 294.992,11.325 288.886,6.287 289.860 M208.442 289.924 C 202.732 291.787,204.529 300.298,210.517 299.755 C 216.640 299.200,216.522 290.151,210.386 289.728 C 209.752 289.684,208.920 289.768,208.442 289.924 M8.149 293.549 C 9.748 294.524,8.512 297.159,6.767 296.495 C 5.372 295.965,5.335 293.913,6.710 293.358 C 7.325 293.110,7.457 293.127,8.149 293.549 M211.213 293.765 C 211.794 294.455,211.829 294.728,211.435 295.490 C 210.865 296.592,209.423 296.689,208.711 295.672 C 207.539 293.999,209.898 292.202,211.213 293.765 M300.815 300.452 C 299.835 301.495,300.154 302.360,302.315 304.521 C 304.508 306.713,305.319 307.003,306.357 305.966 C 307.394 304.928,307.104 304.117,304.911 301.925 C 302.735 299.748,301.794 299.410,300.815 300.452 M309.412 302.022 C 307.332 304.136,307.125 304.547,307.649 305.530 C 308.490 307.110,309.594 306.859,311.939 304.556 C 314.048 302.484,314.343 301.890,313.794 300.829 C 312.986 299.266,311.810 299.586,309.412 302.022 M349.895 300.462 C 344.808 302.831,346.454 310.433,352.051 310.422 C 357.707 310.412,359.340 302.853,354.203 300.460 C 352.871 299.840,351.229 299.841,349.895 300.462 M188.645 301.495 C 185.829 301.984,183.984 305.514,185.065 308.345 C 186.335 311.670,190.783 312.535,193.312 309.949 C 196.725 306.458,193.518 300.647,188.645 301.495 M353.110 304.021 C 354.090 304.846,353.873 306.232,352.684 306.732 C 350.959 307.457,349.631 305.417,350.962 304.087 C 351.670 303.378,352.323 303.359,353.110 304.021 M107.813 304.630 C 105.974 305.302,106.191 306.493,108.588 308.881 C 110.775 311.060,111.393 311.299,112.397 310.357 C 113.375 309.438,113.131 308.640,111.284 306.716 C 109.329 304.679,108.704 304.304,107.813 304.630 M117.090 304.846 C 113.602 307.043,112.381 310.820,115.159 310.820 C 116.135 310.820,119.727 307.259,119.727 306.291 C 119.727 304.969,118.212 304.139,117.090 304.846 M190.772 305.322 C 191.462 306.061,191.505 306.689,190.914 307.391 C 189.938 308.550,188.086 307.931,188.086 306.445 C 188.086 305.101,189.869 304.356,190.772 305.322 M167.521 306.253 C 165.556 307.799,167.249 310.942,169.625 310.157 C 170.922 309.730,171.476 308.280,170.860 306.928 C 170.381 305.876,168.487 305.493,167.521 306.253 M320.410 307.062 C 319.785 307.436,319.544 307.861,319.537 308.603 C 319.527 309.739,323.003 325.018,323.362 325.415 C 323.776 325.873,324.019 325.943,329.833 327.277 C 333.824 328.193,334.748 328.466,334.681 328.707 C 334.636 328.870,334.407 329.856,334.172 330.898 L 333.746 332.791 332.537 332.028 C 322.958 325.978,316.182 326.524,312.742 333.622 C 308.574 342.220,309.187 351.561,314.449 359.666 L 315.211 360.840 314.738 362.654 C 313.216 368.491,313.986 374.818,316.908 380.474 C 318.133 382.847,318.960 383.430,320.179 382.781 C 321.411 382.124,321.366 381.353,319.924 378.438 C 312.672 363.782,322.821 347.676,342.452 342.685 C 371.042 335.417,398.529 356.618,388.273 378.027 C 379.690 395.945,350.220 402.039,330.745 389.923 C 328.564 388.566,326.953 388.913,326.953 390.740 C 326.953 393.559,338.830 398.414,348.438 399.523 C 375.675 402.665,399.224 382.888,393.064 362.044 L 392.785 361.101 393.956 359.162 C 398.976 350.852,399.477 342.043,395.405 333.691 C 391.941 326.587,385.420 325.960,375.902 331.817 C 375.163 332.272,374.491 332.572,374.410 332.484 C 374.241 332.302,373.363 328.522,373.467 328.426 C 373.505 328.392,375.952 327.807,378.906 327.126 C 382.898 326.207,384.379 325.787,384.675 325.493 C 385.052 325.117,388.673 309.687,388.672 308.458 C 388.671 306.703,387.083 306.575,382.780 307.986 C 376.224 310.136,370.749 312.858,366.211 316.223 C 364.290 317.647,364.348 317.507,363.969 321.578 C 363.606 325.488,363.947 325.024,360.938 325.702 C 357.320 326.518,357.089 326.824,357.814 329.846 C 358.358 332.115,358.398 332.007,357.015 331.968 C 355.329 331.919,354.980 332.349,354.798 334.699 C 354.513 338.376,353.689 338.812,353.410 335.434 C 353.150 332.287,352.683 331.672,350.752 331.938 L 349.787 332.070 349.914 331.514 C 349.984 331.208,350.163 330.461,350.313 329.855 C 351.043 326.905,350.715 326.478,347.111 325.677 C 344.919 325.190,344.502 325.039,344.435 324.708 C 344.391 324.493,344.254 323.086,344.130 321.582 C 343.771 317.223,343.888 317.394,339.219 314.370 C 333.457 310.638,321.924 306.157,320.410 307.062 M302.439 308.995 C 300.176 311.223,299.812 312.117,300.776 313.081 C 301.842 314.147,302.735 313.804,305.057 311.437 C 307.442 309.005,307.539 307.389,305.318 307.091 L 304.488 306.979 302.439 308.995 M307.993 307.602 C 306.921 308.673,307.335 309.694,309.787 312.028 C 311.632 313.785,312.679 314.094,313.524 313.131 C 314.465 312.059,314.191 311.222,312.243 309.222 C 309.931 306.848,309.073 306.522,307.993 307.602 M328.125 312.789 C 332.062 314.332,336.389 316.642,339.183 318.692 L 340.378 319.569 340.728 323.372 C 341.167 328.142,341.022 327.915,344.095 328.628 C 346.978 329.296,346.818 329.061,346.196 331.735 C 345.398 335.168,345.749 335.836,348.277 335.696 C 349.951 335.603,349.992 335.638,349.997 337.131 L 350.000 337.837 348.547 337.968 C 347.747 338.041,346.369 338.227,345.484 338.383 C 343.522 338.728,343.658 339.124,344.487 335.495 C 345.556 330.816,345.313 330.485,341.084 330.851 C 339.596 330.979,338.237 331.124,338.064 331.172 C 337.788 331.248,337.808 331.010,338.222 329.253 C 339.079 325.622,339.291 325.795,331.927 324.095 C 328.815 323.377,326.247 322.773,326.219 322.753 C 326.169 322.718,323.633 311.431,323.633 311.247 C 323.633 311.131,325.747 311.856,328.125 312.789 M384.167 312.744 C 383.969 313.630,383.389 316.248,382.879 318.561 L 381.952 322.767 376.181 324.099 C 368.833 325.795,369.041 325.619,369.922 329.395 C 370.137 330.316,370.313 331.092,370.313 331.120 C 370.313 331.148,368.987 331.045,367.367 330.893 C 362.734 330.456,362.537 330.693,363.609 335.425 C 364.426 339.036,364.541 338.757,362.391 338.382 C 361.442 338.217,360.061 338.025,359.322 337.957 C 358.078 337.841,357.986 337.801,358.088 337.422 C 358.148 337.196,358.199 336.697,358.200 336.312 L 358.203 335.611 359.750 335.701 C 362.377 335.853,362.728 335.118,361.827 331.349 C 361.287 329.086,361.135 329.296,363.733 328.718 C 367.136 327.961,366.904 328.301,367.385 323.378 C 367.796 319.178,367.610 319.556,370.082 317.897 C 373.362 315.695,377.614 313.626,382.422 311.893 C 383.550 311.486,384.485 311.148,384.500 311.143 C 384.516 311.137,384.366 311.858,384.167 312.744 M110.254 311.690 C 106.833 313.796,105.563 317.617,108.284 317.617 C 109.333 317.617,112.891 314.171,112.891 313.154 C 112.891 311.598,111.583 310.872,110.254 311.690 M114.355 311.554 C 112.826 312.390,113.076 313.378,115.404 315.697 C 117.611 317.895,118.361 318.167,119.280 317.098 C 120.145 316.094,119.930 315.437,118.120 313.552 C 116.050 311.396,115.337 311.017,114.355 311.554 M147.235 314.076 C 142.482 314.663,137.128 316.857,131.579 320.492 L 129.099 322.116 128.075 321.412 C 119.715 315.660,107.126 326.562,111.469 335.793 L 112.090 337.113 111.628 337.416 C 111.373 337.583,110.273 338.112,109.184 338.591 C 103.173 341.236,100.000 345.630,100.000 351.309 C 100.000 355.674,100.896 356.052,111.253 356.054 L 118.892 356.055 118.994 358.936 C 119.704 379.014,139.186 397.304,155.273 392.995 C 161.818 391.243,168.522 386.672,167.543 384.630 C 166.866 383.220,165.824 383.343,163.502 385.106 C 156.839 390.164,150.311 391.429,143.477 388.987 C 138.931 387.362,137.296 384.924,138.456 381.500 C 139.174 379.380,138.738 378.320,137.149 378.320 C 135.912 378.320,135.062 379.753,134.809 382.264 L 134.665 383.691 133.529 382.624 C 126.884 376.380,122.287 366.231,122.269 357.764 L 122.266 356.055 150.029 356.055 L 177.793 356.055 177.681 358.545 C 177.445 363.790,175.522 369.973,172.685 374.609 C 171.786 376.079,172.417 377.578,173.935 377.578 C 176.529 377.578,180.741 366.525,181.003 359.033 L 181.107 356.055 188.747 356.054 C 197.100 356.052,197.465 356.012,198.627 354.963 C 201.596 352.280,199.672 344.747,195.065 341.020 C 193.903 340.079,193.241 339.713,189.648 338.021 C 188.628 337.541,187.560 336.963,187.274 336.738 L 186.756 336.329 187.170 335.303 C 187.817 333.698,187.772 330.096,187.081 328.188 C 184.655 321.496,177.158 317.978,171.353 320.808 L 169.953 321.490 167.838 320.105 C 160.822 315.510,153.345 313.322,147.235 314.076 M396.387 316.485 C 393.994 317.541,394.694 320.898,397.306 320.898 C 399.886 320.898,400.514 317.481,398.118 316.480 C 397.335 316.153,397.137 316.154,396.387 316.485 M153.571 317.674 C 161.314 319.024,169.541 324.378,180.780 335.381 L 185.100 339.610 188.400 341.218 C 194.138 344.013,196.262 346.488,196.623 350.797 C 196.805 352.968,202.419 352.734,150.000 352.734 C 97.581 352.734,103.195 352.968,103.377 350.797 C 103.738 346.488,105.862 344.013,111.600 341.218 L 114.900 339.610 119.218 335.381 C 133.742 321.158,143.805 315.971,153.571 317.674 M125.342 323.798 C 126.377 324.332,126.579 324.006,123.682 326.483 C 122.312 327.654,119.776 329.997,118.046 331.689 C 114.422 335.234,114.748 335.051,114.363 333.754 C 112.604 327.831,120.058 321.072,125.342 323.798 M177.884 323.603 C 181.787 324.818,184.747 329.020,184.288 332.695 L 184.150 333.798 181.187 330.935 C 179.556 329.360,177.054 327.097,175.626 325.905 L 173.029 323.738 173.673 323.505 C 174.645 323.153,176.581 323.198,177.884 323.603 M323.702 331.846 C 326.230 332.690,329.255 334.177,331.536 335.695 C 333.542 337.031,337.096 340.350,336.790 340.603 C 336.697 340.680,336.094 340.950,335.449 341.203 C 333.830 341.840,330.395 343.578,329.102 344.416 C 328.037 345.106,328.025 345.108,327.734 344.712 C 323.498 338.937,319.122 335.759,317.614 337.364 C 315.313 339.814,315.079 347.010,317.102 353.092 C 317.896 355.479,317.885 355.340,317.350 356.206 L 316.926 356.891 316.073 355.194 C 312.916 348.911,312.673 342.736,315.337 336.511 C 317.384 331.728,319.618 330.483,323.702 331.846 M388.413 331.542 C 390.802 332.252,392.757 335.273,394.046 340.245 C 395.292 345.056,394.327 351.346,391.612 356.100 L 391.050 357.083 390.627 356.255 L 390.205 355.426 390.722 354.032 C 393.468 346.631,392.626 336.914,389.240 336.914 C 387.723 336.914,383.029 340.829,381.159 343.654 C 380.733 344.298,380.323 344.900,380.247 344.994 C 380.172 345.087,379.355 344.706,378.431 344.148 C 376.752 343.134,373.405 341.491,372.021 341.001 C 371.059 340.660,371.071 340.620,372.607 339.015 C 377.053 334.372,385.112 330.562,388.413 331.542 M340.946 334.912 C 340.881 335.208,340.669 336.214,340.473 337.149 L 340.118 338.850 339.306 337.833 C 338.860 337.274,338.046 336.377,337.499 335.840 L 336.504 334.863 338.613 334.647 C 339.773 334.527,340.800 334.418,340.894 334.402 C 340.988 334.387,341.011 334.617,340.946 334.912 M370.143 334.729 L 371.634 334.863 369.818 336.768 L 368.002 338.674 367.801 337.745 C 367.690 337.234,367.474 336.279,367.320 335.622 L 367.039 334.428 367.846 334.512 C 368.289 334.558,369.323 334.655,370.143 334.729 M321.763 343.213 C 322.762 344.207,323.906 345.517,324.305 346.124 L 325.031 347.229 324.088 348.066 C 323.569 348.526,322.523 349.550,321.762 350.340 L 320.380 351.777 320.158 351.035 C 319.322 348.239,319.018 345.309,319.333 343.087 C 319.627 341.019,319.553 341.015,321.763 343.213 M388.758 345.117 C 388.757 347.778,388.282 350.785,387.723 351.660 C 387.654 351.768,386.576 350.829,385.328 349.574 L 383.057 347.293 383.765 346.242 C 384.816 344.680,385.896 343.458,387.197 342.357 C 388.686 341.097,388.758 341.224,388.758 345.117 M130.593 357.818 C 126.700 358.984,124.875 366.025,127.251 370.712 C 129.784 375.712,135.487 375.090,137.404 369.605 C 139.653 363.169,135.679 356.295,130.593 357.818 M165.332 358.064 C 159.069 361.067,160.662 374.072,167.293 374.072 C 174.975 374.072,175.289 358.155,167.617 357.678 C 166.530 357.610,166.143 357.675,165.332 358.064 M133.226 361.719 C 135.059 363.646,135.031 368.259,133.175 370.116 C 130.947 372.343,128.477 366.786,130.070 363.133 C 130.991 361.023,132.094 360.529,133.226 361.719 M168.230 361.522 C 170.249 363.295,170.379 367.995,168.466 370.024 C 167.659 370.879,167.029 370.905,166.239 370.116 C 163.438 367.314,165.363 359.005,168.230 361.522 M333.823 361.216 C 329.221 362.715,328.006 368.668,331.636 371.931 C 335.583 375.480,342.024 372.697,342.057 367.429 C 342.084 363.048,337.896 359.888,333.823 361.216 M369.043 361.109 C 365.946 361.927,363.864 365.164,364.438 368.267 C 365.844 375.877,376.833 374.921,376.852 367.188 C 376.861 363.067,373.003 360.064,369.043 361.109 M336.774 364.721 C 338.812 365.590,339.090 368.415,337.246 369.539 C 334.726 371.076,331.876 368.037,333.586 365.636 C 334.329 364.592,335.609 364.225,336.774 364.721 M371.889 364.851 C 374.315 366.089,373.597 369.664,370.882 369.865 C 369.000 370.005,367.837 368.823,368.017 366.953 C 368.207 364.977,370.110 363.943,371.889 364.851 M105.295 371.757 C 104.286 372.316,103.950 374.116,104.681 375.045 C 106.299 377.102,109.532 375.202,108.523 372.787 C 108.043 371.640,106.433 371.126,105.295 371.757 M304.165 371.769 C 302.525 372.483,302.382 375.091,303.938 375.896 C 305.148 376.521,306.795 376.041,307.256 374.929 C 308.146 372.781,306.263 370.857,304.165 371.769 M347.891 374.810 C 346.291 376.301,347.908 380.164,350.682 381.476 C 354.720 383.386,360.105 379.692,359.103 375.698 C 358.656 373.915,355.664 374.070,355.664 375.876 C 355.664 377.239,354.484 378.514,353.223 378.514 C 351.961 378.514,350.781 377.239,350.781 375.876 C 350.781 374.629,348.850 373.916,347.891 374.810 M170.410 378.363 C 170.195 378.487,169.844 378.812,169.629 379.085 C 169.414 379.358,168.821 380.058,168.311 380.641 C 166.889 382.266,167.102 383.842,168.779 384.110 C 170.024 384.310,172.852 381.271,172.852 379.732 C 172.852 378.450,171.536 377.712,170.410 378.363 M321.037 383.596 C 320.367 384.124,320.203 384.964,320.605 385.811 C 321.050 386.749,323.481 389.057,324.053 389.085 C 326.589 389.209,326.911 387.450,324.769 385.179 C 322.780 383.071,322.082 382.775,321.037 383.596 M189.178 386.538 C 188.403 387.459,188.533 388.161,189.711 389.405 L 190.312 390.040 189.603 390.772 C 187.533 392.907,189.781 395.236,191.987 393.243 L 192.765 392.540 193.586 393.243 C 195.751 395.097,198.011 393.020,196.092 390.939 L 195.265 390.041 195.952 389.281 C 198.030 386.980,195.909 384.660,193.640 386.751 L 192.757 387.565 191.928 386.751 C 190.851 385.694,189.947 385.624,189.178 386.538 M391.782 387.290 C 390.929 388.142,391.007 388.861,392.074 390.002 L 392.937 390.924 392.074 391.837 C 389.948 394.087,392.354 396.412,394.633 394.311 L 395.508 393.505 396.382 394.311 C 397.388 395.238,398.255 395.373,399.071 394.731 C 400.024 393.981,399.850 392.639,398.655 391.514 L 398.043 390.939 398.717 390.245 C 400.966 387.929,398.748 385.345,396.382 387.525 L 395.508 388.331 394.633 387.525 C 393.519 386.497,392.646 386.425,391.782 387.290 M107.829 388.995 C 105.852 389.721,104.537 391.907,104.739 394.133 C 105.315 400.490,114.648 400.037,114.648 393.652 C 114.648 390.099,111.214 387.753,107.829 388.995 M306.738 389.884 C 303.956 390.857,302.525 394.287,303.781 396.973 C 306.183 402.108,313.740 400.478,313.740 394.824 C 313.740 391.158,310.213 388.669,306.738 389.884 M110.889 392.694 C 112.111 394.062,110.325 396.054,108.820 395.000 C 108.195 394.562,107.979 393.891,108.231 393.167 C 108.646 391.977,110.028 391.731,110.889 392.694 M309.677 393.643 C 310.402 394.369,310.390 395.376,309.646 396.045 C 308.074 397.460,305.912 395.230,307.407 393.735 C 308.135 393.007,309.005 392.971,309.677 393.643 ">
        </path>
    </g>
</svg>