<svg id="svg" version="1.1" xmlns="http://www.w3.org/2000/svg" xmlns:xlink="http://www.w3.org/1999/xlink" width="400" height="200" viewBox="0, 0, 400,200"><g id="svgg"><path id="path0" d="M206.591 0.657 C 200.309 3.002,203.457 12.363,209.885 10.454 C 214.221 9.166,214.710 3.026,210.645 0.930 C 209.652 0.418,207.601 0.280,206.591 0.657 M6.152 1.442 C 1.335 3.720,2.968 10.938,8.301 10.938 C 11.277 10.938,13.268 8.951,13.277 5.970 C 13.289 2.219,9.543 -0.161,6.152 1.442 M209.446 4.421 C 210.180 5.156,210.147 6.059,209.360 6.721 C 207.775 8.055,205.812 6.093,207.146 4.507 C 207.808 3.721,208.712 3.687,209.446 4.421 M9.390 4.868 C 10.791 6.269,8.927 8.452,7.373 7.230 C 6.429 6.487,6.556 5.086,7.617 4.550 C 8.364 4.172,8.767 4.244,9.390 4.868 M286.759 5.478 C 285.592 5.946,285.240 12.026,286.313 13.168 C 286.959 13.855,288.105 13.866,288.778 13.192 C 289.334 12.636,289.524 6.711,289.007 6.038 C 288.472 5.340,287.627 5.130,286.759 5.478 M249.668 6.047 C 248.027 7.047,248.032 9.760,249.677 10.838 C 252.157 12.463,255.236 9.383,253.612 6.904 C 252.827 5.706,250.910 5.289,249.668 6.047 M49.121 6.242 C 47.178 7.051,46.937 10.025,48.725 11.130 C 50.593 12.284,52.928 10.984,52.928 8.789 C 52.928 6.812,50.942 5.484,49.121 6.242 M89.347 7.901 C 88.879 8.369,88.867 8.453,88.867 11.432 L 88.867 14.483 89.438 15.054 C 90.227 15.843,91.710 15.665,92.066 14.737 C 92.450 13.736,92.188 8.272,91.735 7.847 C 91.098 7.247,89.975 7.273,89.347 7.901 M278.494 13.769 C 277.434 14.345,277.316 15.853,278.271 16.605 C 279.105 17.260,284.783 17.188,285.458 16.513 C 286.267 15.703,286.102 14.258,285.142 13.762 C 284.372 13.364,279.230 13.369,278.494 13.769 M290.043 13.727 C 288.979 14.266,288.781 15.569,289.633 16.421 L 290.204 16.992 293.353 16.992 C 296.436 16.992,296.512 16.982,296.982 16.513 C 297.706 15.789,297.651 14.648,296.860 13.982 C 296.163 13.395,291.075 13.205,290.043 13.727 M220.987 15.323 C 220.221 16.089,220.330 17.003,221.314 18.071 L 222.120 18.945 221.314 19.820 C 219.243 22.067,221.652 24.368,223.885 22.276 L 224.707 21.506 225.516 22.296 C 226.940 23.688,228.711 23.187,228.711 21.392 C 228.711 20.711,228.591 20.470,227.936 19.830 L 227.161 19.073 227.936 18.232 C 230.003 15.990,227.722 13.587,225.484 15.650 L 224.609 16.456 223.735 15.650 C 222.668 14.666,221.753 14.557,220.987 15.323 M81.339 15.909 C 81.008 16.240,80.859 16.606,80.859 17.090 C 80.859 18.550,81.350 18.750,84.930 18.750 C 88.660 18.750,88.965 18.625,88.965 17.090 C 88.965 15.555,88.660 15.430,84.930 15.430 C 81.886 15.430,81.808 15.440,81.339 15.909 M92.573 15.923 C 92.270 16.246,92.109 16.650,92.109 17.090 C 92.109 18.544,92.604 18.750,96.101 18.750 C 99.760 18.750,100.195 18.576,100.195 17.110 C 100.195 15.578,99.839 15.430,96.164 15.430 C 93.072 15.430,93.032 15.435,92.573 15.923 M286.759 17.001 C 285.535 17.493,285.235 23.733,286.388 24.724 C 287.127 25.359,288.138 25.356,288.778 24.716 C 289.334 24.160,289.524 18.234,289.007 17.561 C 288.472 16.864,287.627 16.653,286.759 17.001 M89.438 19.126 L 88.867 19.697 88.867 22.748 C 88.867 26.294,89.066 26.758,90.582 26.758 C 92.021 26.758,92.188 26.349,92.188 22.806 C 92.188 19.375,92.160 19.237,91.392 18.840 C 90.573 18.417,90.074 18.489,89.438 19.126 M22.300 20.374 C 21.600 21.118,21.724 22.110,22.639 23.103 L 23.403 23.932 22.639 24.752 C 20.629 26.906,22.898 29.175,25.053 27.166 L 25.872 26.401 26.701 27.166 C 28.871 29.165,31.131 26.908,29.119 24.752 L 28.354 23.932 29.119 23.103 C 31.120 20.932,28.873 18.684,26.701 20.686 L 25.872 21.450 25.053 20.686 C 24.050 19.750,22.998 19.631,22.300 20.374 M249.414 26.093 C 243.539 26.947,236.959 29.748,232.451 33.313 L 230.912 34.530 229.651 34.428 C 224.740 34.034,220.866 38.907,222.337 43.630 L 222.634 44.584 221.890 46.071 C 216.181 57.490,216.697 71.319,223.241 82.294 C 224.845 84.983,225.847 85.571,227.040 84.521 C 227.939 83.730,227.883 83.111,226.742 81.250 C 223.828 76.497,221.963 71.101,221.562 66.260 L 221.428 64.648 231.688 64.648 L 241.948 64.648 242.086 65.568 C 244.135 79.233,264.577 79.693,267.518 66.140 L 267.842 64.648 278.089 64.648 L 288.335 64.648 288.201 66.162 C 286.145 89.382,261.549 103.331,240.266 93.348 C 237.515 92.058,236.328 92.271,236.328 94.056 C 236.328 95.191,236.637 95.492,238.934 96.593 C 252.922 103.304,269.790 100.466,280.753 89.559 C 292.171 78.200,295.077 60.815,287.975 46.355 C 286.956 44.279,286.914 44.134,287.100 43.328 C 288.194 38.581,284.617 34.135,279.920 34.404 C 278.826 34.467,278.784 34.449,277.246 33.283 C 269.331 27.279,259.221 24.667,249.414 26.093 M50.751 26.377 C 27.625 28.271,12.362 51.186,19.472 73.340 C 25.766 92.950,47.354 103.425,66.495 96.154 C 89.745 87.324,97.389 58.004,81.407 38.962 C 78.580 35.594,77.399 34.899,76.188 35.889 C 75.165 36.724,75.384 37.470,77.239 39.475 C 82.810 45.498,85.484 51.315,86.410 59.424 L 86.516 60.352 76.455 60.352 C 68.571 60.352,66.380 60.299,66.329 60.107 C 64.721 54.067,61.029 50.566,55.463 49.804 C 49.207 48.947,42.886 53.173,41.537 59.113 L 41.278 60.254 31.179 60.304 L 21.080 60.355 21.202 59.328 C 23.699 38.256,43.702 24.953,63.574 31.148 C 66.550 32.075,68.087 31.250,67.162 29.222 C 66.385 27.515,56.910 25.873,50.751 26.377 M257.715 29.304 C 263.819 29.878,269.918 32.186,274.569 35.682 L 275.212 36.165 274.560 36.886 C 273.422 38.146,267.534 46.892,267.158 47.882 C 265.492 52.267,268.779 56.932,273.535 56.932 C 276.538 56.932,277.191 56.466,281.786 51.048 L 284.662 47.656 285.216 48.751 C 286.491 51.274,287.881 56.385,288.197 59.719 L 288.332 61.136 278.026 61.086 L 267.720 61.035 267.452 59.961 C 264.279 47.260,245.487 47.260,242.314 59.961 L 242.045 61.035 231.738 61.086 L 221.430 61.136 221.566 59.621 C 221.853 56.431,222.899 52.474,224.294 49.301 L 224.902 47.919 228.027 51.580 C 230.058 53.958,231.510 55.479,232.174 55.920 C 237.479 59.449,244.338 54.009,242.225 47.949 C 241.896 47.005,236.675 39.157,235.102 37.242 L 234.328 36.300 234.777 35.972 C 241.779 30.863,249.726 28.552,257.715 29.304 M69.815 31.339 C 69.172 31.982,69.153 33.162,69.775 33.733 C 71.876 35.657,74.414 35.636,74.414 33.694 C 74.414 31.893,71.006 30.148,69.815 31.339 M230.762 38.262 C 231.824 38.754,232.434 39.455,234.777 42.871 C 238.902 48.883,239.063 49.159,239.063 50.226 C 239.063 52.614,236.599 54.197,234.466 53.180 C 233.604 52.769,226.539 44.561,225.972 43.312 C 224.479 40.023,227.559 36.776,230.762 38.262 M281.591 38.191 C 283.654 39.053,284.392 41.422,283.252 43.524 C 282.425 45.050,275.740 52.784,274.904 53.183 C 272.249 54.448,269.225 51.484,270.556 48.921 C 271.080 47.912,276.560 39.977,277.213 39.283 C 278.418 38.000,280.119 37.576,281.591 38.191 M93.695 40.191 C 92.629 40.851,92.151 42.426,92.652 43.626 C 93.625 45.953,97.205 45.760,97.855 43.345 C 98.509 40.920,95.815 38.877,93.695 40.191 M3.971 40.411 C -1.556 41.822,-0.602 50.391,5.082 50.391 C 8.614 50.391,11.008 47.002,9.879 43.602 C 9.119 41.314,6.332 39.808,3.971 40.411 M295.397 40.869 C 293.209 42.879,295.080 46.348,297.998 45.693 C 299.679 45.315,300.545 43.222,299.698 41.583 C 298.937 40.113,296.636 39.731,295.397 40.869 M203.354 40.997 C 197.962 42.859,199.364 50.977,205.078 50.977 C 209.793 50.977,211.991 45.234,208.505 42.021 C 207.077 40.705,205.251 40.342,203.354 40.997 M6.330 44.351 C 6.912 45.043,6.946 45.313,6.549 46.082 C 5.732 47.662,3.162 46.746,3.593 45.029 C 3.935 43.669,5.442 43.296,6.330 44.351 M205.848 44.428 C 207.323 45.191,206.747 47.461,205.078 47.461 C 203.434 47.461,202.834 45.216,204.269 44.437 C 204.930 44.078,205.168 44.076,205.848 44.428 M56.474 53.509 C 63.200 55.587,65.258 63.891,60.277 68.857 C 55.161 73.958,46.665 71.585,44.830 64.543 C 43.058 57.739,49.724 51.423,56.474 53.509 M258.130 54.397 C 264.611 56.836,266.415 65.061,261.539 69.938 C 256.199 75.278,247.343 72.592,245.587 65.100 C 243.946 58.099,251.298 51.825,258.130 54.397 M52.234 56.031 C 44.908 57.926,46.235 68.746,53.795 68.751 C 60.588 68.756,62.796 59.608,56.723 56.619 C 55.396 55.965,53.465 55.713,52.234 56.031 M253.211 56.812 C 245.744 58.742,247.167 69.800,254.883 69.813 C 263.398 69.827,263.725 57.075,255.219 56.717 C 254.443 56.684,253.539 56.727,253.211 56.812 M55.625 59.933 C 57.953 61.591,56.695 65.332,53.809 65.332 C 51.513 65.332,50.066 62.949,51.143 60.941 C 52.037 59.273,54.060 58.819,55.625 59.933 M256.588 60.673 C 257.585 61.418,257.910 62.055,257.910 63.262 C 257.910 67.291,252.129 67.456,251.806 63.436 C 251.606 60.950,254.623 59.207,256.588 60.673 M41.300 64.558 C 43.306 77.941,63.273 78.428,66.151 65.164 L 66.475 63.672 76.508 63.672 L 86.541 63.672 86.443 64.307 C 86.389 64.656,86.290 65.469,86.224 66.113 C 84.522 82.602,69.002 95.909,52.496 95.033 C 35.780 94.146,23.153 81.907,21.197 64.697 L 21.080 63.672 31.123 63.672 L 41.167 63.672 41.300 64.558 M229.757 86.912 C 227.834 87.688,228.825 90.248,231.736 92.023 C 233.053 92.826,234.464 92.103,234.464 90.627 C 234.464 89.862,234.372 89.721,233.101 88.546 C 231.342 86.918,230.618 86.565,229.757 86.912 M306.787 99.095 C 300.504 101.439,303.652 110.800,310.081 108.891 C 314.416 107.604,314.905 101.464,310.840 99.368 C 309.847 98.856,307.797 98.718,306.787 99.095 M106.982 100.267 C 100.700 102.611,103.847 111.972,110.276 110.063 C 114.611 108.776,115.101 102.636,111.035 100.540 C 110.043 100.028,107.992 99.890,106.982 100.267 M309.641 102.859 C 310.376 103.593,310.342 104.496,309.555 105.158 C 307.970 106.493,306.007 104.530,307.342 102.945 C 308.004 102.158,308.907 102.124,309.641 102.859 M109.837 104.031 C 110.845 105.039,110.093 106.836,108.661 106.836 C 107.351 106.836,106.659 105.160,107.537 104.117 C 108.199 103.330,109.102 103.296,109.837 104.031 M386.954 103.916 C 385.787 104.384,385.435 110.464,386.509 111.606 C 387.154 112.293,388.300 112.304,388.974 111.630 C 389.530 111.074,389.719 105.148,389.203 104.475 C 388.667 103.778,387.822 103.567,386.954 103.916 M349.863 104.484 C 347.710 105.797,348.489 109.286,351.026 109.698 C 353.320 110.070,355.089 107.298,353.807 105.341 C 353.022 104.143,351.105 103.727,349.863 104.484 M187.150 105.087 C 185.983 105.556,185.630 111.636,186.704 112.778 C 187.350 113.464,188.495 113.476,189.169 112.802 C 189.725 112.246,189.915 106.320,189.398 105.647 C 188.863 104.950,188.017 104.739,187.150 105.087 M150.058 105.656 C 148.418 106.657,148.423 109.370,150.068 110.448 C 152.547 112.072,155.627 108.993,154.002 106.513 C 153.217 105.315,151.300 104.899,150.058 105.656 M378.689 112.207 C 377.630 112.783,377.511 114.291,378.466 115.042 C 379.300 115.698,384.978 115.625,385.653 114.950 C 386.481 114.123,386.260 112.696,385.218 112.141 C 384.574 111.798,379.344 111.851,378.689 112.207 M390.238 112.165 C 389.174 112.703,388.976 114.006,389.829 114.859 L 390.400 115.430 393.549 115.430 C 396.631 115.430,396.707 115.420,397.177 114.950 C 397.901 114.226,397.846 113.085,397.055 112.420 C 396.358 111.833,391.270 111.643,390.238 112.165 M178.884 113.379 C 177.825 113.955,177.706 115.463,178.662 116.214 C 179.495 116.870,185.174 116.797,185.849 116.122 C 186.658 115.313,186.492 113.868,185.533 113.372 C 184.762 112.973,179.621 112.979,178.884 113.379 M190.434 113.337 C 189.370 113.875,189.172 115.178,190.024 116.031 L 190.595 116.602 193.744 116.602 C 196.827 116.602,196.903 116.592,197.372 116.122 C 198.096 115.398,198.041 114.257,197.251 113.592 C 196.553 113.005,191.466 112.815,190.434 113.337 M321.183 113.761 C 320.417 114.526,320.525 115.441,321.509 116.508 L 322.315 117.383 321.509 118.257 C 319.438 120.504,321.847 122.806,324.080 120.714 L 324.902 119.943 325.711 120.733 C 327.136 122.126,328.906 121.625,328.906 119.830 C 328.906 119.149,328.787 118.908,328.131 118.268 L 327.356 117.511 328.131 116.670 C 330.199 114.427,327.917 112.024,325.679 114.087 L 324.805 114.894 323.930 114.087 C 322.863 113.104,321.948 112.995,321.183 113.761 M121.378 114.933 C 120.612 115.698,120.721 116.613,121.705 117.680 L 122.511 118.555 121.705 119.429 C 119.634 121.676,122.042 123.978,124.275 121.886 L 125.098 121.115 125.906 121.905 C 127.331 123.297,129.102 122.797,129.102 121.002 C 129.102 120.321,128.982 120.080,128.326 119.440 L 127.551 118.683 128.326 117.842 C 130.394 115.599,128.113 113.196,125.875 115.259 L 125.000 116.065 124.125 115.259 C 123.058 114.275,122.144 114.167,121.378 114.933 M386.954 115.439 C 385.730 115.930,385.430 122.170,386.583 123.162 C 387.322 123.797,388.334 123.793,388.974 123.153 C 389.530 122.597,389.719 116.672,389.203 115.999 C 388.667 115.301,387.822 115.091,386.954 115.439 M187.150 116.611 C 185.925 117.102,185.625 123.342,186.778 124.334 C 187.517 124.969,188.529 124.965,189.169 124.325 C 189.725 123.769,189.915 117.843,189.398 117.171 C 188.863 116.473,188.017 116.263,187.150 116.611 M349.609 124.531 C 323.715 128.296,309.882 158.000,323.436 180.731 C 325.056 183.447,326.031 184.005,327.280 182.931 C 328.132 182.197,328.024 181.286,326.875 179.528 C 324.196 175.431,322.160 169.513,321.754 164.650 L 321.624 163.086 331.883 163.086 L 342.143 163.086 342.281 164.006 C 344.330 177.671,364.773 178.130,367.714 164.578 L 368.037 163.086 378.284 163.086 L 388.530 163.086 388.396 164.600 C 386.340 187.815,361.740 201.767,340.461 191.786 C 337.710 190.495,336.523 190.709,336.523 192.493 C 336.523 193.578,336.806 193.887,338.631 194.802 C 349.585 200.290,363.337 199.817,373.701 193.595 C 385.174 186.707,391.992 174.716,391.992 161.426 C 391.992 138.654,372.024 121.271,349.609 124.531 M149.897 125.680 C 147.933 125.978,144.840 126.730,143.089 127.335 C 142.035 127.699,141.869 127.708,141.107 127.449 C 129.866 123.633,116.026 136.629,120.692 146.618 L 121.257 147.827 120.684 149.301 C 116.701 159.559,117.843 172.196,123.632 181.903 C 125.235 184.593,126.238 185.180,127.431 184.131 C 128.330 183.339,128.274 182.721,127.132 180.859 C 124.218 176.107,122.353 170.710,121.952 165.869 L 121.819 164.258 132.079 164.258 L 142.338 164.258 142.476 165.178 C 144.526 178.843,164.968 179.302,167.909 165.750 L 168.233 164.258 178.479 164.258 L 188.726 164.258 188.592 165.771 C 186.535 188.988,161.937 202.939,140.657 192.958 C 137.906 191.667,136.719 191.880,136.719 193.665 C 136.719 194.800,137.028 195.101,139.324 196.203 C 160.360 206.294,185.600 194.320,191.118 171.632 C 192.985 163.955,192.142 153.241,189.246 147.829 C 189.120 147.594,189.224 147.164,189.602 146.356 C 190.454 144.539,190.395 140.464,189.484 138.056 C 186.539 130.276,177.076 125.107,169.727 127.263 C 168.339 127.670,168.455 127.681,165.738 126.863 C 161.208 125.499,154.420 124.992,149.897 125.680 M361.671 128.299 C 363.359 128.655,366.070 129.484,367.941 130.215 C 368.902 130.591,364.051 133.186,360.725 134.076 C 354.565 135.725,346.822 134.436,342.233 130.998 L 341.595 130.520 342.526 130.122 C 344.655 129.211,348.098 128.300,351.074 127.858 C 352.807 127.602,359.728 127.889,361.671 128.299 M159.863 129.129 C 161.538 129.370,164.648 130.074,164.648 130.211 C 164.648 130.267,164.346 130.809,163.977 131.416 C 157.566 141.952,173.358 156.662,185.095 151.088 L 186.513 150.415 187.095 152.233 C 187.774 154.351,188.397 157.312,188.588 159.328 L 188.723 160.746 178.417 160.695 L 168.111 160.645 167.838 159.576 C 164.583 146.857,145.882 146.852,142.704 159.570 L 142.436 160.645 132.155 160.695 L 121.875 160.746 121.876 160.109 C 121.879 158.310,122.984 153.033,123.735 151.229 L 123.996 150.603 125.133 151.168 C 136.661 156.891,152.548 141.776,146.067 131.251 C 145.397 130.163,145.332 130.216,148.060 129.609 C 151.946 128.744,156.035 128.578,159.863 129.129 M140.355 130.932 C 146.791 133.858,144.470 143.238,136.291 147.356 C 127.719 151.671,120.473 146.053,124.432 138.161 C 127.365 132.316,135.387 128.674,140.355 130.932 M175.944 130.571 C 183.058 132.248,188.562 139.889,186.332 144.994 C 183.383 151.746,171.061 149.009,167.102 140.723 C 163.954 134.133,168.570 128.832,175.944 130.571 M373.180 133.031 C 374.686 134.012,374.686 133.931,373.193 135.114 C 362.338 143.726,346.731 143.639,336.271 134.910 L 335.334 134.129 336.606 133.275 C 338.160 132.233,337.919 132.223,339.533 133.400 C 348.653 140.048,361.588 139.930,370.612 133.117 C 372.017 132.056,371.700 132.067,373.180 133.031 M379.127 138.037 C 380.820 139.798,382.080 141.404,383.395 143.476 L 384.151 144.667 378.293 152.070 L 372.434 159.473 370.175 159.473 L 367.916 159.473 367.642 158.404 C 364.384 145.674,345.746 145.670,342.514 158.398 L 342.241 159.473 339.822 159.527 L 337.402 159.581 331.604 152.260 L 325.806 144.938 327.337 142.625 C 328.208 141.308,329.658 139.482,330.703 138.384 L 332.539 136.457 334.092 137.694 C 346.494 147.579,363.934 147.460,375.977 137.409 C 377.547 136.098,377.194 136.028,379.127 138.037 M151.146 138.145 C 150.576 138.580,147.656 144.655,147.656 145.408 C 147.656 147.893,150.141 147.558,151.479 144.893 C 152.503 142.855,152.346 142.926,153.129 144.147 C 154.368 146.077,155.790 146.075,157.032 144.139 C 157.774 142.984,157.668 142.927,158.789 145.075 C 159.721 146.860,160.215 147.245,161.244 146.987 C 162.936 146.562,162.890 145.503,161.015 141.746 C 158.621 136.947,157.757 136.619,155.673 139.713 L 155.037 140.657 154.192 139.398 C 153.727 138.705,153.202 138.082,153.025 138.014 C 152.502 137.814,151.489 137.884,151.146 138.145 M395.592 139.307 C 393.417 141.304,395.274 144.788,398.166 144.136 C 400.383 143.636,400.846 140.008,398.826 138.964 C 397.792 138.429,396.385 138.578,395.592 139.307 M303.549 139.435 C 298.157 141.297,299.560 149.414,305.273 149.414 C 309.989 149.414,312.186 143.672,308.700 140.459 C 307.272 139.143,305.446 138.780,303.549 139.435 M195.788 140.479 C 193.600 142.488,195.470 145.957,198.389 145.302 C 200.070 144.925,200.936 142.831,200.088 141.193 C 199.328 139.723,197.027 139.340,195.788 140.479 M103.745 140.606 C 98.353 142.469,99.755 150.586,105.469 150.586 C 110.184 150.586,112.381 144.844,108.896 141.631 C 107.468 140.314,105.641 139.951,103.745 140.606 M306.043 142.865 C 307.519 143.628,306.942 145.898,305.273 145.898 C 303.630 145.898,303.029 143.654,304.464 142.874 C 305.125 142.515,305.364 142.514,306.043 142.865 M106.239 144.037 C 107.714 144.800,107.138 147.070,105.469 147.070 C 103.825 147.070,103.224 144.826,104.659 144.046 C 105.321 143.687,105.559 143.686,106.239 144.037 M386.805 150.789 C 387.559 153.102,388.192 156.037,388.393 158.154 L 388.527 159.570 382.729 159.570 C 377.150 159.570,376.941 159.557,377.186 159.213 C 379.034 156.629,385.860 148.309,385.980 148.495 C 386.064 148.625,386.435 149.657,386.805 150.789 M328.353 153.846 C 330.537 156.604,332.439 159.021,332.579 159.216 C 332.824 159.556,332.608 159.570,327.230 159.570 L 321.626 159.570 321.762 158.065 C 322.041 154.987,323.759 148.446,324.214 148.728 C 324.306 148.785,326.169 151.088,328.353 153.846 M358.160 152.749 C 362.303 154.153,365.119 158.758,364.450 163.037 C 363.238 170.790,353.810 173.876,348.363 168.304 C 341.400 161.180,348.724 149.551,358.160 152.749 M158.521 154.006 C 165.002 156.446,166.806 164.670,161.930 169.547 C 156.589 174.887,147.733 172.202,145.977 164.710 C 144.336 157.708,151.689 151.434,158.521 154.006 M353.406 155.250 C 345.940 157.180,347.362 168.238,355.078 168.251 C 363.593 168.265,363.920 155.513,355.414 155.155 C 354.638 155.122,353.735 155.165,353.406 155.250 M153.601 156.422 C 146.135 158.352,147.557 169.410,155.273 169.422 C 163.789 169.436,164.116 156.685,155.609 156.326 C 154.834 156.294,153.930 156.337,153.601 156.422 M356.783 159.111 C 357.780 159.855,358.105 160.492,358.105 161.699 C 358.105 165.728,352.324 165.893,352.001 161.873 C 351.802 159.387,354.819 157.644,356.783 159.111 M156.978 160.283 C 157.975 161.027,158.301 161.664,158.301 162.871 C 158.301 166.900,152.519 167.065,152.197 163.045 C 151.997 160.559,155.014 158.816,156.978 160.283 M329.953 185.350 C 328.030 186.126,329.021 188.685,331.931 190.460 C 333.248 191.263,334.659 190.541,334.659 189.064 C 334.659 188.299,334.567 188.158,333.296 186.983 C 331.537 185.356,330.814 185.002,329.953 185.350 M130.148 186.522 C 128.225 187.298,129.216 189.857,132.127 191.632 C 133.443 192.435,134.854 191.713,134.854 190.236 C 134.854 189.471,134.762 189.330,133.492 188.155 C 131.733 186.528,131.009 186.174,130.148 186.522 M7.031 199.805 C 6.718 199.905,7.242 199.961,8.496 199.961 C 9.750 199.961,10.274 199.905,9.961 199.805 C 9.692 199.719,9.033 199.648,8.496 199.648 C 7.959 199.648,7.300 199.719,7.031 199.805 M206.836 199.805 C 206.522 199.905,207.047 199.961,208.301 199.961 C 209.555 199.961,210.079 199.905,209.766 199.805 C 209.497 199.719,208.838 199.648,208.301 199.648 C 207.764 199.648,207.104 199.719,206.836 199.805 " stroke="none" fill="#000000" fill-rule="evenodd"></path></g></svg>